M48
;Layer_Color=9474304
;FILE_FORMAT=2:5
INCH,LZ
;TYPE=PLATED
T1F00S00C0.00394
T2F00S00C0.01181
T3F00S00C0.01378
T4F00S00C0.01968
T5F00S00C0.03150
T6F00S00C0.03425
T7F00S00C0.03543
T8F00S00C0.03937
T10F00S00C0.04331
T12F00S00C0.05118
T13F00S00C0.06890
;TYPE=NON_PLATED
T14F00S00C0.08268
%
T01
X0061367Y0061988
X0064123Y0059232
X0066879Y0061988
X0069635Y0059232
X0072391Y0061988
X0069635Y0064744
X0072391Y00675
X0069635Y0070255
X0064123
Y0064744
X0066879Y00675
X0061367
T02
X0036386Y0010268
Y0014441
Y0018772
Y0023378
X005243Y0013902
X0049451Y0009334
X0056005Y0010327
X007502Y002926
X0213937Y0027161
X0285785Y0032173
X0341087Y0010532
X0341048Y0038425
X034701Y0038215
X0335232Y008408
X0284792Y0082022
X0284197Y0093739
X0283005Y0105854
X0272479Y0098506
X0266521Y0083611
X0285984Y0068914
X0256988Y0038926
X0212677Y0047575
X0215323Y0141193
X0229979Y0141205
X0235341Y013902
X0226205Y013048
X0241498Y0150539
X0241895Y0162058
X0252222Y0155107
X0244278Y0178144
X0225411Y0177747
X0220049Y018013
X0275428Y0172981
X0281019Y0178144
X0298099Y015888
Y0155901
X028797Y0131473
X0301413Y0120866
X0258982Y0125666
X0208729Y0116975
X0179534Y0129884
X015749Y0134452
X0167817Y016603
X016881Y0170002
X0174768
Y0173974
X0173775Y016603
X019999Y0169009
X0147361Y0184301
X0098903Y0176158
X0097115Y0193635
X0097513Y0153518
X0081227Y0153319
X0070631Y011638
X0147163Y0091952
X0046472Y0111017
X0044089Y0156298
X0182911Y0197011
X0176357Y0205551
X0193039Y0203764
X0193238Y0226007
X0181398Y0225217
X0245867Y0213694
X0259372Y0232759
X0267713
X0260365Y02411
X0273075Y0243484
X0260166Y0258379
X0249044Y026672
X0296708Y0224617
X0297304Y0208927
T03
X0230575Y0042699
X0273075Y0052232
X0280225Y0051835
X028936
X0258974Y0081029
X0258577Y0087583
Y0094931
X0255995Y0101087
X0224418Y0107045
X0225014Y011062
X0277841Y0131275
X0291346Y0146368
X028075Y0186813
X0198799Y0075567
Y0071496
X013937Y0112598
X0133071Y0109842
Y0115748
X0096803Y0132705
X0091598Y0133181
X0086516Y0133476
X0081724Y0133535
X0071695Y0165632
X0052756Y0141732
X0203168Y0200983
X0211906Y0205352
T04
X0350309Y0150534
X0364482
Y0136361
T05
X0022672Y0116544
Y0136229
T06
X0299687Y0017278
Y0023184
Y0029089
Y0034995
X0327681Y0035973
Y0030068
Y0024162
Y0018257
Y0041879
Y0047784
X0299687Y0046806
Y00409
T07
X0100544Y000993
X0112355
T08
X0168271Y0095155
X0182191Y0109074
X0031924Y025369
X0012239
X0013026Y0296603
X0032711
X0070082Y0316379
X0148822
X0129137Y0237639
X0089767
T10
X0133105Y0356052
X0046491Y0356052
T12
X0195972Y0264776
Y0304894
Y0334776
X0225972Y0324776
X0267318Y0337509
Y0307627
Y0267509
X0297318
Y0327508
X0225972Y0264776
T13
X0022869Y0335658
X0212869Y035369
X0232869
X0271924
X0291924
X0022869Y0355658
T14
X0159286Y0012745
X0012042Y0184201
M30
