G04*
G04 #@! TF.GenerationSoftware,Altium Limited,Altium Designer,20.0.10 (225)*
G04*
G04 Layer_Color=16711935*
%FSLAX25Y25*%
%MOIN*%
G70*
G01*
G75*
%ADD65R,0.03150X0.05512*%
%ADD71R,0.04194X0.03494*%
%ADD72R,0.03494X0.04194*%
%ADD77R,0.05512X0.03150*%
%ADD95C,0.08268*%
%ADD96C,0.01181*%
%ADD97C,0.04331*%
%ADD98C,0.12205*%
%ADD99O,0.07087X0.05118*%
%ADD100C,0.00394*%
%ADD101C,0.08661*%
%ADD102O,0.08268X0.16142*%
%ADD103O,0.16142X0.08268*%
%ADD104O,0.07480X0.14567*%
%ADD105O,0.14567X0.07480*%
%ADD106C,0.02165*%
%ADD107C,0.02756*%
%ADD108C,0.02362*%
%ADD210R,0.03937X0.06693*%
%ADD211R,0.06693X0.03937*%
%ADD212R,0.04724X0.02756*%
%ADD213R,0.05039X0.02677*%
D65*
X325397Y100399D02*
D03*
X332877D02*
D03*
X339323Y132642D02*
D03*
X346803D02*
D03*
X339323Y139335D02*
D03*
X346803D02*
D03*
X363706Y82630D02*
D03*
X371186D02*
D03*
X348481Y17730D02*
D03*
X341001D02*
D03*
D71*
X325774Y93166D02*
D03*
X332074D02*
D03*
X324953Y115320D02*
D03*
X331253D02*
D03*
X325346Y110398D02*
D03*
X331646D02*
D03*
X367983Y23338D02*
D03*
X361683D02*
D03*
D72*
X379284Y125556D02*
D03*
Y119256D02*
D03*
X331662Y121372D02*
D03*
Y127672D02*
D03*
X385977Y119256D02*
D03*
Y125556D02*
D03*
X385583Y107051D02*
D03*
Y113351D02*
D03*
X393620Y81981D02*
D03*
Y88281D02*
D03*
X376528Y92878D02*
D03*
Y99178D02*
D03*
X353238Y30230D02*
D03*
Y23930D02*
D03*
X352970Y18117D02*
D03*
Y11817D02*
D03*
X347886Y30276D02*
D03*
Y23976D02*
D03*
X373772Y119256D02*
D03*
Y125556D02*
D03*
X379677Y113745D02*
D03*
Y107445D02*
D03*
X377816Y11271D02*
D03*
Y17571D02*
D03*
D77*
X324512Y121974D02*
D03*
Y129454D02*
D03*
X343823Y47784D02*
D03*
Y40304D02*
D03*
X351697Y47784D02*
D03*
Y40304D02*
D03*
X359571Y47784D02*
D03*
Y40304D02*
D03*
X382827Y99768D02*
D03*
Y92288D02*
D03*
X341842Y31143D02*
D03*
Y23663D02*
D03*
D95*
X70082Y316379D02*
D03*
X148822D02*
D03*
X89767Y237639D02*
D03*
X129137D02*
D03*
X46491Y356052D02*
D03*
X133105Y356052D02*
D03*
X22672Y136229D02*
D03*
Y116544D02*
D03*
X31924Y253690D02*
D03*
X12239D02*
D03*
X32711Y296603D02*
D03*
X13026D02*
D03*
X182191Y109074D02*
D03*
X168271Y95155D02*
D03*
D96*
X69635Y70255D02*
D03*
Y64744D02*
D03*
Y59232D02*
D03*
X64123D02*
D03*
Y64744D02*
D03*
Y70255D02*
D03*
X72391Y61988D02*
D03*
Y67500D02*
D03*
X66879D02*
D03*
Y61988D02*
D03*
X61367D02*
D03*
Y67500D02*
D03*
D97*
X350309Y150534D02*
D03*
X364482D02*
D03*
Y136361D02*
D03*
D98*
X22869Y355658D02*
D03*
Y335658D02*
D03*
X232869Y353690D02*
D03*
X212869D02*
D03*
X291924D02*
D03*
X271924D02*
D03*
D99*
X299687Y46806D02*
D03*
Y40900D02*
D03*
Y34995D02*
D03*
Y29089D02*
D03*
Y23184D02*
D03*
Y17278D02*
D03*
X327681Y47784D02*
D03*
Y41879D02*
D03*
Y35973D02*
D03*
Y30068D02*
D03*
Y24162D02*
D03*
Y18257D02*
D03*
D100*
X100544Y9930D02*
D03*
X112355D02*
D03*
D101*
X195972Y264776D02*
D03*
Y304894D02*
D03*
X225972Y324776D02*
D03*
Y264776D02*
D03*
X195972Y334776D02*
D03*
X267318Y267509D02*
D03*
Y307627D02*
D03*
X297318Y327508D02*
D03*
Y267509D02*
D03*
X267318Y337509D02*
D03*
X12042Y184201D02*
D03*
X159286Y12745D02*
D03*
D102*
X29759Y184201D02*
D03*
X178184Y43060D02*
D03*
D103*
X42357Y165304D02*
D03*
X159286Y30461D02*
D03*
D104*
X54562Y188532D02*
D03*
D105*
X154955Y55264D02*
D03*
D106*
X56005Y10327D02*
D03*
X75020Y29260D02*
D03*
X341048Y38425D02*
D03*
X347010Y38215D02*
D03*
X341087Y10532D02*
D03*
X275428Y172981D02*
D03*
X179534Y129884D02*
D03*
X226205Y130480D02*
D03*
X235341Y139020D02*
D03*
X220049Y180130D02*
D03*
X225411Y177747D02*
D03*
X182911Y197011D02*
D03*
X245867Y213694D02*
D03*
X176357Y205551D02*
D03*
X157490Y134452D02*
D03*
X174768Y170002D02*
D03*
X173775Y166030D02*
D03*
X168810Y170002D02*
D03*
X193039Y203764D02*
D03*
X147361Y184301D02*
D03*
X252222Y155107D02*
D03*
X287970Y131473D02*
D03*
X258982Y125666D02*
D03*
X301413Y120866D02*
D03*
X46472Y111017D02*
D03*
X260365Y241100D02*
D03*
X260166Y258379D02*
D03*
X81227Y153319D02*
D03*
X44089Y156298D02*
D03*
X97513Y153518D02*
D03*
X98903Y176158D02*
D03*
X97115Y193635D02*
D03*
X199990Y169009D02*
D03*
X147163Y91952D02*
D03*
X285785Y32173D02*
D03*
X256988Y38926D02*
D03*
X285984Y68914D02*
D03*
X284792Y82022D02*
D03*
X266521Y83611D02*
D03*
X208729Y116975D02*
D03*
X241498Y150539D02*
D03*
X241895Y162058D02*
D03*
X297304Y208927D02*
D03*
X296708Y224617D02*
D03*
X281019Y178144D02*
D03*
X193238Y226007D02*
D03*
X181398Y225217D02*
D03*
X267713Y232759D02*
D03*
X259372D02*
D03*
X249044Y266720D02*
D03*
X167817Y166030D02*
D03*
X174768Y173974D02*
D03*
X215323Y141193D02*
D03*
X212677Y47575D02*
D03*
X213937Y27161D02*
D03*
X36386Y23378D02*
D03*
Y18772D02*
D03*
Y14441D02*
D03*
Y10268D02*
D03*
X70631Y116380D02*
D03*
X229979Y141205D02*
D03*
X52430Y13902D02*
D03*
X49451Y9334D02*
D03*
X273075Y243484D02*
D03*
X298099Y158880D02*
D03*
Y155901D02*
D03*
D107*
X81724Y133535D02*
D03*
X86516Y133476D02*
D03*
X91598Y133181D02*
D03*
X96803Y132705D02*
D03*
X203168Y200983D02*
D03*
X258577Y94931D02*
D03*
X255995Y101087D02*
D03*
X211906Y205352D02*
D03*
X277841Y131275D02*
D03*
X71695Y165632D02*
D03*
X258974Y81029D02*
D03*
X198799Y75567D02*
D03*
X280750Y186813D02*
D03*
X291346Y146368D02*
D03*
X198799Y71496D02*
D03*
X224418Y107045D02*
D03*
X258577Y87583D02*
D03*
X289360Y51835D02*
D03*
X280225D02*
D03*
X273075Y52232D02*
D03*
X225014Y110620D02*
D03*
X230575Y42699D02*
D03*
X139370Y112598D02*
D03*
X133071Y115748D02*
D03*
Y109842D02*
D03*
D108*
X335232Y84080D02*
D03*
X283005Y105854D02*
D03*
X244278Y178144D02*
D03*
X272479Y98506D02*
D03*
X284197Y93739D02*
D03*
D210*
X372804Y30074D02*
D03*
X361386D02*
D03*
D211*
X393851Y114138D02*
D03*
Y125556D02*
D03*
X393858Y106911D02*
D03*
Y95494D02*
D03*
D212*
X361683Y10937D02*
D03*
Y14677D02*
D03*
Y18417D02*
D03*
X371919D02*
D03*
Y10937D02*
D03*
D213*
X361803Y125595D02*
D03*
Y120595D02*
D03*
Y115595D02*
D03*
Y110595D02*
D03*
Y105595D02*
D03*
Y100595D02*
D03*
Y95595D02*
D03*
X340859D02*
D03*
Y100595D02*
D03*
Y105595D02*
D03*
Y110595D02*
D03*
Y115595D02*
D03*
Y120595D02*
D03*
Y125595D02*
D03*
M02*
