G04*
G04 #@! TF.GenerationSoftware,Altium Limited,Altium Designer,20.0.10 (225)*
G04*
G04 Layer_Color=65535*
%FSLAX25Y25*%
%MOIN*%
G70*
G01*
G75*
%ADD10C,0.00787*%
%ADD11C,0.01575*%
%ADD12C,0.01000*%
%ADD13C,0.00014*%
%ADD14C,0.00032*%
%ADD15C,0.01181*%
%ADD16C,0.00394*%
%ADD17C,0.00610*%
%ADD18C,0.00591*%
%ADD19R,0.01575X0.03937*%
%ADD20R,0.03937X0.01575*%
G04:AMPARAMS|DCode=21|XSize=15.75mil|YSize=39.37mil|CornerRadius=0mil|HoleSize=0mil|Usage=FLASHONLY|Rotation=110.000|XOffset=0mil|YOffset=0mil|HoleType=Round|Shape=Rectangle|*
%AMROTATEDRECTD21*
4,1,4,0.02119,-0.00067,-0.01581,-0.01413,-0.02119,0.00067,0.01581,0.01413,0.02119,-0.00067,0.0*
%
%ADD21ROTATEDRECTD21*%

%ADD22R,0.02756X0.13386*%
G36*
X359300Y103745D02*
X359123Y103745D01*
X356918Y101540D01*
X356918Y105477D01*
X359300Y103745D01*
D02*
G37*
D10*
X375619Y143520D02*
G03*
X375619Y143520I-18110J0D01*
G01*
X40192Y126387D02*
G03*
X40192Y126387I-17520J0D01*
G01*
X220507Y43453D02*
G03*
X220507Y43453I-394J0D01*
G01*
X42160Y253690D02*
G03*
X42160Y253690I-20079J0D01*
G01*
X42948Y296603D02*
G03*
X42948Y296603I-20079J0D01*
G01*
X195310Y102115D02*
G03*
X195310Y102115I-20079J0D01*
G01*
X302163Y170253D02*
X310630Y170276D01*
X302163Y170253D02*
X302362Y124409D01*
X310630D01*
X400984Y52362D02*
X401181Y7283D01*
X394291Y52362D02*
X400984D01*
X394291D02*
X394685Y7283D01*
X401181D01*
X45673Y222678D02*
Y331733D01*
X174019Y222678D02*
Y331733D01*
X45673D02*
X174019D01*
X45673Y222678D02*
X174019D01*
X264765Y229254D02*
Y232797D01*
X312009D01*
Y180435D02*
Y232797D01*
X264765Y180435D02*
X312009D01*
X264765D02*
Y184372D01*
X94522Y150540D02*
Y159989D01*
Y150540D02*
X116176D01*
X122081Y156446D01*
X94522Y168650D02*
Y178099D01*
X116176D01*
X122081Y172194D01*
X121688Y152115D02*
X123656D01*
X122869Y151327D02*
Y153296D01*
X31924Y322036D02*
Y368886D01*
X6334Y322036D02*
X31924D01*
X6334D02*
Y368886D01*
X31924D01*
X199247Y344635D02*
X246097D01*
X199247D02*
Y370225D01*
X246097D01*
Y344635D02*
Y370225D01*
X258302Y344635D02*
X305152D01*
X258302D02*
Y370225D01*
X305152D01*
Y344635D02*
Y370225D01*
X194916Y7233D02*
Y21406D01*
X233499D01*
Y146D02*
Y21406D01*
X194916Y146D02*
X233499D01*
X194916D02*
Y7233D01*
X293782Y53302D02*
X305593D01*
X293782Y11176D02*
Y53302D01*
Y11176D02*
X308349D01*
Y53302D01*
X305593D02*
X308349D01*
X14798Y114576D02*
Y118513D01*
X12830Y116544D02*
X16767D01*
X90780Y7725D02*
Y12450D01*
X90898D01*
X121686Y7883D02*
Y12213D01*
X121646D02*
X121686D01*
X122119Y16190D02*
Y20324D01*
X90977D02*
X122119D01*
X90977Y15993D02*
Y20324D01*
X90898Y15993D02*
X90977D01*
X101846Y206871D02*
X104996D01*
X101846D02*
X103421D01*
Y209627D01*
Y204902D02*
Y209627D01*
X103027Y184430D02*
Y188367D01*
X100665Y180099D02*
X128224D01*
Y213170D01*
X100665D02*
X128224D01*
X100665Y180099D02*
Y213170D01*
X146885Y162351D02*
Y181642D01*
Y162351D02*
X172475D01*
Y181642D01*
X146885D02*
X172475D01*
X262239Y143847D02*
Y167469D01*
X238617Y143847D02*
X262239D01*
X238617D02*
Y163532D01*
X242554Y167469D01*
X262239D01*
X218538Y260776D02*
X224444D01*
X218538Y256052D02*
X224444D01*
X282632Y255818D02*
X288538D01*
X282632Y260542D02*
X288538D01*
X226412Y33217D02*
Y39123D01*
X221688Y33217D02*
Y39123D01*
X166448Y132494D02*
Y138400D01*
X171172Y132494D02*
Y138400D01*
X71313Y196211D02*
X73333Y190662D01*
X75752Y197827D02*
X77772Y192278D01*
X191248Y260051D02*
Y260248D01*
Y260051D02*
Y260445D01*
Y260051D02*
X230618D01*
X191248Y260445D02*
Y339539D01*
X230618Y260051D02*
Y331705D01*
X222783Y339539D02*
X230618Y331705D01*
X191248Y339539D02*
X222783D01*
X262593Y262784D02*
Y262981D01*
Y262784D02*
Y263178D01*
Y262784D02*
X301963D01*
X262593Y263178D02*
Y342272D01*
X301963Y262784D02*
Y334438D01*
X294129Y342272D02*
X301963Y334438D01*
X262593Y342272D02*
X294129D01*
X39601Y153886D02*
X68341D01*
Y173965D01*
X68735Y188926D02*
Y216091D01*
X39995D02*
X68735D01*
X189601Y40304D02*
Y69044D01*
X169522D02*
X189601D01*
X127397Y69438D02*
X154562D01*
X127397Y40698D02*
Y69438D01*
X78740Y107086D02*
Y109055D01*
Y107086D02*
X100787D01*
Y108661D01*
Y118897D02*
Y121653D01*
X78740Y118897D02*
Y121653D01*
X100787D01*
X310752Y3690D02*
Y373768D01*
D11*
X235467Y171406D02*
G03*
X235467Y171406I-787J0D01*
G01*
D12*
X132711Y126918D02*
G03*
X132711Y126918I-394J0D01*
G01*
X220507Y105264D02*
G03*
X220507Y105264I-394J0D01*
G01*
X267190Y117264D02*
G03*
X267190Y117264I-394J0D01*
G01*
X397229Y10317D02*
X396672Y9759D01*
Y8644D01*
X397229Y8087D01*
X397787D01*
X398344Y8644D01*
Y9759D01*
X398902Y10317D01*
X399460D01*
X400017Y9759D01*
Y8644D01*
X399460Y8087D01*
X396672Y13662D02*
Y11432D01*
X400017D01*
Y13662D01*
X398344Y11432D02*
Y12547D01*
X397229Y17008D02*
X396672Y16450D01*
Y15335D01*
X397229Y14777D01*
X399460D01*
X400017Y15335D01*
Y16450D01*
X399460Y17008D01*
X396672Y18123D02*
X399460D01*
X400017Y18680D01*
Y19795D01*
X399460Y20353D01*
X396672D01*
X400017Y21468D02*
X396672D01*
Y23141D01*
X397229Y23698D01*
X398344D01*
X398902Y23141D01*
Y21468D01*
Y22583D02*
X400017Y23698D01*
X396672Y24814D02*
Y25929D01*
Y25371D01*
X400017D01*
Y24814D01*
Y25929D01*
X396672Y27601D02*
Y29832D01*
Y28716D01*
X400017D01*
X396672Y30947D02*
Y32062D01*
Y31504D01*
X400017D01*
Y30947D01*
Y32062D01*
X396672Y33735D02*
X397229D01*
X398344Y34850D01*
X397229Y35965D01*
X396672D01*
X398344Y34850D02*
X400017D01*
X400575Y37080D02*
Y39310D01*
X396672Y40425D02*
X400017D01*
Y42098D01*
X399460Y42656D01*
X397229D01*
X396672Y42098D01*
Y40425D01*
Y46001D02*
Y43771D01*
X400017D01*
Y46001D01*
X398344Y43771D02*
Y44886D01*
X396672Y47116D02*
Y49346D01*
Y48231D01*
X400017D01*
Y50461D02*
X399460D01*
Y51019D01*
X400017D01*
Y50461D01*
X305300Y127443D02*
X304743Y126885D01*
Y125770D01*
X305300Y125213D01*
X305858D01*
X306415Y125770D01*
Y126885D01*
X306973Y127443D01*
X307530D01*
X308088Y126885D01*
Y125770D01*
X307530Y125213D01*
X304743Y130788D02*
Y128558D01*
X308088D01*
Y130788D01*
X306415Y128558D02*
Y129673D01*
X305300Y134134D02*
X304743Y133576D01*
Y132461D01*
X305300Y131903D01*
X307530D01*
X308088Y132461D01*
Y133576D01*
X307530Y134134D01*
X304743Y135249D02*
X307530D01*
X308088Y135806D01*
Y136921D01*
X307530Y137479D01*
X304743D01*
X308088Y138594D02*
X304743D01*
Y140267D01*
X305300Y140824D01*
X306415D01*
X306973Y140267D01*
Y138594D01*
Y139709D02*
X308088Y140824D01*
X304743Y141939D02*
Y143055D01*
Y142497D01*
X308088D01*
Y141939D01*
Y143055D01*
X304743Y144727D02*
Y146958D01*
Y145843D01*
X308088D01*
X304743Y148073D02*
Y149188D01*
Y148630D01*
X308088D01*
Y148073D01*
Y149188D01*
X304743Y150861D02*
X305300D01*
X306415Y151976D01*
X305300Y153091D01*
X304743D01*
X306415Y151976D02*
X308088D01*
X308646Y154206D02*
Y156436D01*
X304743Y157551D02*
X308088D01*
Y159224D01*
X307530Y159782D01*
X305300D01*
X304743Y159224D01*
Y157551D01*
Y163127D02*
Y160897D01*
X308088D01*
Y163127D01*
X306415Y160897D02*
Y162012D01*
X304743Y164242D02*
Y166472D01*
Y165357D01*
X308088D01*
Y167587D02*
X307530D01*
Y168145D01*
X308088D01*
Y167587D01*
X303647Y62676D02*
X302648Y61676D01*
Y59677D01*
X303647Y58677D01*
X304647D01*
X305647Y59677D01*
Y61676D01*
X306646Y62676D01*
X307646D01*
X308646Y61676D01*
Y59677D01*
X307646Y58677D01*
X302648Y68674D02*
Y64675D01*
X308646D01*
Y68674D01*
X305647Y64675D02*
Y66675D01*
X308646Y70673D02*
X302648D01*
X308646Y74672D01*
X302648D01*
X303647Y80670D02*
X302648Y79670D01*
Y77671D01*
X303647Y76671D01*
X304647D01*
X305647Y77671D01*
Y79670D01*
X306646Y80670D01*
X307646D01*
X308646Y79670D01*
Y77671D01*
X307646Y76671D01*
X302648Y85668D02*
Y83669D01*
X303647Y82669D01*
X307646D01*
X308646Y83669D01*
Y85668D01*
X307646Y86668D01*
X303647D01*
X302648Y85668D01*
X308646Y88668D02*
X302648D01*
Y91667D01*
X303647Y92666D01*
X305647D01*
X306646Y91667D01*
Y88668D01*
Y90667D02*
X308646Y92666D01*
X284661Y172653D02*
Y178652D01*
X287660D01*
X288660Y177652D01*
Y175653D01*
X287660Y174653D01*
X284661D01*
X290659Y172653D02*
Y178652D01*
X293658D01*
X294658Y177652D01*
Y175653D01*
X293658Y174653D01*
X290659D01*
X292659D02*
X294658Y172653D01*
X299657Y178652D02*
X297657D01*
X296657Y177652D01*
Y173653D01*
X297657Y172653D01*
X299657D01*
X300656Y173653D01*
Y177652D01*
X299657Y178652D01*
X306654Y177652D02*
X305655Y178652D01*
X303655D01*
X302656Y177652D01*
Y173653D01*
X303655Y172653D01*
X305655D01*
X306654Y173653D01*
Y175653D01*
X304655D01*
X308654Y172653D02*
Y173653D01*
X309653D01*
Y172653D01*
X308654D01*
X34071Y364583D02*
Y368581D01*
X36070Y370581D01*
X38070Y368581D01*
Y364583D01*
Y367582D01*
X34071D01*
X44068Y369581D02*
X43068Y370581D01*
X41069D01*
X40069Y369581D01*
Y365582D01*
X41069Y364583D01*
X43068D01*
X44068Y365582D01*
X135904Y67431D02*
X131905D01*
Y64432D01*
X133905Y65432D01*
X134905D01*
X135904Y64432D01*
Y62433D01*
X134905Y61433D01*
X132905D01*
X131905Y62433D01*
X137904Y67431D02*
Y63432D01*
X139903Y61433D01*
X141902Y63432D01*
Y67431D01*
X48047Y208283D02*
X50047D01*
X49047D01*
Y214282D01*
X48047Y213282D01*
X57044Y208283D02*
X53046D01*
X57044Y212282D01*
Y213282D01*
X56045Y214282D01*
X54045D01*
X53046Y213282D01*
X59044Y214282D02*
Y210283D01*
X61043Y208283D01*
X63042Y210283D01*
Y214282D01*
X153759Y221315D02*
X152447D01*
X151791Y220659D01*
Y218035D01*
X152447Y217379D01*
X153759D01*
X154415Y218035D01*
Y220659D01*
X153759Y221315D01*
X155727D02*
Y218035D01*
X156383Y217379D01*
X157695D01*
X158351Y218035D01*
Y221315D01*
X159662D02*
X162286D01*
X160974D01*
Y217379D01*
X163598D02*
Y221315D01*
X165566D01*
X166222Y220659D01*
Y219347D01*
X165566Y218691D01*
X163598D01*
X167534Y221315D02*
Y218035D01*
X168190Y217379D01*
X169502D01*
X170158Y218035D01*
Y221315D01*
X171470D02*
X174093D01*
X172782D01*
Y217379D01*
X63964Y333097D02*
X62652D01*
X63308D01*
Y337033D01*
X63964D01*
X62652D01*
X60685D02*
Y333097D01*
X58061Y337033D01*
Y333097D01*
X56749Y337033D02*
Y333097D01*
X54781D01*
X54125Y333753D01*
Y335065D01*
X54781Y335721D01*
X56749D01*
X52813Y333097D02*
Y336377D01*
X52157Y337033D01*
X50845D01*
X50189Y336377D01*
Y333097D01*
X48877D02*
X46254D01*
X47565D01*
Y337033D01*
X308924Y55483D02*
Y56532D01*
Y56007D01*
X305775D01*
X306300Y55483D01*
D13*
X12273Y18475D02*
Y19161D01*
Y19175D02*
Y19231D01*
X12287Y18181D02*
Y19498D01*
Y19512D02*
Y19526D01*
X12301Y17985D02*
Y17999D01*
Y18012D02*
Y19708D01*
X12315Y17816D02*
Y19890D01*
X12329Y17704D02*
Y20016D01*
X12343Y17564D02*
Y20142D01*
X12357Y17452D02*
Y20254D01*
X12371Y17340D02*
Y20366D01*
X12385Y17242D02*
Y20464D01*
X12399Y17158D02*
Y20548D01*
X12413Y17074D02*
Y20632D01*
X12427Y16990D02*
Y20717D01*
X12441Y16906D02*
Y20801D01*
X12455Y16836D02*
Y20871D01*
X12469Y16752D02*
Y20955D01*
X12483Y16681D02*
Y21011D01*
X12497Y16611D02*
Y21095D01*
X12511Y16555D02*
Y21151D01*
X12525Y16485D02*
Y21221D01*
X12539Y16429D02*
Y21277D01*
X12553Y16359D02*
Y21347D01*
X12567Y16303D02*
Y21403D01*
X12581Y16247D02*
Y21459D01*
X12595Y16191D02*
Y21515D01*
X12609Y16135D02*
Y21571D01*
X12623Y16079D02*
Y21627D01*
X12637Y16023D02*
Y21683D01*
X12651Y15981D02*
Y21725D01*
X12665Y15925D02*
Y21781D01*
X12679Y15869D02*
Y21837D01*
X12693Y15827D02*
Y21879D01*
X12707Y15785D02*
Y21921D01*
X12721Y15729D02*
Y21977D01*
X12735Y15687D02*
Y22019D01*
X12749Y15645D02*
Y22061D01*
X12763Y15589D02*
Y22118D01*
X12777Y15547D02*
Y22160D01*
X12791Y15505D02*
Y22202D01*
X12805Y15463D02*
Y22244D01*
X12819Y15421D02*
Y22286D01*
X12833Y15379D02*
Y22328D01*
X12847Y15337D02*
Y22370D01*
X12861Y15294D02*
Y22412D01*
X12875Y15252D02*
Y22454D01*
X12889Y15210D02*
Y22496D01*
X12903Y15168D02*
Y22538D01*
X12917Y15140D02*
Y22566D01*
X12931Y15098D02*
Y22608D01*
X12945Y15056D02*
Y22650D01*
X12959Y15014D02*
Y22692D01*
X12973Y14986D02*
Y22720D01*
X12987Y14944D02*
Y22762D01*
X13001Y14916D02*
Y22790D01*
X13015Y14874D02*
Y22832D01*
X13029Y14832D02*
Y22874D01*
X13043Y14804D02*
Y22902D01*
X13057Y14776D02*
Y22944D01*
X13071Y14734D02*
Y22972D01*
X13085Y14706D02*
Y23014D01*
X13099Y14664D02*
Y23042D01*
X13113Y14636D02*
Y23070D01*
X13127Y14594D02*
Y23112D01*
X13141Y14566D02*
Y23140D01*
X13155Y14538D02*
Y23168D01*
X13169Y14496D02*
Y23210D01*
X13183Y14468D02*
Y23238D01*
X13197Y14440D02*
Y23266D01*
X13211Y14398D02*
Y23308D01*
X13226Y14370D02*
Y23336D01*
X13239Y14342D02*
Y23365D01*
X13253Y14314D02*
Y23392D01*
X13268Y14286D02*
Y23420D01*
X13282Y14244D02*
Y23449D01*
X13295Y14216D02*
Y23491D01*
X13309Y14188D02*
Y23519D01*
X13323Y14160D02*
Y23547D01*
X13338Y14132D02*
Y23575D01*
X13352Y14104D02*
Y23603D01*
X13366Y14076D02*
Y23631D01*
X13380Y14048D02*
Y23659D01*
X13394Y14019D02*
Y23687D01*
X13408Y13992D02*
Y23715D01*
X13422Y13963D02*
Y23743D01*
X13436Y13936D02*
Y23771D01*
X13450Y13907D02*
Y23799D01*
X13464Y13879D02*
Y23827D01*
X13478Y13851D02*
Y23855D01*
X13492Y13823D02*
Y23883D01*
X13506Y13795D02*
Y23911D01*
X13520Y13767D02*
Y23939D01*
X13534Y13739D02*
Y23967D01*
X13548Y13711D02*
Y23995D01*
X13562Y13683D02*
Y24023D01*
X13576Y13669D02*
Y18671D01*
Y19035D02*
Y19077D01*
Y19091D02*
Y24037D01*
X13590Y13641D02*
Y18293D01*
Y19413D02*
Y24065D01*
X13604Y13613D02*
Y18097D01*
Y19610D02*
Y24093D01*
X13618Y13585D02*
Y17928D01*
Y19778D02*
Y24121D01*
X13632Y13557D02*
Y17774D01*
Y19918D02*
Y24149D01*
X13646Y13543D02*
Y17676D01*
Y20030D02*
Y24163D01*
X13660Y13515D02*
Y17564D01*
Y20156D02*
Y24191D01*
X13674Y13487D02*
Y17466D01*
Y20240D02*
Y24219D01*
X13688Y13459D02*
Y17368D01*
Y20338D02*
Y24247D01*
X13702Y13431D02*
Y17284D01*
Y20422D02*
Y24261D01*
X13716Y13417D02*
Y17200D01*
Y20506D02*
Y24289D01*
X13730Y13389D02*
Y17116D01*
Y20590D02*
Y24317D01*
X13744Y13361D02*
Y17046D01*
Y20661D02*
Y24345D01*
X13758Y13347D02*
Y16976D01*
Y20730D02*
Y24359D01*
X13772Y13319D02*
Y16906D01*
Y20801D02*
Y24387D01*
X13786Y13291D02*
Y16836D01*
Y20871D02*
Y24415D01*
X13800Y13263D02*
Y16780D01*
Y20927D02*
Y24443D01*
X13814Y13249D02*
Y16710D01*
Y20997D02*
Y24457D01*
X13828Y13221D02*
Y16654D01*
Y21053D02*
Y24485D01*
X13842Y13193D02*
Y16597D01*
Y21109D02*
Y24513D01*
X13856Y13179D02*
Y16527D01*
Y21179D02*
Y24527D01*
X13870Y13151D02*
Y16471D01*
Y21235D02*
Y24555D01*
X13884Y13137D02*
Y16429D01*
Y21291D02*
Y24569D01*
X13898Y13109D02*
Y16373D01*
Y21333D02*
Y24597D01*
X13912Y13081D02*
Y16317D01*
Y21389D02*
Y24625D01*
X13926Y13067D02*
Y16261D01*
Y21445D02*
Y24639D01*
X13940Y13039D02*
Y16219D01*
Y21487D02*
Y24667D01*
X13954Y13025D02*
Y16163D01*
Y21543D02*
Y24681D01*
X13968Y12997D02*
Y16121D01*
Y21585D02*
Y24710D01*
X13982Y12983D02*
Y16079D01*
Y21627D02*
Y24737D01*
X13996Y12955D02*
Y16023D01*
Y21683D02*
Y24751D01*
X14010Y12927D02*
Y15981D01*
Y21725D02*
Y24780D01*
X14024Y12913D02*
Y15939D01*
Y21767D02*
Y24793D01*
X14038Y12885D02*
Y15897D01*
Y21809D02*
Y24822D01*
X14052Y12871D02*
Y15855D01*
Y21851D02*
Y24836D01*
X14066Y12843D02*
Y15813D01*
Y21893D02*
Y24864D01*
X14080Y12829D02*
Y15771D01*
Y21935D02*
Y24878D01*
X14094Y12801D02*
Y15729D01*
Y21977D02*
Y24906D01*
X14108Y12787D02*
Y15687D01*
Y22019D02*
Y24920D01*
X14122Y12759D02*
Y15645D01*
Y22061D02*
Y24948D01*
X14136Y12745D02*
Y15603D01*
Y22104D02*
Y24962D01*
X14150Y12717D02*
Y15561D01*
Y22146D02*
Y24990D01*
X14164Y12702D02*
Y15533D01*
Y22174D02*
Y25004D01*
X14178Y12675D02*
Y15491D01*
Y22216D02*
Y25032D01*
X14192Y12661D02*
Y15449D01*
Y22258D02*
Y25046D01*
X14206Y12632D02*
Y15421D01*
Y22286D02*
Y25074D01*
X14220Y12618D02*
Y15379D01*
Y22328D02*
Y25088D01*
X14234Y12605D02*
Y15350D01*
Y22356D02*
Y25102D01*
X14248Y12576D02*
Y15308D01*
Y22398D02*
Y25130D01*
X14262Y12562D02*
Y15267D01*
Y22426D02*
Y25144D01*
X14276Y12534D02*
Y15238D01*
Y22468D02*
Y25172D01*
X14290Y12520D02*
Y15210D01*
Y22510D02*
Y25186D01*
X14304Y12506D02*
Y15168D01*
Y22538D02*
Y25200D01*
X14318Y12478D02*
Y15140D01*
Y22566D02*
Y25228D01*
X14332Y12464D02*
Y15098D01*
Y22608D02*
Y25242D01*
X14346Y12450D02*
Y15070D01*
Y22636D02*
Y25270D01*
X14360Y12422D02*
Y15042D01*
Y22664D02*
Y25284D01*
X14374Y12408D02*
Y15000D01*
Y22706D02*
Y25298D01*
X14388Y12380D02*
Y14972D01*
Y22734D02*
Y25326D01*
X14402Y12366D02*
Y14944D01*
Y22762D02*
Y25340D01*
X14416Y12352D02*
Y14916D01*
Y22790D02*
Y25354D01*
X14430Y12324D02*
Y14874D01*
Y22832D02*
Y25382D01*
X14444Y12310D02*
Y14846D01*
Y22860D02*
Y25396D01*
X14458Y12296D02*
Y14818D01*
Y22888D02*
Y25410D01*
X14472Y12268D02*
Y14790D01*
Y22916D02*
Y25438D01*
X14486Y12254D02*
Y14762D01*
Y22944D02*
Y25452D01*
X14500Y12240D02*
Y14720D01*
Y22986D02*
Y25466D01*
X14514Y12212D02*
Y14692D01*
Y23000D02*
Y25494D01*
X14528Y12198D02*
Y14678D01*
Y23028D02*
Y25508D01*
X14542Y12184D02*
Y14636D01*
Y23070D02*
Y25522D01*
X14557Y12156D02*
Y14608D01*
Y23098D02*
Y25550D01*
X14570Y12142D02*
Y14580D01*
Y23126D02*
Y25564D01*
X14584Y12128D02*
Y14552D01*
Y23154D02*
Y25578D01*
X14599Y12114D02*
Y14524D01*
Y23182D02*
Y25592D01*
X14613Y12086D02*
Y14496D01*
Y23210D02*
Y25620D01*
X14627Y12072D02*
Y14468D01*
Y23224D02*
Y25634D01*
X14640Y12058D02*
Y14454D01*
Y23252D02*
Y25648D01*
X14654Y12044D02*
Y14426D01*
Y23280D02*
Y25662D01*
X14669Y12016D02*
Y14398D01*
Y23308D02*
Y25690D01*
X14683Y12002D02*
Y14370D01*
Y23336D02*
Y25704D01*
X14697Y11988D02*
Y14342D01*
Y23365D02*
Y25718D01*
X14711Y11974D02*
Y14314D01*
Y23392D02*
Y25732D01*
X14725Y11946D02*
Y14286D01*
Y23420D02*
Y25760D01*
X14739Y11932D02*
Y14258D01*
Y23449D02*
Y25774D01*
X14753Y11918D02*
Y14244D01*
Y23462D02*
Y25788D01*
X14767Y11904D02*
Y14216D01*
Y23491D02*
Y25802D01*
X14781Y11890D02*
Y14188D01*
Y23519D02*
Y25816D01*
X14795Y11862D02*
Y14160D01*
Y23547D02*
Y25844D01*
X14809Y11848D02*
Y14132D01*
Y23575D02*
Y25858D01*
X14823Y11834D02*
Y14104D01*
Y23589D02*
Y25872D01*
X14837Y11820D02*
Y14090D01*
Y23617D02*
Y25886D01*
X14851Y11806D02*
Y14062D01*
Y23645D02*
Y25900D01*
X14865Y11778D02*
Y14033D01*
Y23673D02*
Y25928D01*
X14879Y11764D02*
Y14019D01*
Y23687D02*
Y25942D01*
X14893Y11750D02*
Y13992D01*
Y23715D02*
Y25956D01*
X14907Y11736D02*
Y13963D01*
Y23743D02*
Y25970D01*
X14921Y11722D02*
Y13950D01*
Y23757D02*
Y25984D01*
X14935Y11708D02*
Y13922D01*
Y23785D02*
Y25998D01*
X14949Y11694D02*
Y13893D01*
Y23813D02*
Y26012D01*
X14963Y11666D02*
Y13879D01*
Y23827D02*
Y26040D01*
X14977Y11652D02*
Y13851D01*
Y23855D02*
Y26054D01*
X14991Y11638D02*
Y13823D01*
Y23883D02*
Y26068D01*
X15005Y11624D02*
Y13809D01*
Y23897D02*
Y26083D01*
X15019Y11610D02*
Y13781D01*
Y23925D02*
Y26096D01*
X15033Y11596D02*
Y13753D01*
Y23953D02*
Y26111D01*
X15047Y11582D02*
Y13739D01*
Y23967D02*
Y26125D01*
X15061Y11554D02*
Y13711D01*
Y23995D02*
Y26138D01*
X15075Y11540D02*
Y13697D01*
Y24009D02*
Y26166D01*
X15089Y11526D02*
Y13669D01*
Y24037D02*
Y26181D01*
X15103Y11512D02*
Y13655D01*
Y24051D02*
Y26195D01*
X15117Y11498D02*
Y13627D01*
Y24079D02*
Y26209D01*
X15131Y11484D02*
Y13599D01*
Y24107D02*
Y26223D01*
X15145Y11470D02*
Y13585D01*
Y24121D02*
Y26237D01*
X15159Y11456D02*
Y13557D01*
Y24149D02*
Y26251D01*
X15173Y11442D02*
Y13543D01*
Y24163D02*
Y26265D01*
X15187Y11428D02*
Y13515D01*
Y24191D02*
Y26279D01*
X15201Y11414D02*
Y13501D01*
Y24205D02*
Y26293D01*
X15215Y11400D02*
Y13473D01*
Y24233D02*
Y26307D01*
X15229Y11372D02*
Y13459D01*
Y24247D02*
Y26335D01*
X15243Y11358D02*
Y13445D01*
Y24261D02*
Y26349D01*
X15257Y11344D02*
Y13417D01*
Y24289D02*
Y26363D01*
X15271Y11329D02*
Y13403D01*
Y24303D02*
Y26377D01*
X15285Y11315D02*
Y13375D01*
Y24331D02*
Y26391D01*
X15299Y11302D02*
Y13361D01*
Y18461D02*
Y18503D01*
Y18531D02*
Y19245D01*
Y24345D02*
Y26405D01*
X15313Y11287D02*
Y13333D01*
Y18237D02*
Y19470D01*
Y24373D02*
Y26419D01*
X15327Y11274D02*
Y13319D01*
Y18083D02*
Y18097D01*
Y18111D02*
Y19624D01*
Y24387D02*
Y26433D01*
X15341Y11259D02*
Y13291D01*
Y17956D02*
Y19750D01*
Y24415D02*
Y26447D01*
X15355Y11246D02*
Y13277D01*
Y17844D02*
Y19876D01*
Y24429D02*
Y26461D01*
X15369Y11231D02*
Y13263D01*
Y17732D02*
Y19974D01*
Y24443D02*
Y26475D01*
X15383Y11217D02*
Y13235D01*
Y17634D02*
Y20072D01*
Y24471D02*
Y26489D01*
X15397Y11203D02*
Y13221D01*
Y17550D02*
Y20156D01*
Y24485D02*
Y26503D01*
X15411Y11189D02*
Y13207D01*
Y17466D02*
Y20226D01*
Y24513D02*
Y26517D01*
X15425Y11175D02*
Y13179D01*
Y17396D02*
Y20310D01*
Y24527D02*
Y26531D01*
X15439Y11161D02*
Y13165D01*
Y17326D02*
Y20380D01*
Y24541D02*
Y26545D01*
X15453Y11147D02*
Y13137D01*
Y17256D02*
Y20450D01*
Y24569D02*
Y26559D01*
X15467Y11133D02*
Y13123D01*
Y17186D02*
Y20520D01*
Y24583D02*
Y26573D01*
X15481Y11147D02*
Y13109D01*
Y17116D02*
Y20590D01*
Y24597D02*
Y26559D01*
X15495Y11161D02*
Y13081D01*
Y17060D02*
Y20646D01*
Y24625D02*
Y26545D01*
X15509Y11175D02*
Y13067D01*
Y17004D02*
Y20703D01*
Y24639D02*
Y26531D01*
X15523Y11189D02*
Y13053D01*
Y16948D02*
Y20759D01*
Y24653D02*
Y26517D01*
X15537Y11203D02*
Y13025D01*
Y16892D02*
Y20815D01*
Y24681D02*
Y26503D01*
X15551Y11217D02*
Y13011D01*
Y16836D02*
Y20871D01*
Y24695D02*
Y26489D01*
X15565Y11231D02*
Y12997D01*
Y16780D02*
Y20927D01*
Y24710D02*
Y26475D01*
X15579Y11246D02*
Y12983D01*
Y16737D02*
Y20969D01*
Y24724D02*
Y26461D01*
X15593Y11259D02*
Y12955D01*
Y16681D02*
Y21025D01*
Y24751D02*
Y26447D01*
X15607Y11274D02*
Y12941D01*
Y16639D02*
Y21067D01*
Y24766D02*
Y26433D01*
X15621Y11287D02*
Y12927D01*
Y16583D02*
Y21123D01*
Y24780D02*
Y26419D01*
X15635Y11302D02*
Y12899D01*
Y16541D02*
Y21165D01*
Y24807D02*
Y26405D01*
X15649Y11315D02*
Y12885D01*
Y16499D02*
Y21207D01*
Y24822D02*
Y26391D01*
X15663Y11329D02*
Y12871D01*
Y16457D02*
Y21249D01*
Y24836D02*
Y26377D01*
X15677Y11344D02*
Y12857D01*
Y16401D02*
Y21305D01*
Y24850D02*
Y26363D01*
X15691Y11358D02*
Y12829D01*
Y16359D02*
Y21347D01*
Y24878D02*
Y26349D01*
X15705Y11372D02*
Y12815D01*
Y16317D02*
Y21389D01*
Y24892D02*
Y26335D01*
X15719Y11386D02*
Y12801D01*
Y16275D02*
Y21431D01*
Y24906D02*
Y26321D01*
X15733Y11400D02*
Y12787D01*
Y16247D02*
Y21459D01*
Y24920D02*
Y26307D01*
X15747Y11414D02*
Y12759D01*
Y16205D02*
Y21501D01*
Y24948D02*
Y26293D01*
X15761Y11428D02*
Y12745D01*
Y16163D02*
Y21543D01*
Y24962D02*
Y26279D01*
X15775Y11442D02*
Y12731D01*
Y16121D02*
Y21585D01*
Y24976D02*
Y26265D01*
X15789Y11456D02*
Y12717D01*
Y16079D02*
Y21613D01*
Y24990D02*
Y26251D01*
X15803Y11470D02*
Y12702D01*
Y16051D02*
Y21655D01*
Y25004D02*
Y26237D01*
X15817Y11484D02*
Y12675D01*
Y16009D02*
Y21697D01*
Y25032D02*
Y26223D01*
X15831Y11498D02*
Y12661D01*
Y15981D02*
Y21725D01*
Y25046D02*
Y26209D01*
X15845Y11512D02*
Y12646D01*
Y15939D02*
Y21767D01*
Y25060D02*
Y26195D01*
X15859Y11526D02*
Y12632D01*
Y15911D02*
Y21795D01*
Y25074D02*
Y26181D01*
X15873Y11540D02*
Y12618D01*
Y15869D02*
Y21837D01*
Y25088D02*
Y26166D01*
X15887Y11554D02*
Y12605D01*
Y15841D02*
Y21865D01*
Y25102D02*
Y26153D01*
X15901Y11568D02*
Y12576D01*
Y15799D02*
Y21907D01*
Y25130D02*
Y26138D01*
X15915Y11582D02*
Y12562D01*
Y15771D02*
Y21935D01*
Y25144D02*
Y26125D01*
X15929Y11596D02*
Y12548D01*
Y15729D02*
Y21977D01*
Y25158D02*
Y26111D01*
X15944Y11610D02*
Y12534D01*
Y15701D02*
Y22005D01*
Y25172D02*
Y26096D01*
X15958Y11624D02*
Y12520D01*
Y15673D02*
Y22034D01*
Y25186D02*
Y26083D01*
X15971Y11638D02*
Y12506D01*
Y15645D02*
Y22061D01*
Y25200D02*
Y26068D01*
X15985Y11652D02*
Y12492D01*
Y15603D02*
Y22104D01*
Y25214D02*
Y26054D01*
X16000Y11666D02*
Y12464D01*
Y15575D02*
Y22131D01*
Y25242D02*
Y26040D01*
X16014Y11680D02*
Y12450D01*
Y15547D02*
Y22160D01*
Y25256D02*
Y26026D01*
X16027Y11694D02*
Y12436D01*
Y15519D02*
Y22188D01*
Y25270D02*
Y26012D01*
X16042Y11708D02*
Y12422D01*
Y15491D02*
Y22216D01*
Y25284D02*
Y25998D01*
X16056Y11722D02*
Y12408D01*
Y15463D02*
Y22244D01*
Y25298D02*
Y25984D01*
X16070Y11736D02*
Y12394D01*
Y15421D02*
Y22286D01*
Y25312D02*
Y25970D01*
X16084Y11750D02*
Y12380D01*
Y15393D02*
Y22314D01*
Y25326D02*
Y25956D01*
X16098Y11764D02*
Y12366D01*
Y15364D02*
Y22342D01*
Y25340D02*
Y25942D01*
X16112Y11778D02*
Y12352D01*
Y15337D02*
Y22370D01*
Y25354D02*
Y25928D01*
X16126Y11792D02*
Y12338D01*
Y15308D02*
Y22398D01*
Y25368D02*
Y25914D01*
X16140Y11806D02*
Y12310D01*
Y15294D02*
Y22426D01*
Y25396D02*
Y25900D01*
X16154Y11820D02*
Y12296D01*
Y15267D02*
Y22454D01*
Y25410D02*
Y25886D01*
X16168Y11834D02*
Y12282D01*
Y15238D02*
Y22482D01*
Y25424D02*
Y25872D01*
X16182Y11848D02*
Y12268D01*
Y15210D02*
Y22496D01*
Y25438D02*
Y25858D01*
X16196Y11862D02*
Y12254D01*
Y15182D02*
Y22524D01*
Y25452D02*
Y25844D01*
X16210Y11876D02*
Y12240D01*
Y15154D02*
Y22552D01*
Y25466D02*
Y25830D01*
X16224Y11890D02*
Y12226D01*
Y15126D02*
Y22580D01*
Y25480D02*
Y25816D01*
X16238Y11904D02*
Y12212D01*
Y15098D02*
Y22608D01*
Y25494D02*
Y25802D01*
X16252Y11918D02*
Y12198D01*
Y15070D02*
Y22636D01*
Y25508D02*
Y25788D01*
X16266Y11932D02*
Y12184D01*
Y15042D02*
Y22664D01*
Y25522D02*
Y25774D01*
X16280Y11946D02*
Y12170D01*
Y15028D02*
Y22678D01*
Y25536D02*
Y25760D01*
X16294Y11960D02*
Y12156D01*
Y15000D02*
Y22706D01*
Y25550D02*
Y25746D01*
X16308Y11974D02*
Y12142D01*
Y14972D02*
Y22734D01*
Y25564D02*
Y25732D01*
X16322Y11988D02*
Y12128D01*
Y14944D02*
Y22762D01*
Y25578D02*
Y25718D01*
X16336Y12002D02*
Y12114D01*
Y14930D02*
Y22790D01*
Y25592D02*
Y25704D01*
X16350Y12016D02*
Y12100D01*
Y14902D02*
Y22804D01*
Y25606D02*
Y25690D01*
X16364Y12030D02*
Y12086D01*
Y14874D02*
Y22832D01*
Y25620D02*
Y25676D01*
X16378Y12044D02*
Y12072D01*
Y14846D02*
Y22860D01*
Y25634D02*
Y25662D01*
X16392Y14832D02*
Y22874D01*
X16406Y14804D02*
Y22902D01*
X16420Y14776D02*
Y22930D01*
X16434Y14762D02*
Y22944D01*
X16448Y14734D02*
Y22972D01*
X16462Y14706D02*
Y23000D01*
X16476Y14692D02*
Y23014D01*
X16490Y14664D02*
Y23042D01*
X16504Y14650D02*
Y23056D01*
X16518Y14622D02*
Y23084D01*
X16532Y14594D02*
Y23112D01*
X16546Y14580D02*
Y23126D01*
X16560Y14552D02*
Y23154D01*
X16574Y14538D02*
Y23168D01*
X16588Y14510D02*
Y23196D01*
X16602Y14496D02*
Y18587D01*
Y19119D02*
Y23210D01*
X16616Y14468D02*
Y18349D01*
Y19357D02*
Y23238D01*
X16630Y14454D02*
Y18195D01*
Y19526D02*
Y23252D01*
X16644Y14426D02*
Y18068D01*
Y19652D02*
Y23280D01*
X16658Y14412D02*
Y17956D01*
Y19750D02*
Y23294D01*
X16672Y14384D02*
Y17858D01*
Y19862D02*
Y23308D01*
X16686Y14370D02*
Y17774D01*
Y19946D02*
Y23336D01*
X16700Y14356D02*
Y17690D01*
Y20016D02*
Y23350D01*
X16714Y14328D02*
Y17606D01*
Y20100D02*
Y23379D01*
X16728Y14314D02*
Y17536D01*
Y20170D02*
Y23392D01*
X16742Y14286D02*
Y17466D01*
Y20240D02*
Y23420D01*
X16756Y14272D02*
Y17396D01*
Y20296D02*
Y23435D01*
X16770Y14244D02*
Y17340D01*
Y20366D02*
Y23449D01*
X16784Y14230D02*
Y17284D01*
Y20422D02*
Y23476D01*
X16798Y14216D02*
Y17228D01*
Y20478D02*
Y23491D01*
X16812Y14188D02*
Y17172D01*
Y20534D02*
Y23519D01*
X16826Y14174D02*
Y17130D01*
Y20576D02*
Y23533D01*
X16840Y14160D02*
Y17074D01*
Y20632D02*
Y23547D01*
X16854Y14132D02*
Y17018D01*
Y20688D02*
Y23575D01*
X16868Y14118D02*
Y16976D01*
Y20730D02*
Y23589D01*
X16882Y14104D02*
Y16934D01*
Y20773D02*
Y23603D01*
X16896Y14076D02*
Y16878D01*
Y20829D02*
Y23631D01*
X16910Y14062D02*
Y16836D01*
Y20871D02*
Y23645D01*
X16924Y14048D02*
Y16794D01*
Y20913D02*
Y23659D01*
X16938Y14019D02*
Y16752D01*
Y20955D02*
Y23687D01*
X16952Y14006D02*
Y16710D01*
Y20997D02*
Y23701D01*
X16966Y13992D02*
Y16668D01*
Y21039D02*
Y23715D01*
X16980Y13977D02*
Y16625D01*
Y21081D02*
Y23729D01*
X16994Y13950D02*
Y16597D01*
Y21109D02*
Y23757D01*
X17008Y13936D02*
Y16555D01*
Y21151D02*
Y23771D01*
X17022Y13922D02*
Y16513D01*
Y21193D02*
Y23785D01*
X17036Y13907D02*
Y16485D01*
Y21221D02*
Y23799D01*
X17050Y13879D02*
Y16443D01*
Y21263D02*
Y23827D01*
X17064Y13865D02*
Y16415D01*
Y21291D02*
Y23841D01*
X17078Y13851D02*
Y16373D01*
Y21333D02*
Y23855D01*
X17092Y13837D02*
Y16345D01*
Y21361D02*
Y23869D01*
X17106Y13809D02*
Y16303D01*
Y21403D02*
Y23897D01*
X17120Y13795D02*
Y16275D01*
Y21431D02*
Y23911D01*
X17134Y13781D02*
Y16247D01*
Y21459D02*
Y23925D01*
X17148Y13767D02*
Y16205D01*
Y21501D02*
Y23939D01*
X17162Y13753D02*
Y16177D01*
Y21529D02*
Y23953D01*
X17176Y13739D02*
Y16149D01*
Y21557D02*
Y23967D01*
X17190Y13711D02*
Y16121D01*
Y21585D02*
Y23995D01*
X17204Y13697D02*
Y16079D01*
Y21627D02*
Y24009D01*
X17218Y13683D02*
Y16051D01*
Y21655D02*
Y24023D01*
X17232Y13669D02*
Y16023D01*
Y21683D02*
Y24037D01*
X17246Y13655D02*
Y15995D01*
Y21711D02*
Y24051D01*
X17260Y13641D02*
Y15967D01*
Y21739D02*
Y24065D01*
X17275Y13627D02*
Y15939D01*
Y21767D02*
Y24079D01*
X17289Y13599D02*
Y15911D01*
Y21795D02*
Y24107D01*
X17302Y13585D02*
Y15883D01*
Y21823D02*
Y24121D01*
X17316Y13571D02*
Y15855D01*
Y21851D02*
Y24135D01*
X17331Y13557D02*
Y15827D01*
Y21879D02*
Y24149D01*
X17345Y13543D02*
Y15799D01*
Y21907D02*
Y24163D01*
X17358Y13529D02*
Y15771D01*
Y21935D02*
Y24177D01*
X17372Y13515D02*
Y15743D01*
Y21963D02*
Y24191D01*
X17387Y13501D02*
Y15729D01*
Y21977D02*
Y24205D01*
X17401Y13487D02*
Y15701D01*
Y22005D02*
Y24219D01*
X17415Y13473D02*
Y15673D01*
Y22034D02*
Y24233D01*
X17429Y13445D02*
Y15645D01*
Y22061D02*
Y24261D01*
X17443Y13431D02*
Y15617D01*
Y22090D02*
Y24275D01*
X17457Y13417D02*
Y15603D01*
Y22104D02*
Y24289D01*
X17471Y13403D02*
Y15575D01*
Y22131D02*
Y24303D01*
X17485Y13389D02*
Y15547D01*
Y22160D02*
Y24317D01*
X17499Y13375D02*
Y15519D01*
Y22188D02*
Y24331D01*
X17513Y13361D02*
Y15505D01*
Y22202D02*
Y24345D01*
X17527Y13347D02*
Y15477D01*
Y22230D02*
Y24359D01*
X17541Y13333D02*
Y15449D01*
Y22258D02*
Y24373D01*
X17555Y13319D02*
Y15435D01*
Y22272D02*
Y24387D01*
X17569Y13305D02*
Y15407D01*
Y22300D02*
Y24401D01*
X17583Y13291D02*
Y15379D01*
Y22328D02*
Y24415D01*
X17597Y13277D02*
Y15364D01*
Y22342D02*
Y24429D01*
X17611Y13277D02*
Y15337D01*
Y22370D02*
Y24429D01*
X17625Y13291D02*
Y15323D01*
Y22384D02*
Y24415D01*
X17639Y13305D02*
Y15294D01*
Y22412D02*
Y24401D01*
X17653Y13319D02*
Y15281D01*
Y22426D02*
Y24387D01*
X17667Y13333D02*
Y15252D01*
Y22454D02*
Y24373D01*
X17681Y13347D02*
Y15238D01*
Y22482D02*
Y24359D01*
X17695Y13361D02*
Y15210D01*
Y22496D02*
Y24345D01*
X17709Y13375D02*
Y15182D01*
Y22524D02*
Y24331D01*
X17723Y13389D02*
Y15168D01*
Y22538D02*
Y24317D01*
X17737Y13403D02*
Y15154D01*
Y22552D02*
Y24303D01*
X17751Y13417D02*
Y15126D01*
Y22580D02*
Y24289D01*
X17765Y13431D02*
Y15112D01*
Y22594D02*
Y24275D01*
X17779Y13445D02*
Y15084D01*
Y22622D02*
Y24261D01*
X17793Y13459D02*
Y15070D01*
Y22636D02*
Y24247D01*
X17807Y13473D02*
Y15042D01*
Y22664D02*
Y24233D01*
X17821Y13487D02*
Y15028D01*
Y22678D02*
Y24219D01*
X17835Y13501D02*
Y15014D01*
Y22692D02*
Y24205D01*
X17849Y13515D02*
Y14986D01*
Y22720D02*
Y24191D01*
X17863Y13529D02*
Y14972D01*
Y22734D02*
Y24177D01*
X17877Y13543D02*
Y14944D01*
Y22762D02*
Y24163D01*
X17891Y13557D02*
Y14930D01*
Y22776D02*
Y24149D01*
X17905Y13571D02*
Y14916D01*
Y22790D02*
Y24135D01*
X17919Y13585D02*
Y14888D01*
Y22818D02*
Y24121D01*
X17933Y13599D02*
Y14874D01*
Y22832D02*
Y24107D01*
X17947Y13613D02*
Y14860D01*
Y22846D02*
Y24093D01*
X17961Y13627D02*
Y14832D01*
Y22874D02*
Y24079D01*
X17975Y13641D02*
Y14818D01*
Y22888D02*
Y24065D01*
X17989Y13655D02*
Y14804D01*
Y22902D02*
Y24051D01*
X18003Y13669D02*
Y14790D01*
Y22916D02*
Y24037D01*
X18017Y13683D02*
Y14762D01*
Y22944D02*
Y24023D01*
X18031Y13697D02*
Y14748D01*
Y22958D02*
Y24009D01*
X18045Y13711D02*
Y14734D01*
Y22972D02*
Y23995D01*
X18059Y13725D02*
Y14720D01*
Y22986D02*
Y23981D01*
X18073Y13739D02*
Y14692D01*
Y23014D02*
Y23967D01*
X18087Y13753D02*
Y14678D01*
Y23028D02*
Y23953D01*
X18101Y13767D02*
Y14664D01*
Y23042D02*
Y23939D01*
X18115Y13781D02*
Y14650D01*
Y23056D02*
Y23925D01*
X18129Y13795D02*
Y14636D01*
Y23070D02*
Y23911D01*
X18143Y13809D02*
Y14608D01*
Y23098D02*
Y23897D01*
X18157Y13823D02*
Y14594D01*
Y23112D02*
Y23883D01*
X18171Y13837D02*
Y14580D01*
Y23126D02*
Y23869D01*
X18185Y13851D02*
Y14566D01*
Y23140D02*
Y23855D01*
X18199Y13865D02*
Y14552D01*
Y23154D02*
Y23841D01*
X18213Y13879D02*
Y14524D01*
Y23168D02*
Y23827D01*
X18227Y13893D02*
Y14510D01*
Y23196D02*
Y23813D01*
X18241Y13907D02*
Y14496D01*
Y23210D02*
Y23799D01*
X18255Y13922D02*
Y14482D01*
Y23224D02*
Y23785D01*
X18269Y13936D02*
Y14468D01*
Y23238D02*
Y23771D01*
X18283Y13950D02*
Y14454D01*
Y23252D02*
Y23757D01*
X18297Y13963D02*
Y14440D01*
Y23266D02*
Y23743D01*
X18311Y13977D02*
Y14426D01*
Y23280D02*
Y23729D01*
X18325Y13992D02*
Y14412D01*
Y18503D02*
Y19203D01*
Y23294D02*
Y23715D01*
X18339Y14006D02*
Y14384D01*
Y18335D02*
Y19357D01*
Y23322D02*
Y23701D01*
X18353Y14019D02*
Y14370D01*
Y18237D02*
Y19470D01*
Y23336D02*
Y23687D01*
X18367Y14033D02*
Y14356D01*
Y18125D02*
Y19568D01*
Y23350D02*
Y23673D01*
X18381Y14048D02*
Y14342D01*
Y18041D02*
Y19666D01*
Y23365D02*
Y23659D01*
X18395Y14062D02*
Y14328D01*
Y17956D02*
Y19750D01*
Y23379D02*
Y23645D01*
X18409Y14076D02*
Y14314D01*
Y17886D02*
Y19820D01*
Y23392D02*
Y23631D01*
X18423Y14090D02*
Y14300D01*
Y17816D02*
Y19890D01*
Y23406D02*
Y23617D01*
X18437Y14104D02*
Y14286D01*
Y17760D02*
Y19946D01*
Y23420D02*
Y23603D01*
X18451Y14118D02*
Y14272D01*
Y17704D02*
Y20002D01*
Y23435D02*
Y23589D01*
X18465Y14132D02*
Y14258D01*
Y17648D02*
Y20058D01*
Y23449D02*
Y23575D01*
X18479Y14146D02*
Y14244D01*
Y17592D02*
Y20114D01*
Y23462D02*
Y23561D01*
X18493Y14160D02*
Y14230D01*
Y17536D02*
Y20170D01*
Y23476D02*
Y23547D01*
X18507Y14174D02*
Y14216D01*
Y17494D02*
Y20212D01*
Y23491D02*
Y23533D01*
X18521Y14188D02*
Y14202D01*
Y17438D02*
Y20268D01*
Y23505D02*
Y23519D01*
X18535Y17396D02*
Y20310D01*
X18549Y17354D02*
Y20352D01*
X18563Y17312D02*
Y20394D01*
X18577Y17270D02*
Y20436D01*
X18591Y17228D02*
Y20478D01*
X18605Y17186D02*
Y20520D01*
X18620Y17144D02*
Y20562D01*
X18633Y17116D02*
Y20590D01*
X18647Y17074D02*
Y20632D01*
X18662Y17046D02*
Y20661D01*
X18676Y17004D02*
Y20703D01*
X18689Y16976D02*
Y20730D01*
X18703Y16934D02*
Y20773D01*
X18718Y16906D02*
Y20801D01*
X18732Y16878D02*
Y20829D01*
X18746Y16850D02*
Y20857D01*
X18760Y16808D02*
Y20899D01*
X18774Y16780D02*
Y20927D01*
X18788Y16752D02*
Y20955D01*
X18802Y16724D02*
Y20983D01*
X18816Y16695D02*
Y21011D01*
X18830Y16668D02*
Y21039D01*
X18844Y16639D02*
Y21067D01*
X18858Y16611D02*
Y21095D01*
X18872Y16583D02*
Y21123D01*
X18886Y16555D02*
Y21151D01*
X18900Y16527D02*
Y21165D01*
X18914Y16513D02*
Y21193D01*
X18928Y16485D02*
Y21221D01*
X18942Y16457D02*
Y21249D01*
X18956Y16429D02*
Y21277D01*
X18970Y16415D02*
Y21291D01*
X18984Y16387D02*
Y21319D01*
X18998Y16359D02*
Y21347D01*
X19012Y16331D02*
Y21375D01*
X19026Y16317D02*
Y21389D01*
X19040Y16289D02*
Y21417D01*
X19054Y16275D02*
Y21431D01*
X19068Y16247D02*
Y21459D01*
X19082Y16219D02*
Y21487D01*
X19096Y16205D02*
Y21501D01*
X19110Y16177D02*
Y21529D01*
X19124Y16163D02*
Y21543D01*
X19138Y16135D02*
Y21571D01*
X19152Y16121D02*
Y21585D01*
X19166Y16093D02*
Y21599D01*
X19180Y16079D02*
Y21627D01*
X19194Y16065D02*
Y21641D01*
X19208Y16037D02*
Y21669D01*
X19222Y16023D02*
Y21683D01*
X19236Y15995D02*
Y21711D01*
X19250Y15981D02*
Y21725D01*
X19264Y15967D02*
Y21739D01*
X19278Y15939D02*
Y21767D01*
X19292Y15925D02*
Y21781D01*
X19306Y15911D02*
Y21795D01*
X19320Y15883D02*
Y21823D01*
X19334Y15869D02*
Y21837D01*
X19348Y15855D02*
Y21851D01*
X19362Y15841D02*
Y21865D01*
X19376Y15813D02*
Y21893D01*
X19390Y15799D02*
Y21907D01*
X19404Y15785D02*
Y21921D01*
X19418Y15771D02*
Y21935D01*
X19432Y15743D02*
Y21963D01*
X19446Y15729D02*
Y21977D01*
X19460Y15715D02*
Y21991D01*
X19474Y15701D02*
Y22005D01*
X19488Y15687D02*
Y22019D01*
X19502Y15659D02*
Y22048D01*
X19516Y15645D02*
Y22061D01*
X19530Y15631D02*
Y22075D01*
X19544Y15617D02*
Y22090D01*
X19558Y15603D02*
Y22104D01*
X19572Y15589D02*
Y22118D01*
X19586Y15575D02*
Y22131D01*
X19600Y15561D02*
Y22146D01*
X19614Y15547D02*
Y22160D01*
X19628Y15533D02*
Y18601D01*
Y19105D02*
Y22174D01*
X19642Y15505D02*
Y18447D01*
Y19259D02*
Y22202D01*
X19656Y15491D02*
Y18335D01*
Y19372D02*
Y22216D01*
X19670Y15477D02*
Y18237D01*
Y19456D02*
Y22230D01*
X19684Y15463D02*
Y18167D01*
Y19526D02*
Y22244D01*
X19698Y15449D02*
Y18111D01*
Y19596D02*
Y22258D01*
X19712Y15435D02*
Y18041D01*
Y19666D02*
Y22272D01*
X19726Y15421D02*
Y17985D01*
Y19722D02*
Y22286D01*
X19740Y15421D02*
Y17928D01*
Y19778D02*
Y22286D01*
X19754Y15421D02*
Y17872D01*
Y19834D02*
Y22286D01*
X19768Y15435D02*
Y17830D01*
Y19876D02*
Y22272D01*
X19782Y15449D02*
Y17788D01*
Y19918D02*
Y22258D01*
X19796Y15463D02*
Y17746D01*
Y19960D02*
Y22244D01*
X19810Y15477D02*
Y17704D01*
Y20002D02*
Y22230D01*
X19824Y15491D02*
Y17662D01*
Y20044D02*
Y22216D01*
X19838Y15505D02*
Y17620D01*
Y20086D02*
Y22202D01*
X19852Y15519D02*
Y17578D01*
Y20128D02*
Y22188D01*
X19866Y15533D02*
Y17550D01*
Y20156D02*
Y22174D01*
X19880Y15547D02*
Y17508D01*
Y20198D02*
Y22160D01*
X19894Y15561D02*
Y17480D01*
Y20226D02*
Y22146D01*
X19908Y15575D02*
Y17452D01*
Y20268D02*
Y22131D01*
X19922Y15589D02*
Y17410D01*
Y20296D02*
Y22118D01*
X19936Y15603D02*
Y17382D01*
Y20324D02*
Y22104D01*
X19951Y15617D02*
Y17354D01*
Y20352D02*
Y22090D01*
X19964Y15631D02*
Y17326D01*
Y20380D02*
Y22075D01*
X19978Y15645D02*
Y17298D01*
Y20422D02*
Y22061D01*
X19993Y15659D02*
Y17256D01*
Y20450D02*
Y22048D01*
X20007Y15673D02*
Y17228D01*
Y20464D02*
Y22034D01*
X20020Y15687D02*
Y17214D01*
Y20492D02*
Y22019D01*
X20034Y15701D02*
Y17186D01*
Y20520D02*
Y22005D01*
X20049Y15715D02*
Y17158D01*
Y20548D02*
Y21991D01*
X20063Y15729D02*
Y17130D01*
Y20576D02*
Y21977D01*
X20077Y15743D02*
Y17102D01*
Y20604D02*
Y21963D01*
X20090Y15757D02*
Y17088D01*
Y20618D02*
Y21949D01*
X20105Y15771D02*
Y17060D01*
Y20646D02*
Y21935D01*
X20119Y15785D02*
Y17032D01*
Y20674D02*
Y21921D01*
X20133Y15799D02*
Y17004D01*
Y20703D02*
Y21907D01*
X20147Y15813D02*
Y16990D01*
Y20717D02*
Y21893D01*
X20161Y15827D02*
Y16962D01*
Y20744D02*
Y21879D01*
X20175Y15841D02*
Y16948D01*
Y20759D02*
Y21865D01*
X20189Y15855D02*
Y16920D01*
Y20786D02*
Y21851D01*
X20203Y15869D02*
Y16892D01*
Y20801D02*
Y21837D01*
X20217Y15883D02*
Y16878D01*
Y20829D02*
Y21823D01*
X20231Y15897D02*
Y16864D01*
Y20857D02*
Y21809D01*
X20245Y15911D02*
Y16836D01*
Y20871D02*
Y21795D01*
X20259Y15925D02*
Y16822D01*
Y20885D02*
Y21781D01*
X20273Y15939D02*
Y16794D01*
Y20913D02*
Y21767D01*
X20287Y15953D02*
Y16780D01*
Y20927D02*
Y21753D01*
X20301Y15967D02*
Y16752D01*
Y20955D02*
Y21739D01*
X20315Y15981D02*
Y16737D01*
Y20969D02*
Y21725D01*
X20329Y15995D02*
Y16724D01*
Y20983D02*
Y21711D01*
X20343Y16009D02*
Y16695D01*
Y21011D02*
Y21697D01*
X20357Y16023D02*
Y16681D01*
Y21025D02*
Y21683D01*
X20371Y16037D02*
Y16668D01*
Y21039D02*
Y21669D01*
X20385Y16051D02*
Y16654D01*
Y21053D02*
Y21655D01*
X20399Y16065D02*
Y16625D01*
Y21081D02*
Y21641D01*
X20413Y16079D02*
Y16611D01*
Y21095D02*
Y21627D01*
X20427Y16093D02*
Y16597D01*
Y21109D02*
Y21613D01*
X20441Y16107D02*
Y16583D01*
Y21123D02*
Y21599D01*
X20455Y16121D02*
Y16555D01*
Y21151D02*
Y21585D01*
X20469Y16135D02*
Y16541D01*
Y21165D02*
Y21571D01*
X20483Y16149D02*
Y16527D01*
Y21179D02*
Y21557D01*
X20497Y16163D02*
Y16513D01*
Y21193D02*
Y21543D01*
X20511Y16177D02*
Y16499D01*
Y21207D02*
Y21529D01*
X20525Y16191D02*
Y16485D01*
Y21221D02*
Y21515D01*
X20539Y16205D02*
Y16471D01*
Y21235D02*
Y21501D01*
X20553Y16219D02*
Y16443D01*
Y21263D02*
Y21487D01*
X20567Y16233D02*
Y16429D01*
Y21277D02*
Y21473D01*
X20581Y16247D02*
Y16415D01*
Y21291D02*
Y21459D01*
X20595Y16261D02*
Y16401D01*
Y21305D02*
Y21445D01*
X20609Y16275D02*
Y16387D01*
Y21319D02*
Y21431D01*
X20623Y16289D02*
Y16373D01*
Y21333D02*
Y21417D01*
X20637Y16303D02*
Y16359D01*
Y21347D02*
Y21403D01*
X20651Y16317D02*
Y16345D01*
Y21361D02*
Y21389D01*
X21155Y18741D02*
Y18923D01*
Y18937D02*
Y18965D01*
X21169Y18643D02*
Y19063D01*
X21183Y18587D02*
Y19119D01*
X21197Y18531D02*
Y19175D01*
X21211Y18489D02*
Y19217D01*
X21225Y18447D02*
Y19259D01*
X21239Y18405D02*
Y19301D01*
X21253Y18377D02*
Y19330D01*
X21267Y18349D02*
Y19357D01*
X21281Y18321D02*
Y19386D01*
X21295Y18293D02*
Y19413D01*
X21309Y18265D02*
Y19442D01*
X21324Y18251D02*
Y19456D01*
X21338Y18223D02*
Y19484D01*
X21351Y18209D02*
Y19498D01*
X21365Y18181D02*
Y19526D01*
X21380Y18167D02*
Y19540D01*
X21394Y18153D02*
Y19554D01*
X21407Y18125D02*
Y19582D01*
X21421Y18111D02*
Y19596D01*
X21436Y18097D02*
Y19610D01*
X21450Y18083D02*
Y19624D01*
X21464Y18068D02*
Y19638D01*
X21478Y18055D02*
Y19652D01*
X21492Y18041D02*
Y19666D01*
X21506Y18026D02*
Y19680D01*
X21520Y18012D02*
Y19694D01*
X21534Y17999D02*
Y19708D01*
X21548Y17985D02*
Y19722D01*
X21562Y17970D02*
Y19736D01*
X21576Y17970D02*
Y19750D01*
X21590Y17956D02*
Y19750D01*
X21604Y17942D02*
Y19764D01*
X21618Y17928D02*
Y19778D01*
X21632Y17914D02*
Y19792D01*
X21646Y17914D02*
Y19792D01*
X21660Y17900D02*
Y19806D01*
X21674Y17886D02*
Y19820D01*
X21688Y17886D02*
Y19820D01*
X21702Y17872D02*
Y19834D01*
X21716Y17872D02*
Y19834D01*
X21730Y17858D02*
Y19848D01*
X21744Y17844D02*
Y19862D01*
X21758Y17844D02*
Y19862D01*
X21772Y17830D02*
Y19876D01*
X21786Y17830D02*
Y19876D01*
X21800Y17816D02*
Y19890D01*
X21814Y17816D02*
Y19890D01*
X21828Y17802D02*
Y19904D01*
X21842Y17802D02*
Y19904D01*
X21856Y17802D02*
Y19904D01*
X21870Y17788D02*
Y19918D01*
X21884Y17788D02*
Y19918D01*
X21898Y17774D02*
Y19932D01*
X21912Y17774D02*
Y19932D01*
X21926Y17774D02*
Y19932D01*
X21940Y17760D02*
Y19946D01*
X21954Y17760D02*
Y19946D01*
X21968Y17760D02*
Y19946D01*
X21982Y17746D02*
Y19960D01*
X21996Y17746D02*
Y19960D01*
X22010Y17746D02*
Y19960D01*
X22024Y17746D02*
Y19960D01*
X22038Y17732D02*
Y19974D01*
X22052Y17732D02*
Y19974D01*
X22066Y17732D02*
Y19974D01*
X22080Y17732D02*
Y19974D01*
X22094Y17732D02*
Y19974D01*
X22108Y17732D02*
Y19974D01*
X22122Y17718D02*
Y19988D01*
X22136Y17718D02*
Y19988D01*
X22150Y17718D02*
Y19988D01*
X22164Y17718D02*
Y19988D01*
X22178Y17718D02*
Y19988D01*
X22192Y17718D02*
Y19988D01*
X22206Y17718D02*
Y19988D01*
X22220Y17704D02*
Y20002D01*
X22234Y17704D02*
Y20002D01*
X22248Y17704D02*
Y20002D01*
X22262Y17704D02*
Y20002D01*
X22276Y17704D02*
Y20002D01*
X22290Y17704D02*
Y20002D01*
X22304Y17704D02*
Y20002D01*
X22318Y17704D02*
Y20002D01*
X22332Y17718D02*
Y19988D01*
X22346Y17704D02*
Y20002D01*
X22360Y17704D02*
Y20002D01*
X22374Y17704D02*
Y20002D01*
X22388Y17718D02*
Y19988D01*
X22402Y17718D02*
Y19988D01*
X22416Y17718D02*
Y19988D01*
X22430Y17718D02*
Y19988D01*
X22444Y17718D02*
Y19988D01*
X22458Y17718D02*
Y19988D01*
X22472Y17718D02*
Y19988D01*
X22486Y17718D02*
Y19988D01*
X22500Y17732D02*
Y19974D01*
X22514Y17732D02*
Y19974D01*
X22528Y17732D02*
Y19974D01*
X22542Y17732D02*
Y19974D01*
X22556Y17732D02*
Y19974D01*
X22570Y17746D02*
Y19960D01*
X22584Y17746D02*
Y19960D01*
X22598Y17746D02*
Y19960D01*
X22612Y17760D02*
Y19946D01*
X22626Y17760D02*
Y19946D01*
X22640Y17760D02*
Y19946D01*
X22655Y17760D02*
Y19946D01*
X22669Y17774D02*
Y19932D01*
X22682Y17774D02*
Y19932D01*
X22696Y17788D02*
Y19918D01*
X22711Y17788D02*
Y19918D01*
X22725Y17788D02*
Y19918D01*
X22738Y17802D02*
Y19904D01*
X22752Y17802D02*
Y19904D01*
X22767Y17816D02*
Y19890D01*
X22781Y17816D02*
Y19890D01*
X22795Y17816D02*
Y19890D01*
X22809Y17830D02*
Y19876D01*
X22823Y17830D02*
Y19876D01*
X22837Y17844D02*
Y19862D01*
X22851Y17858D02*
Y19848D01*
X22865Y17858D02*
Y19848D01*
X22879Y17872D02*
Y19834D01*
X22893Y17872D02*
Y19834D01*
X22907Y17886D02*
Y19820D01*
X22921Y17900D02*
Y19806D01*
X22935Y17900D02*
Y19806D01*
X22949Y17914D02*
Y19792D01*
X22963Y17928D02*
Y19778D01*
X22977Y17928D02*
Y19778D01*
X22991Y17942D02*
Y19764D01*
X23005Y17956D02*
Y19750D01*
X23019Y17970D02*
Y19736D01*
X23033Y17985D02*
Y19722D01*
X23047Y17985D02*
Y19722D01*
X23061Y17999D02*
Y19708D01*
X23075Y18012D02*
Y19694D01*
X23089Y18026D02*
Y19680D01*
X23103Y18041D02*
Y19666D01*
X23117Y18055D02*
Y19652D01*
X23131Y18068D02*
Y19638D01*
X23145Y18083D02*
Y19624D01*
X23159Y18097D02*
Y19610D01*
X23173Y18125D02*
Y19582D01*
X23187Y18139D02*
Y19568D01*
X23201Y18153D02*
Y19554D01*
X23215Y18167D02*
Y19540D01*
X23229Y18195D02*
Y19512D01*
X23243Y18209D02*
Y19498D01*
X23257Y18237D02*
Y19470D01*
X23271Y18251D02*
Y19456D01*
X23285Y18279D02*
Y19428D01*
X23299Y18307D02*
Y19399D01*
X23313Y18335D02*
Y19372D01*
X23327Y18363D02*
Y19343D01*
X23341Y18391D02*
Y19316D01*
X23355Y18419D02*
Y19287D01*
X23369Y18461D02*
Y19245D01*
X23383Y18503D02*
Y19203D01*
X23397Y18545D02*
Y19161D01*
X23411Y18601D02*
Y19105D01*
X23425Y18671D02*
Y19021D01*
X23439Y18811D02*
Y18895D01*
D14*
X322161Y165147D02*
X326660D01*
X322063Y165114D02*
X326725D01*
X321999Y165082D02*
X326790D01*
X321966Y165050D02*
X326822D01*
X321934Y165017D02*
X326854D01*
X321901Y164985D02*
X326887D01*
X321869Y164952D02*
X326919D01*
X321869Y164920D02*
X326919D01*
X321837Y164888D02*
X326952D01*
X321837Y164855D02*
X326952D01*
X321837Y164823D02*
X326952D01*
X321804Y164791D02*
X326984D01*
X321804Y164758D02*
X326984D01*
X321804Y164726D02*
X326984D01*
X321804Y164693D02*
X326984D01*
X321804Y164661D02*
X326984D01*
X321804Y164629D02*
X326984D01*
X321804Y164596D02*
X326984D01*
X321837Y164564D02*
X326952D01*
X321837Y164532D02*
X326952D01*
X321869Y164499D02*
X326952D01*
X321869Y164467D02*
X326919D01*
X321901Y164435D02*
X326887D01*
X321934Y164402D02*
X326854D01*
X321934Y164370D02*
X326854D01*
X321999Y164337D02*
X326790D01*
X322031Y164305D02*
X326757D01*
X322096Y164273D02*
X326693D01*
X322258Y164240D02*
X326563D01*
X322161Y163981D02*
X326628D01*
X322161Y163949D02*
X326628D01*
X322161Y163917D02*
X326628D01*
X322161Y163884D02*
X326628D01*
X322161Y163852D02*
X326628D01*
X322161Y163819D02*
X326628D01*
X322161Y163787D02*
X326628D01*
X322161Y163755D02*
X326628D01*
X322161Y163722D02*
X326628D01*
X322161Y163690D02*
X326628D01*
X322161Y163658D02*
X326628D01*
X322193Y163625D02*
X326595D01*
X322193Y163593D02*
X326595D01*
X322193Y163560D02*
X326595D01*
X322193Y163528D02*
X326595D01*
X322225Y163496D02*
X326563D01*
X322225Y163463D02*
X326563D01*
X322225Y163431D02*
X326563D01*
X322258Y163399D02*
X326531D01*
X322258Y163366D02*
X326531D01*
X322258Y163334D02*
X326531D01*
X322290Y163302D02*
X326498D01*
X322290Y163269D02*
X326498D01*
X322290Y163237D02*
X326498D01*
X322322Y163204D02*
X326466D01*
X322322Y163172D02*
X326466D01*
X322355Y163140D02*
X326433D01*
X322355Y163107D02*
X326433D01*
X322387Y163075D02*
X326401D01*
X322387Y163042D02*
X326401D01*
X322420Y163010D02*
X326369D01*
X322452Y162978D02*
X326336D01*
X322452Y162945D02*
X326336D01*
X322484Y162913D02*
X326304D01*
X322517Y162881D02*
X326272D01*
X322517Y162848D02*
X326272D01*
X322549Y162816D02*
X326239D01*
X322581Y162784D02*
X326207D01*
X322614Y162751D02*
X326174D01*
X322646Y162719D02*
X326142D01*
X322678Y162686D02*
X326110D01*
X322711Y162654D02*
X326077D01*
X322743Y162622D02*
X326045D01*
X322776Y162589D02*
X326013D01*
X322808Y162557D02*
X325980D01*
X322840Y162525D02*
X325948D01*
X322873Y162492D02*
X325916D01*
X322937Y162460D02*
X325883D01*
X322970Y162427D02*
X325818D01*
X323002Y162395D02*
X325786D01*
X323067Y162363D02*
X325721D01*
X323099Y162330D02*
X325657D01*
X323164Y162298D02*
X325624D01*
X323229Y162266D02*
X325559D01*
X323293Y162233D02*
X325462D01*
X323391Y162201D02*
X325398D01*
X323488Y162169D02*
X325301D01*
X323617Y162136D02*
X325171D01*
X323779Y162104D02*
X325009D01*
X323617Y161489D02*
X323682D01*
X325106D02*
X325171D01*
X323585Y161456D02*
X323714D01*
X325074D02*
X325203D01*
X323552Y161424D02*
X323779D01*
X325009D02*
X325236D01*
X323520Y161392D02*
X323811D01*
X324977D02*
X325268D01*
X323488Y161359D02*
X323876D01*
X324912D02*
X325301D01*
X323455Y161327D02*
X323941D01*
X324847D02*
X325333D01*
X323423Y161294D02*
X324006D01*
X324783D02*
X325365D01*
X323391Y161262D02*
X324103D01*
X324686D02*
X325398D01*
X323358Y161230D02*
X324265D01*
X324524D02*
X325430D01*
X323326Y161197D02*
X325462D01*
X323293Y161165D02*
X325495D01*
X323326Y161133D02*
X325462D01*
X323358Y161100D02*
X325430D01*
X323391Y161068D02*
X325398D01*
X323455Y161036D02*
X325333D01*
X323488Y161003D02*
X325301D01*
X323552Y160971D02*
X325236D01*
X323585Y160938D02*
X325203D01*
X323650Y160906D02*
X325139D01*
X323714Y160874D02*
X325074D01*
X323779Y160841D02*
X325009D01*
X323876Y160809D02*
X324912D01*
X323973Y160776D02*
X324847D01*
X324103Y160744D02*
X324686D01*
X322484Y160453D02*
X322549D01*
X326239D02*
X326304D01*
X322452Y160420D02*
X322581D01*
X326207D02*
X326336D01*
X322420Y160388D02*
X322646D01*
X326142D02*
X326369D01*
X322387Y160356D02*
X322678D01*
X326110D02*
X326401D01*
X322355Y160323D02*
X322711D01*
X326077D02*
X326433D01*
X322322Y160291D02*
X322743D01*
X326045D02*
X326466D01*
X322290Y160259D02*
X322776D01*
X325980D02*
X326498D01*
X322258Y160226D02*
X322840D01*
X325948D02*
X326531D01*
X322225Y160194D02*
X322873D01*
X325916D02*
X326563D01*
X322193Y160161D02*
X322937D01*
X325851D02*
X326595D01*
X322193Y160129D02*
X322970D01*
X325818D02*
X326595D01*
X322193Y160097D02*
X323035D01*
X325754D02*
X326563D01*
X322258Y160064D02*
X323067D01*
X325689D02*
X326531D01*
X322290Y160032D02*
X323132D01*
X325657D02*
X326498D01*
X322322Y160000D02*
X323229D01*
X325592D02*
X326466D01*
X322355Y159967D02*
X323261D01*
X325527D02*
X326433D01*
X322387Y159935D02*
X323358D01*
X325430D02*
X326401D01*
X322420Y159903D02*
X323423D01*
X325365D02*
X326369D01*
X322484Y159870D02*
X323520D01*
X324524D02*
X324783D01*
X325333D02*
X326304D01*
X322517Y159838D02*
X323617D01*
X324394D02*
X324880D01*
X325365D02*
X326272D01*
X322549Y159805D02*
X323714D01*
X324329D02*
X324977D01*
X325365D02*
X326239D01*
X322614Y159773D02*
X323844D01*
X324265D02*
X325042D01*
X325398D02*
X326174D01*
X322646Y159741D02*
X323876D01*
X324232D02*
X325074D01*
X325430D02*
X326142D01*
X322711Y159708D02*
X323844D01*
X324200D02*
X325106D01*
X325462D02*
X326077D01*
X322743Y159676D02*
X323811D01*
X324167D02*
X325139D01*
X325462D02*
X326045D01*
X322808Y159643D02*
X323811D01*
X324135D02*
X325171D01*
X325495D02*
X325980D01*
X322873Y159611D02*
X323779D01*
X324103D02*
X325203D01*
X325495D02*
X325916D01*
X322937Y159579D02*
X323779D01*
X324070D02*
X325236D01*
X325527D02*
X325883D01*
X323002Y159546D02*
X323747D01*
X324038D02*
X325236D01*
X325527D02*
X325818D01*
X323035Y159514D02*
X323747D01*
X324038D02*
X325268D01*
X325559D02*
X325721D01*
X323132Y159482D02*
X323747D01*
X324006D02*
X325268D01*
X325559D02*
X325657D01*
X323196Y159449D02*
X323714D01*
X324006D02*
X325301D01*
X323293Y159417D02*
X323714D01*
X323973D02*
X325301D01*
X321319Y159385D02*
X321384D01*
X323391D02*
X323714D01*
X323973D02*
X325333D01*
X327405D02*
X327469D01*
X321287Y159352D02*
X321416D01*
X323488D02*
X323714D01*
X323973D02*
X325333D01*
X327372D02*
X327502D01*
X321254Y159320D02*
X321448D01*
X323585D02*
X323714D01*
X323973D02*
X325333D01*
X327340D02*
X327534D01*
X321222Y159287D02*
X321481D01*
X323941D02*
X325333D01*
X327308D02*
X327567D01*
X321189Y159255D02*
X321513D01*
X323941D02*
X325333D01*
X327275D02*
X327599D01*
X321157Y159223D02*
X321545D01*
X323941D02*
X325365D01*
X327243D02*
X327631D01*
X321125Y159190D02*
X321578D01*
X323941D02*
X325365D01*
X327210D02*
X327664D01*
X321092Y159158D02*
X321642D01*
X323941D02*
X325365D01*
X327146D02*
X327696D01*
X321027Y159126D02*
X321675D01*
X323941D02*
X325365D01*
X327113D02*
X327728D01*
X321027Y159093D02*
X321707D01*
X323941D02*
X325333D01*
X327081D02*
X327761D01*
X320995Y159061D02*
X321740D01*
X323973D02*
X325333D01*
X327049D02*
X327793D01*
X321027Y159028D02*
X321804D01*
X323973D02*
X325333D01*
X326984D02*
X327761D01*
X321060Y158996D02*
X321837D01*
X323973D02*
X325333D01*
X326952D02*
X327728D01*
X321092Y158964D02*
X321869D01*
X323973D02*
X325333D01*
X326919D02*
X327696D01*
X321125Y158931D02*
X321934D01*
X323973D02*
X325301D01*
X326854D02*
X327664D01*
X321157Y158899D02*
X321966D01*
X324006D02*
X325301D01*
X326822D02*
X327631D01*
X321189Y158867D02*
X322031D01*
X324038D02*
X325268D01*
X326757D02*
X327599D01*
X321222Y158834D02*
X322063D01*
X324038D02*
X325268D01*
X326725D02*
X327567D01*
X321287Y158802D02*
X322128D01*
X324070D02*
X325236D01*
X326660D02*
X327502D01*
X321319Y158770D02*
X322161D01*
X324070D02*
X325236D01*
X326628D02*
X327469D01*
X321351Y158737D02*
X322225D01*
X324103D02*
X325203D01*
X326563D02*
X327437D01*
X321384Y158705D02*
X322290D01*
X324135D02*
X325171D01*
X326498D02*
X327405D01*
X321416Y158672D02*
X322355D01*
X324167D02*
X325139D01*
X326433D02*
X327372D01*
X321481Y158640D02*
X322420D01*
X324200D02*
X325106D01*
X326369D02*
X327308D01*
X321513Y158608D02*
X322452D01*
X324232D02*
X325074D01*
X326304D02*
X327275D01*
X321545Y158575D02*
X322517D01*
X324297D02*
X325009D01*
X326239D02*
X327243D01*
X321610Y158543D02*
X322614D01*
X324329D02*
X324944D01*
X326174D02*
X327178D01*
X321642Y158510D02*
X322678D01*
X324427D02*
X324880D01*
X326110D02*
X327146D01*
X321707Y158478D02*
X322743D01*
X324588D02*
X324686D01*
X326045D02*
X327081D01*
X321740Y158446D02*
X322840D01*
X325948D02*
X327049D01*
X321804Y158413D02*
X322937D01*
X325851D02*
X326984D01*
X321837Y158381D02*
X323035D01*
X325754D02*
X326952D01*
X320056Y158349D02*
X320121D01*
X321901D02*
X323132D01*
X325657D02*
X326887D01*
X328667D02*
X328732D01*
X320024Y158316D02*
X320153D01*
X321966D02*
X323229D01*
X325559D02*
X326822D01*
X328635D02*
X328764D01*
X319992Y158284D02*
X320186D01*
X321999D02*
X323358D01*
X325430D02*
X326790D01*
X328602D02*
X328797D01*
X319959Y158252D02*
X320218D01*
X322063D02*
X323423D01*
X325301D02*
X326725D01*
X328570D02*
X328829D01*
X319959Y158219D02*
X320251D01*
X322128D02*
X323391D01*
X324070D02*
X324362D01*
X325106D02*
X326660D01*
X328538D02*
X328861D01*
X319927Y158187D02*
X320283D01*
X322193D02*
X323358D01*
X323941D02*
X324524D01*
X324944D02*
X326595D01*
X328505D02*
X328861D01*
X319895Y158154D02*
X320315D01*
X322258D02*
X323293D01*
X323844D02*
X324588D01*
X324977D02*
X326531D01*
X328473D02*
X328926D01*
X319830Y158122D02*
X320348D01*
X322322D02*
X323261D01*
X323747D02*
X324653D01*
X324977D02*
X326466D01*
X328440D02*
X328959D01*
X319797Y158090D02*
X320412D01*
X322387D02*
X323229D01*
X323682D02*
X324686D01*
X325009D02*
X326401D01*
X328376D02*
X328991D01*
X319765Y158057D02*
X320445D01*
X322452D02*
X323164D01*
X323617D02*
X324718D01*
X325042D02*
X326336D01*
X328343D02*
X328991D01*
X319733Y158025D02*
X320477D01*
X322517D02*
X323132D01*
X323552D02*
X324750D01*
X325042D02*
X326272D01*
X328311D02*
X329023D01*
X319765Y157993D02*
X320510D01*
X322614D02*
X323099D01*
X323520D02*
X324750D01*
X325074D02*
X326174D01*
X328279D02*
X329023D01*
X319797Y157960D02*
X320542D01*
X322711D02*
X323067D01*
X323455D02*
X324783D01*
X325074D02*
X326077D01*
X328246D02*
X328991D01*
X319830Y157928D02*
X320607D01*
X322776D02*
X323035D01*
X323423D02*
X324815D01*
X325106D02*
X326013D01*
X328214D02*
X328959D01*
X319862Y157896D02*
X320639D01*
X322873D02*
X322970D01*
X323391D02*
X324815D01*
X325106D02*
X325916D01*
X328149D02*
X328926D01*
X319895Y157863D02*
X320671D01*
X323358D02*
X324847D01*
X325139D02*
X325818D01*
X328117D02*
X328894D01*
X319927Y157831D02*
X320704D01*
X323293D02*
X324847D01*
X325139D02*
X325689D01*
X328084D02*
X328861D01*
X319959Y157798D02*
X320768D01*
X323261D02*
X324880D01*
X325171D02*
X325559D01*
X328020D02*
X328829D01*
X319992Y157766D02*
X320801D01*
X323229D02*
X324880D01*
X325171D02*
X325430D01*
X327987D02*
X328797D01*
X320056Y157734D02*
X320833D01*
X323196D02*
X324912D01*
X325203D02*
X325268D01*
X327923D02*
X328732D01*
X320089Y157701D02*
X320898D01*
X323164D02*
X324912D01*
X327890D02*
X328699D01*
X320121Y157669D02*
X320930D01*
X323099D02*
X324944D01*
X327858D02*
X328667D01*
X320153Y157636D02*
X320995D01*
X323067D02*
X324944D01*
X327793D02*
X328635D01*
X320186Y157604D02*
X321027D01*
X323035D02*
X324977D01*
X327761D02*
X328602D01*
X320251Y157572D02*
X321092D01*
X323002D02*
X324977D01*
X327696D02*
X328538D01*
X320283Y157539D02*
X321125D01*
X322970D02*
X324977D01*
X327664D02*
X328505D01*
X320315Y157507D02*
X321189D01*
X322905D02*
X325009D01*
X327599D02*
X328473D01*
X320348Y157475D02*
X321222D01*
X322873D02*
X325009D01*
X327534D02*
X328440D01*
X320412Y157442D02*
X321287D01*
X322840D02*
X325042D01*
X327502D02*
X328376D01*
X320445Y157410D02*
X321351D01*
X322808D02*
X325042D01*
X327437D02*
X328343D01*
X320477Y157378D02*
X321416D01*
X322776D02*
X325042D01*
X327372D02*
X328311D01*
X320542Y157345D02*
X321481D01*
X322743D02*
X325074D01*
X327340D02*
X328246D01*
X320574Y157313D02*
X321513D01*
X322678D02*
X325074D01*
X327275D02*
X328214D01*
X320607Y157280D02*
X321578D01*
X322646D02*
X325074D01*
X327210D02*
X328182D01*
X320671Y157248D02*
X321642D01*
X322614D02*
X325106D01*
X327146D02*
X328117D01*
X320704Y157216D02*
X321707D01*
X322581D02*
X323552D01*
X323585D02*
X325106D01*
X327081D02*
X328084D01*
X320768Y157183D02*
X321772D01*
X322549D02*
X323488D01*
X323585D02*
X325106D01*
X327016D02*
X328020D01*
X320801Y157151D02*
X321837D01*
X322517D02*
X323455D01*
X323585D02*
X325139D01*
X326952D02*
X327987D01*
X320866Y157118D02*
X321901D01*
X322484D02*
X323423D01*
X323585D02*
X325139D01*
X326854D02*
X327923D01*
X320930Y157086D02*
X321999D01*
X322484D02*
X323391D01*
X323552D02*
X325139D01*
X326790D02*
X327858D01*
X320963Y157054D02*
X322063D01*
X322452D02*
X323326D01*
X323552D02*
X325139D01*
X326725D02*
X327825D01*
X321027Y157021D02*
X322161D01*
X322452D02*
X323326D01*
X323552D02*
X325171D01*
X326628D02*
X327761D01*
X321060Y156989D02*
X322161D01*
X322420D02*
X323261D01*
X323552D02*
X325171D01*
X326563D02*
X327728D01*
X321125Y156957D02*
X322161D01*
X322420D02*
X323229D01*
X323552D02*
X325171D01*
X326466D02*
X327664D01*
X321189Y156924D02*
X322161D01*
X322420D02*
X323196D01*
X323520D02*
X325203D01*
X326369D02*
X327599D01*
X321254Y156892D02*
X322128D01*
X322387D02*
X323164D01*
X323520D02*
X325203D01*
X326272D02*
X327534D01*
X321287Y156860D02*
X322128D01*
X322387D02*
X323132D01*
X323520D02*
X325203D01*
X326174D02*
X327469D01*
X321351Y156827D02*
X322128D01*
X322387D02*
X323099D01*
X323520D02*
X325236D01*
X326077D02*
X327437D01*
X321416Y156795D02*
X322128D01*
X322387D02*
X323067D01*
X323488D02*
X325268D01*
X325948D02*
X327372D01*
X321513Y156762D02*
X322128D01*
X322387D02*
X323035D01*
X323488D02*
X325268D01*
X325818D02*
X327308D01*
X321545Y156730D02*
X322128D01*
X322387D02*
X323035D01*
X323488D02*
X325301D01*
X325786D02*
X327210D01*
X321610Y156698D02*
X322128D01*
X322387D02*
X323002D01*
X323488D02*
X325333D01*
X325851D02*
X327146D01*
X321707Y156665D02*
X322096D01*
X322355D02*
X323002D01*
X323488D02*
X324621D01*
X324653D02*
X325365D01*
X325883D02*
X327081D01*
X321772Y156633D02*
X322096D01*
X322355D02*
X322970D01*
X323455D02*
X324621D01*
X324653D02*
X325398D01*
X325980D02*
X327016D01*
X321837Y156601D02*
X322096D01*
X322355D02*
X322970D01*
X323455D02*
X324621D01*
X324686D02*
X325462D01*
X326045D02*
X326919D01*
X321934Y156568D02*
X322096D01*
X322355D02*
X322970D01*
X323455D02*
X324588D01*
X324686D02*
X325495D01*
X326110D02*
X326854D01*
X321999Y156536D02*
X322096D01*
X322355D02*
X322970D01*
X323455D02*
X324588D01*
X324718D02*
X325559D01*
X326174D02*
X326757D01*
X322355Y156503D02*
X322970D01*
X323423D02*
X324588D01*
X324718D02*
X325657D01*
X326239D02*
X326693D01*
X322355Y156471D02*
X322937D01*
X323423D02*
X324588D01*
X324750D02*
X325721D01*
X326304D02*
X326595D01*
X322355Y156439D02*
X322937D01*
X323423D02*
X324556D01*
X324750D02*
X325786D01*
X326369D02*
X326498D01*
X322322Y156406D02*
X322937D01*
X323423D02*
X324556D01*
X324783D02*
X325851D01*
X322322Y156374D02*
X322937D01*
X323423D02*
X324556D01*
X324783D02*
X325916D01*
X322322Y156342D02*
X322937D01*
X323391D02*
X324556D01*
X324815D02*
X325980D01*
X322322Y156309D02*
X322937D01*
X323391D02*
X324524D01*
X324847D02*
X326045D01*
X322322Y156277D02*
X322937D01*
X323391D02*
X324524D01*
X324880D02*
X326142D01*
X322322Y156245D02*
X322937D01*
X323391D02*
X324524D01*
X324912D02*
X326174D01*
X322322Y156212D02*
X322905D01*
X323391D02*
X324524D01*
X324944D02*
X326272D01*
X322322Y156180D02*
X322905D01*
X323358D02*
X324524D01*
X325009D02*
X326336D01*
X322290Y156147D02*
X322905D01*
X323358D02*
X324491D01*
X325074D02*
X326401D01*
X322290Y156115D02*
X322905D01*
X323358D02*
X324491D01*
X325106D02*
X326401D01*
X322290Y156083D02*
X322905D01*
X323358D02*
X324491D01*
X325203D02*
X326433D01*
X322290Y156050D02*
X322905D01*
X323326D02*
X324491D01*
X325268D02*
X326466D01*
X322290Y156018D02*
X322905D01*
X323326D02*
X324491D01*
X325333D02*
X326466D01*
X322290Y155985D02*
X322905D01*
X323326D02*
X324459D01*
X325398D02*
X326498D01*
X322290Y155953D02*
X322873D01*
X323326D02*
X324459D01*
X325462D02*
X326498D01*
X322290Y155921D02*
X322873D01*
X323326D02*
X324459D01*
X325527D02*
X326498D01*
X322258Y155888D02*
X322873D01*
X323293D02*
X324459D01*
X325624D02*
X326498D01*
X322258Y155856D02*
X322873D01*
X323293D02*
X324459D01*
X325689D02*
X326498D01*
X322258Y155824D02*
X322873D01*
X323326D02*
X324427D01*
X325754D02*
X326498D01*
X322258Y155791D02*
X322873D01*
X323326D02*
X324427D01*
X325818D02*
X326466D01*
X322258Y155759D02*
X322873D01*
X323358D02*
X324427D01*
X325883D02*
X326466D01*
X322258Y155727D02*
X322873D01*
X323391D02*
X324427D01*
X325948D02*
X326433D01*
X322258Y155694D02*
X322840D01*
X323391D02*
X324394D01*
X326013D02*
X326401D01*
X322258Y155662D02*
X322840D01*
X323423D02*
X324394D01*
X326077D02*
X326336D01*
X322258Y155629D02*
X322840D01*
X323423D02*
X324427D01*
X326207D02*
X326239D01*
X322258Y155597D02*
X322840D01*
X323455D02*
X324427D01*
X322258Y155565D02*
X322840D01*
X323488D02*
X324459D01*
X322258Y155532D02*
X322808D01*
X323488D02*
X324491D01*
X322290Y155500D02*
X322808D01*
X323520D02*
X324491D01*
X322322Y155468D02*
X322776D01*
X323552D02*
X324524D01*
X322355Y155435D02*
X322743D01*
X323552D02*
X324524D01*
X322387Y155403D02*
X322711D01*
X323585D02*
X324556D01*
X322484Y155370D02*
X322614D01*
X323617D02*
X324588D01*
X323617Y155338D02*
X324588D01*
X323650Y155306D02*
X324621D01*
X323650Y155273D02*
X324653D01*
X323682Y155241D02*
X324653D01*
X323714Y155209D02*
X324686D01*
X323196Y155176D02*
X323229D01*
X323714D02*
X324686D01*
X323164Y155144D02*
X323261D01*
X323747D02*
X324718D01*
X323164Y155112D02*
X323293D01*
X323779D02*
X324750D01*
X323164Y155079D02*
X323293D01*
X323779D02*
X324750D01*
X323164Y155047D02*
X323326D01*
X323811D02*
X324783D01*
X323132Y155014D02*
X323358D01*
X323811D02*
X324815D01*
X323132Y154982D02*
X323391D01*
X323844D02*
X324815D01*
X323132Y154950D02*
X323391D01*
X323876D02*
X324847D01*
X323132Y154917D02*
X323423D01*
X323876D02*
X324880D01*
X323099Y154885D02*
X323455D01*
X323908D02*
X324880D01*
X323099Y154852D02*
X323488D01*
X323941D02*
X324912D01*
X323099Y154820D02*
X323488D01*
X323941D02*
X324912D01*
X323067Y154788D02*
X323520D01*
X323973D02*
X324944D01*
X323067Y154755D02*
X323552D01*
X324006D02*
X324977D01*
X323067Y154723D02*
X323585D01*
X324006D02*
X324977D01*
X323067Y154691D02*
X323585D01*
X324038D02*
X325009D01*
X323035Y154658D02*
X323617D01*
X324070D02*
X325042D01*
X323035Y154626D02*
X323650D01*
X324070D02*
X325042D01*
X323035Y154594D02*
X323650D01*
X324103D02*
X325074D01*
X323002Y154561D02*
X323682D01*
X324103D02*
X325074D01*
X323002Y154529D02*
X323714D01*
X324135D02*
X325106D01*
X323002Y154497D02*
X323747D01*
X324167D02*
X325139D01*
X323002Y154464D02*
X323747D01*
X324167D02*
X325139D01*
X322970Y154432D02*
X323747D01*
X324200D02*
X325171D01*
X322970Y154399D02*
X323747D01*
X324232D02*
X325203D01*
X322970Y154367D02*
X323714D01*
X324232D02*
X325203D01*
X322970Y154335D02*
X323714D01*
X324265D02*
X325236D01*
X322937Y154302D02*
X323714D01*
X324265D02*
X325236D01*
X322937Y154270D02*
X323714D01*
X324297D02*
X325268D01*
X322937Y154237D02*
X323682D01*
X324329D02*
X325301D01*
X322905Y154205D02*
X323682D01*
X324329D02*
X325301D01*
X322873Y154173D02*
X323682D01*
X324362D02*
X325333D01*
X322873Y154140D02*
X323650D01*
X324394D02*
X325365D01*
X322840Y154108D02*
X323650D01*
X324394D02*
X325365D01*
X322808Y154076D02*
X323650D01*
X324427D02*
X325398D01*
X322776Y154043D02*
X323650D01*
X324427D02*
X325430D01*
X322776Y154011D02*
X323617D01*
X324459D02*
X325430D01*
X322743Y153979D02*
X323617D01*
X324491D02*
X325462D01*
X322711Y153946D02*
X323617D01*
X324491D02*
X325495D01*
X322678Y153914D02*
X323585D01*
X324524D02*
X325495D01*
X322678Y153881D02*
X323585D01*
X324556D02*
X325527D01*
X322646Y153849D02*
X323552D01*
X324556D02*
X325527D01*
X322614Y153817D02*
X323552D01*
X324588D02*
X325559D01*
X322581Y153784D02*
X323520D01*
X324621D02*
X325592D01*
X322581Y153752D02*
X323488D01*
X324621D02*
X325592D01*
X322549Y153719D02*
X323455D01*
X324653D02*
X325624D01*
X322517Y153687D02*
X323423D01*
X324686D02*
X325657D01*
X322517Y153655D02*
X323423D01*
X324686D02*
X325657D01*
X322484Y153622D02*
X323391D01*
X324718D02*
X325689D01*
X322452Y153590D02*
X323358D01*
X324718D02*
X325689D01*
X322420Y153558D02*
X323326D01*
X324750D02*
X325721D01*
X322420Y153525D02*
X323326D01*
X324783D02*
X325754D01*
X322387Y153493D02*
X323293D01*
X324783D02*
X325754D01*
X322355Y153461D02*
X323261D01*
X324815D02*
X325786D01*
X322322Y153428D02*
X323229D01*
X324847D02*
X325818D01*
X322322Y153396D02*
X323229D01*
X324847D02*
X325818D01*
X322290Y153363D02*
X323196D01*
X324880D02*
X325851D01*
X322258Y153331D02*
X323164D01*
X324880D02*
X325883D01*
X322225Y153299D02*
X323164D01*
X324912D02*
X325883D01*
X322225Y153266D02*
X323132D01*
X324944D02*
X325916D01*
X322193Y153234D02*
X323099D01*
X324944D02*
X325916D01*
X322161Y153202D02*
X323067D01*
X324977D02*
X325948D01*
X322128Y153169D02*
X323067D01*
X325009D02*
X325980D01*
X322128Y153137D02*
X323035D01*
X325009D02*
X325980D01*
X322096Y153104D02*
X323002D01*
X325042D02*
X326013D01*
X322063Y153072D02*
X322970D01*
X325074D02*
X326013D01*
X322063Y153040D02*
X322970D01*
X325074D02*
X326013D01*
X322063Y153007D02*
X322937D01*
X325106D02*
X326045D01*
X322031Y152975D02*
X322905D01*
X325106D02*
X326045D01*
X322031Y152943D02*
X322905D01*
X325139D02*
X326045D01*
X322031Y152910D02*
X322873D01*
X325171D02*
X326045D01*
X322031Y152878D02*
X322840D01*
X325171D02*
X326013D01*
X322031Y152846D02*
X322808D01*
X325203D02*
X326013D01*
X322031Y152813D02*
X322776D01*
X325236D02*
X326013D01*
X322063Y152781D02*
X322776D01*
X325236D02*
X325980D01*
X322063Y152748D02*
X322743D01*
X325268D02*
X325980D01*
X322096Y152716D02*
X322711D01*
X325268D02*
X325948D01*
X322096Y152684D02*
X322678D01*
X325301D02*
X325916D01*
X322128Y152651D02*
X322678D01*
X325333D02*
X325883D01*
X322161Y152619D02*
X322646D01*
X325365D02*
X325851D01*
X322225Y152586D02*
X322581D01*
X325430D02*
X325818D01*
X322258Y152554D02*
X322517D01*
X325527D02*
X325721D01*
D15*
X7391Y35059D02*
X36919D01*
X7391Y105925D02*
X36919D01*
X7391Y35059D02*
Y105925D01*
D16*
X86430Y203547D02*
Y210633D01*
X65170D02*
X86430D01*
X65170Y203547D02*
Y210633D01*
Y203547D02*
X86430D01*
X359280Y101540D02*
X359319Y105949D01*
X361445Y123835D02*
Y125409D01*
X353571Y123835D02*
X361445D01*
X353571D02*
Y125409D01*
X207121Y41879D02*
X207908D01*
X207121Y30855D02*
X207908D01*
X207121D02*
Y41879D01*
X218144Y30855D02*
X218932D01*
Y41879D01*
X218144D02*
X218932D01*
X254358Y241912D02*
Y245849D01*
X243334D02*
X254358D01*
X243334Y241912D02*
Y245849D01*
Y241912D02*
X254358D01*
X246885Y249950D02*
X250822D01*
Y260973D01*
X246885D02*
X250822D01*
X246885Y249950D02*
Y260973D01*
X286928Y241515D02*
Y245452D01*
X275904D02*
X286928D01*
X275904Y241515D02*
Y245452D01*
Y241515D02*
X286928D01*
X258891Y258788D02*
X262828D01*
X258891Y247765D02*
Y258788D01*
Y247765D02*
X262828D01*
Y258788D01*
X80252Y19215D02*
X84189D01*
X80252Y8192D02*
Y19215D01*
Y8192D02*
X84189D01*
Y19215D01*
X119719Y34792D02*
X123656D01*
X119719Y23768D02*
Y34792D01*
Y23768D02*
X123656D01*
Y34792D01*
X49641Y14320D02*
X53578D01*
Y25343D01*
X49641D02*
X53578D01*
X49641Y14320D02*
Y25343D01*
X73433Y26194D02*
X77370Y26194D01*
X73433Y15170D02*
X73433Y26194D01*
X73433Y15170D02*
X77370Y15170D01*
X77370Y26194D01*
X243341Y116288D02*
X247278D01*
Y127312D01*
X243341D02*
X247278D01*
X243341Y116288D02*
Y127312D01*
X248459Y116288D02*
X252396D01*
Y127312D01*
X248459D02*
X252396D01*
X248459Y116288D02*
Y127312D01*
X238223Y116288D02*
X242160D01*
Y127312D01*
X238223D02*
X242160D01*
X238223Y116288D02*
Y127312D01*
X295536Y98760D02*
Y102697D01*
Y98760D02*
X306560D01*
Y102697D01*
X295536D02*
X306560D01*
X249920Y93060D02*
X253857D01*
Y104083D01*
X249920D02*
X253857D01*
X249920Y93060D02*
Y104083D01*
X250313Y89910D02*
X254251D01*
X250313Y78886D02*
Y89910D01*
Y78886D02*
X254251D01*
Y89910D01*
X276019Y153296D02*
Y157233D01*
Y153296D02*
X287042D01*
Y157233D01*
X276019D02*
X287042D01*
X276019Y158414D02*
Y162351D01*
Y158414D02*
X287042D01*
Y162351D01*
X276019D02*
X287042D01*
X253578Y127312D02*
X257515D01*
X253578Y116288D02*
Y127312D01*
Y116288D02*
X257515D01*
Y127312D01*
X59483Y121406D02*
X63420D01*
X59483Y110382D02*
Y121406D01*
Y110382D02*
X63420D01*
Y121406D01*
X244296Y229135D02*
X248233D01*
X244296Y218112D02*
Y229135D01*
Y218112D02*
X248233D01*
Y229135D01*
X276806Y144241D02*
Y148178D01*
Y144241D02*
X287829D01*
Y148178D01*
X276806D02*
X287829D01*
X363389Y94353D02*
Y98290D01*
X352365D02*
X363389D01*
X352365Y94353D02*
Y98290D01*
Y94353D02*
X363389D01*
X351996Y72406D02*
Y76343D01*
Y72406D02*
X363020D01*
Y76343D01*
X351996D02*
X363020D01*
X201270Y135123D02*
Y139060D01*
Y135123D02*
X212294D01*
Y139060D01*
X201270D02*
X212294D01*
X88260Y137408D02*
X92670Y137368D01*
X88358Y133156D02*
X92768Y133116D01*
X79599Y137408D02*
X84008Y137368D01*
X79697Y133156D02*
X84106Y133116D01*
X228487Y37307D02*
X232896Y37268D01*
X228585Y33055D02*
X232994Y33016D01*
X266920Y45256D02*
X271329Y45217D01*
X267018Y41004D02*
X271427Y40965D01*
X275581Y45256D02*
X279991Y45217D01*
X275679Y41004D02*
X280088Y40965D01*
X283061Y45256D02*
X287471Y45217D01*
X283159Y41004D02*
X287569Y40965D01*
X131636Y176677D02*
X136046Y176638D01*
X131734Y172425D02*
X136144Y172386D01*
X139117Y176677D02*
X143526Y176638D01*
X139214Y172425D02*
X143624Y172386D01*
X162915Y146694D02*
X162955Y151103D01*
X167167Y146792D02*
X167207Y151201D01*
X181155Y170303D02*
X185564Y170264D01*
X181057Y174555D02*
X185466Y174515D01*
X44636Y8229D02*
X44675Y12639D01*
X40384Y8132D02*
X40423Y12541D01*
X44636Y14922D02*
X44675Y19332D01*
X40384Y14824D02*
X40423Y19234D01*
X227781Y111638D02*
X232191Y111599D01*
X227683Y115890D02*
X232093Y115851D01*
X301157Y112208D02*
X305567Y112169D01*
X301255Y107956D02*
X305664Y107917D01*
X210349Y188574D02*
X214758Y188535D01*
X210251Y192826D02*
X214660Y192787D01*
X220654Y188546D02*
X225063Y188506D01*
X220556Y192798D02*
X224965Y192758D01*
X237820Y181353D02*
X237860Y185763D01*
X233568Y181255D02*
X233608Y185665D01*
X277047Y164032D02*
X277086Y168441D01*
X281299Y164130D02*
X281338Y168539D01*
X279295Y136764D02*
X279334Y141173D01*
X283547Y136862D02*
X283586Y141271D01*
X219598Y145133D02*
X224008Y145094D01*
X219696Y140881D02*
X224105Y140842D01*
X204462Y142581D02*
X204502Y146990D01*
X208714Y142679D02*
X208753Y147088D01*
X115748Y122834D02*
X126771D01*
X115748D02*
Y126771D01*
X126771D01*
Y122834D02*
Y126771D01*
X37584Y21863D02*
X48608D01*
X37584D02*
Y25800D01*
X48608D01*
Y21863D02*
Y25800D01*
X221667Y108208D02*
Y119232D01*
X225604D01*
Y108208D02*
Y119232D01*
X221667Y108208D02*
X225604D01*
X298445Y104642D02*
Y115665D01*
X294508Y104642D02*
X298445D01*
X294508D02*
Y115665D01*
X298445D01*
X203836Y173653D02*
X211631Y181448D01*
X214415Y178664D01*
X206620Y170869D02*
X214415Y178664D01*
X203836Y173653D02*
X206620Y170869D01*
X48656Y133080D02*
Y144103D01*
X44719Y133080D02*
X48656D01*
X44719D02*
Y144103D01*
X48656D01*
X187436Y154083D02*
X198459D01*
Y150146D02*
Y154083D01*
X187436Y150146D02*
X198459D01*
X187436D02*
Y154083D01*
X235467Y249235D02*
Y252779D01*
Y249235D02*
X239011D01*
X235442Y257430D02*
Y260973D01*
X238986D01*
X274245Y255245D02*
Y258788D01*
X270702D02*
X274245D01*
X274270Y247051D02*
Y250594D01*
X270727Y247051D02*
X274270D01*
X60271Y15107D02*
Y18650D01*
Y15107D02*
X63814D01*
X60246Y23301D02*
Y26845D01*
X63789D01*
X46885Y109989D02*
Y113532D01*
Y109989D02*
X50428D01*
X46860Y118183D02*
Y121727D01*
X50403D01*
X354359Y78705D02*
Y82249D01*
Y78705D02*
X357902D01*
X354334Y86900D02*
Y90443D01*
X357877D01*
X216635Y157520D02*
X221925Y162810D01*
X207170Y166985D02*
X212459Y172275D01*
X33499Y247390D02*
X36255D01*
X34680Y246209D02*
Y248571D01*
X34286Y290304D02*
X37042D01*
X35467Y289123D02*
Y291485D01*
X187759Y105734D02*
X189707Y107683D01*
X187759Y107404D02*
X189429Y105734D01*
D17*
X357368Y153299D02*
X356712Y153955D01*
X355400D01*
X354744Y153299D01*
Y150676D01*
X355400Y150020D01*
X356712D01*
X357368Y150676D01*
Y151988D01*
X356056D01*
X369770Y149559D02*
X369113Y150215D01*
X367802D01*
X367146Y149559D01*
Y148903D01*
X367802Y148247D01*
X369113D01*
X369770Y147591D01*
Y146935D01*
X369113Y146280D01*
X367802D01*
X367146Y146935D01*
X362618Y143916D02*
Y139980D01*
X364586D01*
X365242Y140636D01*
Y143260D01*
X364586Y143916D01*
X362618D01*
D18*
X45847Y343791D02*
X47946D01*
X46896D01*
Y340642D01*
X48995D02*
X50045D01*
X49520D01*
Y343791D01*
X48995Y343266D01*
X5841Y110826D02*
Y108202D01*
X6365Y107678D01*
X7415D01*
X7940Y108202D01*
Y110826D01*
X8989Y110301D02*
X9514Y110826D01*
X10564D01*
X11088Y110301D01*
Y109777D01*
X10564Y109252D01*
X10039D01*
X10564D01*
X11088Y108727D01*
Y108202D01*
X10564Y107678D01*
X9514D01*
X8989Y108202D01*
X203020Y130709D02*
Y133858D01*
X204594D01*
X205119Y133333D01*
Y132283D01*
X204594Y131759D01*
X203020D01*
X204069D02*
X205119Y130709D01*
X208267D02*
X206168D01*
X208267Y132808D01*
Y133333D01*
X207743Y133858D01*
X206693D01*
X206168Y133333D01*
X209317Y130709D02*
X210366D01*
X209841D01*
Y133858D01*
X209317Y133333D01*
X79750Y193749D02*
X82709Y194826D01*
X82171Y196305D01*
X81498Y196619D01*
X79526Y195901D01*
X79212Y195228D01*
X79750Y193749D01*
X81632Y197784D02*
X81273Y198771D01*
X81453Y198278D01*
X78494Y197201D01*
X79167Y196887D01*
X201447Y108491D02*
Y107966D01*
X202496Y106917D01*
X203546Y107966D01*
Y108491D01*
X202496Y106917D02*
Y105342D01*
X204595D02*
X205645D01*
X205120D01*
Y108491D01*
X204595Y107966D01*
X199568Y166558D02*
X203278Y165816D01*
X201052Y168042D02*
X201794Y164332D01*
X204021Y166558D02*
X204763Y167300D01*
X204392Y166929D01*
X202165Y169156D01*
X202165Y168413D01*
X228675Y174803D02*
Y172179D01*
X229200Y171654D01*
X230250D01*
X230774Y172179D01*
Y174803D01*
X231824D02*
X233923D01*
Y174278D01*
X231824Y172179D01*
Y171654D01*
X202756Y34581D02*
X205380D01*
X205905Y35106D01*
Y36155D01*
X205380Y36680D01*
X202756D01*
Y39829D02*
X203281Y38779D01*
X204331Y37729D01*
X205380D01*
X205905Y38254D01*
Y39304D01*
X205380Y39829D01*
X204855D01*
X204331Y39304D01*
Y37729D01*
X264047Y123891D02*
Y121267D01*
X264572Y120742D01*
X265621D01*
X266146Y121267D01*
Y123891D01*
X269295D02*
X267195D01*
Y122317D01*
X268245Y122842D01*
X268770D01*
X269295Y122317D01*
Y121267D01*
X268770Y120742D01*
X267720D01*
X267195Y121267D01*
X217347Y111891D02*
Y109267D01*
X217872Y108742D01*
X218921D01*
X219446Y109267D01*
Y111891D01*
X222070Y108742D02*
Y111891D01*
X220495Y110317D01*
X222594D01*
X146786Y190157D02*
Y187533D01*
X147310Y187008D01*
X148360D01*
X148885Y187533D01*
Y190157D01*
X152033Y187008D02*
X149934D01*
X152033Y189107D01*
Y189632D01*
X151508Y190157D01*
X150459D01*
X149934Y189632D01*
X107547Y208291D02*
Y205667D01*
X108072Y205142D01*
X109121D01*
X109646Y205667D01*
Y208291D01*
X110695Y205142D02*
X111745D01*
X111220D01*
Y208291D01*
X110695Y207766D01*
X92246Y26266D02*
X91721Y26791D01*
X90672D01*
X90147Y26266D01*
Y25741D01*
X90672Y25217D01*
X91721D01*
X92246Y24692D01*
Y24167D01*
X91721Y23642D01*
X90672D01*
X90147Y24167D01*
X93295Y26791D02*
Y23642D01*
X94345Y24692D01*
X95394Y23642D01*
Y26791D01*
X96444Y23642D02*
X97494D01*
X96969D01*
Y26791D01*
X96444Y26266D01*
X342913Y162664D02*
X342389Y163189D01*
X341339D01*
X340814Y162664D01*
Y162139D01*
X341339Y161614D01*
X342389D01*
X342913Y161089D01*
Y160565D01*
X342389Y160040D01*
X341339D01*
X340814Y160565D01*
X343963Y160040D02*
X345012D01*
X344488D01*
Y163189D01*
X343963Y162664D01*
X252298Y337796D02*
Y340944D01*
X253872D01*
X254397Y340420D01*
Y339370D01*
X253872Y338845D01*
X252298D01*
X253347D02*
X254397Y337796D01*
X255447Y340944D02*
Y337796D01*
X257546D01*
X260694D02*
X258595D01*
X260694Y339895D01*
Y340420D01*
X260169Y340944D01*
X259120D01*
X258595Y340420D01*
X180336Y335850D02*
Y338999D01*
X181910D01*
X182435Y338474D01*
Y337424D01*
X181910Y336900D01*
X180336D01*
X181385D02*
X182435Y335850D01*
X183484Y338999D02*
Y335850D01*
X185583D01*
X186633D02*
X187682D01*
X187158D01*
Y338999D01*
X186633Y338474D01*
X353479Y67914D02*
Y71062D01*
X355053D01*
X355578Y70538D01*
Y69488D01*
X355053Y68963D01*
X353479D01*
X354529D02*
X355578Y67914D01*
X356628Y70538D02*
X357152Y71062D01*
X358202D01*
X358727Y70538D01*
Y70013D01*
X358202Y69488D01*
X357677D01*
X358202D01*
X358727Y68963D01*
Y68439D01*
X358202Y67914D01*
X357152D01*
X356628Y68439D01*
X359776Y70538D02*
X360301Y71062D01*
X361350D01*
X361875Y70538D01*
Y70013D01*
X361350Y69488D01*
X361875Y68963D01*
Y68439D01*
X361350Y67914D01*
X360301D01*
X359776Y68439D01*
Y68963D01*
X360301Y69488D01*
X359776Y70013D01*
Y70538D01*
X360301Y69488D02*
X361350D01*
X364503Y94489D02*
Y97637D01*
X366077D01*
X366602Y97113D01*
Y96063D01*
X366077Y95538D01*
X364503D01*
X365552D02*
X366602Y94489D01*
X367651Y97113D02*
X368176Y97637D01*
X369226D01*
X369750Y97113D01*
Y96588D01*
X369226Y96063D01*
X368701D01*
X369226D01*
X369750Y95538D01*
Y95013D01*
X369226Y94489D01*
X368176D01*
X367651Y95013D01*
X370800Y97113D02*
X371325Y97637D01*
X372374D01*
X372899Y97113D01*
Y96588D01*
X372374Y96063D01*
X371849D01*
X372374D01*
X372899Y95538D01*
Y95013D01*
X372374Y94489D01*
X371325D01*
X370800Y95013D01*
X277247Y150942D02*
Y154091D01*
X278821D01*
X279346Y153566D01*
Y152517D01*
X278821Y151992D01*
X277247D01*
X278296D02*
X279346Y150942D01*
X282494D02*
X280395D01*
X282494Y153042D01*
Y153566D01*
X281970Y154091D01*
X280920D01*
X280395Y153566D01*
X283544D02*
X284069Y154091D01*
X285118D01*
X285643Y153566D01*
Y153042D01*
X285118Y152517D01*
X284594D01*
X285118D01*
X285643Y151992D01*
Y151467D01*
X285118Y150942D01*
X284069D01*
X283544Y151467D01*
X252362Y219227D02*
X249213D01*
Y220801D01*
X249738Y221326D01*
X250787D01*
X251312Y220801D01*
Y219227D01*
Y220277D02*
X252362Y221326D01*
Y224475D02*
Y222376D01*
X250263Y224475D01*
X249738D01*
X249213Y223950D01*
Y222901D01*
X249738Y222376D01*
X252362Y227623D02*
Y225524D01*
X250263Y227623D01*
X249738D01*
X249213Y227099D01*
Y226049D01*
X249738Y225524D01*
X68307Y112337D02*
X65158D01*
Y113912D01*
X65683Y114436D01*
X66732D01*
X67257Y113912D01*
Y112337D01*
Y113387D02*
X68307Y114436D01*
Y117585D02*
Y115486D01*
X66207Y117585D01*
X65683D01*
X65158Y117060D01*
Y116011D01*
X65683Y115486D01*
Y118634D02*
X65158Y119159D01*
Y120209D01*
X65683Y120734D01*
X67782D01*
X68307Y120209D01*
Y119159D01*
X67782Y118634D01*
X65683D01*
X253947Y130142D02*
Y133291D01*
X255521D01*
X256046Y132766D01*
Y131717D01*
X255521Y131192D01*
X253947D01*
X254996D02*
X256046Y130142D01*
X257095D02*
X258145D01*
X257620D01*
Y133291D01*
X257095Y132766D01*
X259719Y130667D02*
X260244Y130142D01*
X261294D01*
X261818Y130667D01*
Y132766D01*
X261294Y133291D01*
X260244D01*
X259719Y132766D01*
Y132241D01*
X260244Y131717D01*
X261818D01*
X276447Y165142D02*
Y168291D01*
X278021D01*
X278546Y167766D01*
Y166717D01*
X278021Y166192D01*
X276447D01*
X277496D02*
X278546Y165142D01*
X279595D02*
X280645D01*
X280120D01*
Y168291D01*
X279595Y167766D01*
X282219D02*
X282744Y168291D01*
X283794D01*
X284318Y167766D01*
Y167242D01*
X283794Y166717D01*
X284318Y166192D01*
Y165667D01*
X283794Y165142D01*
X282744D01*
X282219Y165667D01*
Y166192D01*
X282744Y166717D01*
X282219Y167242D01*
Y167766D01*
X282744Y166717D02*
X283794D01*
X276447Y160042D02*
Y163191D01*
X278021D01*
X278546Y162666D01*
Y161617D01*
X278021Y161092D01*
X276447D01*
X277496D02*
X278546Y160042D01*
X279595D02*
X280645D01*
X280120D01*
Y163191D01*
X279595Y162666D01*
X282219Y163191D02*
X284318D01*
Y162666D01*
X282219Y160567D01*
Y160042D01*
X250747Y92742D02*
Y95891D01*
X252321D01*
X252846Y95366D01*
Y94317D01*
X252321Y93792D01*
X250747D01*
X251796D02*
X252846Y92742D01*
X253895D02*
X254945D01*
X254420D01*
Y95891D01*
X253895Y95366D01*
X258618Y95891D02*
X257569Y95366D01*
X256519Y94317D01*
Y93267D01*
X257044Y92742D01*
X258094D01*
X258618Y93267D01*
Y93792D01*
X258094Y94317D01*
X256519D01*
X250347Y106842D02*
Y109991D01*
X251921D01*
X252446Y109466D01*
Y108417D01*
X251921Y107892D01*
X250347D01*
X251396D02*
X252446Y106842D01*
X253495D02*
X254545D01*
X254020D01*
Y109991D01*
X253495Y109466D01*
X258218Y109991D02*
X256119D01*
Y108417D01*
X257169Y108941D01*
X257694D01*
X258218Y108417D01*
Y107367D01*
X257694Y106842D01*
X256644D01*
X256119Y107367D01*
X296852Y94686D02*
Y97834D01*
X298426D01*
X298951Y97309D01*
Y96260D01*
X298426Y95735D01*
X296852D01*
X297901D02*
X298951Y94686D01*
X300000D02*
X301050D01*
X300525D01*
Y97834D01*
X300000Y97309D01*
X302624D02*
X303149Y97834D01*
X304198D01*
X304723Y97309D01*
Y96785D01*
X304198Y96260D01*
X303674D01*
X304198D01*
X304723Y95735D01*
Y95210D01*
X304198Y94686D01*
X303149D01*
X302624Y95210D01*
X238647Y130142D02*
Y133291D01*
X240221D01*
X240746Y132766D01*
Y131717D01*
X240221Y131192D01*
X238647D01*
X239696D02*
X240746Y130142D01*
X241795D02*
X242845D01*
X242320D01*
Y133291D01*
X241795Y132766D01*
X246518Y130142D02*
X244419D01*
X246518Y132241D01*
Y132766D01*
X245994Y133291D01*
X244944D01*
X244419Y132766D01*
X248847Y130142D02*
Y133291D01*
X250421D01*
X250946Y132766D01*
Y131717D01*
X250421Y131192D01*
X248847D01*
X249896D02*
X250946Y130142D01*
X251995D02*
X253045D01*
X252520D01*
Y133291D01*
X251995Y132766D01*
X254619Y130142D02*
X255669D01*
X255144D01*
Y133291D01*
X254619Y132766D01*
X243747Y130142D02*
Y133291D01*
X245321D01*
X245846Y132766D01*
Y131717D01*
X245321Y131192D01*
X243747D01*
X244796D02*
X245846Y130142D01*
X246895D02*
X247945D01*
X247420D01*
Y133291D01*
X246895Y132766D01*
X249519D02*
X250044Y133291D01*
X251094D01*
X251618Y132766D01*
Y130667D01*
X251094Y130142D01*
X250044D01*
X249519Y130667D01*
Y132766D01*
X72834Y19817D02*
X69686D01*
Y21391D01*
X70210Y21916D01*
X71260D01*
X71785Y21391D01*
Y19817D01*
Y20867D02*
X72834Y21916D01*
X72309Y22966D02*
X72834Y23491D01*
Y24540D01*
X72309Y25065D01*
X70210D01*
X69686Y24540D01*
Y23491D01*
X70210Y22966D01*
X70735D01*
X71260Y23491D01*
Y25065D01*
X57283Y16274D02*
X54134D01*
Y17848D01*
X54659Y18373D01*
X55709D01*
X56233Y17848D01*
Y16274D01*
Y17323D02*
X57283Y18373D01*
X54659Y19422D02*
X54134Y19947D01*
Y20997D01*
X54659Y21521D01*
X55184D01*
X55709Y20997D01*
X56233Y21521D01*
X56758D01*
X57283Y20997D01*
Y19947D01*
X56758Y19422D01*
X56233D01*
X55709Y19947D01*
X55184Y19422D01*
X54659D01*
X55709Y19947D02*
Y20997D01*
X118700Y28675D02*
X115552D01*
Y30250D01*
X116076Y30775D01*
X117126D01*
X117651Y30250D01*
Y28675D01*
Y29725D02*
X118700Y30775D01*
X115552Y31824D02*
Y33923D01*
X116076D01*
X118175Y31824D01*
X118700D01*
X88385Y11943D02*
X85237D01*
Y13517D01*
X85761Y14042D01*
X86811D01*
X87336Y13517D01*
Y11943D01*
Y12993D02*
X88385Y14042D01*
X85237Y17191D02*
X85761Y16141D01*
X86811Y15092D01*
X87861D01*
X88385Y15617D01*
Y16666D01*
X87861Y17191D01*
X87336D01*
X86811Y16666D01*
Y15092D01*
X266929Y250132D02*
X263780D01*
Y251706D01*
X264305Y252231D01*
X265354D01*
X265879Y251706D01*
Y250132D01*
Y251182D02*
X266929Y252231D01*
X263780Y255380D02*
Y253281D01*
X265354D01*
X264830Y254330D01*
Y254855D01*
X265354Y255380D01*
X266404D01*
X266929Y254855D01*
Y253805D01*
X266404Y253281D01*
X279069Y237402D02*
Y240551D01*
X280643D01*
X281168Y240026D01*
Y238976D01*
X280643Y238452D01*
X279069D01*
X280119D02*
X281168Y237402D01*
X283792D02*
Y240551D01*
X282218Y238976D01*
X284317D01*
X254724Y253282D02*
X251575D01*
Y254856D01*
X252100Y255381D01*
X253150D01*
X253674Y254856D01*
Y253282D01*
Y254331D02*
X254724Y255381D01*
X252100Y256430D02*
X251575Y256955D01*
Y258005D01*
X252100Y258529D01*
X252625D01*
X253150Y258005D01*
Y257480D01*
Y258005D01*
X253674Y258529D01*
X254199D01*
X254724Y258005D01*
Y256955D01*
X254199Y256430D01*
X246195Y237599D02*
Y240747D01*
X247769D01*
X248294Y240223D01*
Y239173D01*
X247769Y238649D01*
X246195D01*
X247245D02*
X248294Y237599D01*
X251443D02*
X249344D01*
X251443Y239698D01*
Y240223D01*
X250918Y240747D01*
X249868D01*
X249344Y240223D01*
X89436Y335040D02*
Y338189D01*
X91011D01*
X91535Y337664D01*
Y336614D01*
X91011Y336089D01*
X89436D01*
X90486D02*
X91535Y335040D01*
X92585D02*
X93634D01*
X93110D01*
Y338189D01*
X92585Y337664D01*
X366995Y87139D02*
Y89239D01*
X366470Y89763D01*
X365421D01*
X364896Y89239D01*
Y87139D01*
X365421Y86615D01*
X366470D01*
X365945Y87664D02*
X366995Y86615D01*
X366470D02*
X366995Y87139D01*
X370144Y89763D02*
X368044D01*
Y88189D01*
X369094Y88714D01*
X369619D01*
X370144Y88189D01*
Y87139D01*
X369619Y86615D01*
X368569D01*
X368044Y87139D01*
X42585Y111483D02*
X40486D01*
X39961Y110958D01*
Y109909D01*
X40486Y109384D01*
X42585D01*
X43110Y109909D01*
Y110958D01*
X42060Y110434D02*
X43110Y111483D01*
Y110958D02*
X42585Y111483D01*
X43110Y114107D02*
X39961D01*
X41535Y112533D01*
Y114632D01*
X59746Y30367D02*
Y32466D01*
X59221Y32991D01*
X58172D01*
X57647Y32466D01*
Y30367D01*
X58172Y29842D01*
X59221D01*
X58696Y30892D02*
X59746Y29842D01*
X59221D02*
X59746Y30367D01*
X60795Y32466D02*
X61320Y32991D01*
X62370D01*
X62894Y32466D01*
Y31941D01*
X62370Y31417D01*
X61845D01*
X62370D01*
X62894Y30892D01*
Y30367D01*
X62370Y29842D01*
X61320D01*
X60795Y30367D01*
X268963Y243439D02*
Y245538D01*
X268439Y246062D01*
X267389D01*
X266864Y245538D01*
Y243439D01*
X267389Y242914D01*
X268439D01*
X267914Y243963D02*
X268963Y242914D01*
X268439D02*
X268963Y243439D01*
X272112Y242914D02*
X270013D01*
X272112Y245013D01*
Y245538D01*
X271587Y246062D01*
X270538D01*
X270013Y245538D01*
X240354Y245801D02*
Y247900D01*
X239830Y248425D01*
X238780D01*
X238255Y247900D01*
Y245801D01*
X238780Y245276D01*
X239830D01*
X239305Y246326D02*
X240354Y245276D01*
X239830D02*
X240354Y245801D01*
X241404Y245276D02*
X242453D01*
X241929D01*
Y248425D01*
X241404Y247900D01*
X114247Y125091D02*
Y121942D01*
X116346D01*
X117395D02*
X118445D01*
X117920D01*
Y125091D01*
X117395Y124566D01*
X297113Y58661D02*
X296063D01*
X296588D01*
Y56037D01*
X296063Y55512D01*
X295539D01*
X295014Y56037D01*
X298163Y58136D02*
X298687Y58661D01*
X299737D01*
X300262Y58136D01*
Y57611D01*
X299737Y57087D01*
X300262Y56562D01*
Y56037D01*
X299737Y55512D01*
X298687D01*
X298163Y56037D01*
Y56562D01*
X298687Y57087D01*
X298163Y57611D01*
Y58136D01*
X298687Y57087D02*
X299737D01*
X266546Y239291D02*
X265496D01*
X266021D01*
Y236667D01*
X265496Y236142D01*
X264972D01*
X264447Y236667D01*
X267595Y239291D02*
X269694D01*
Y238766D01*
X267595Y236667D01*
Y236142D01*
X253215Y370078D02*
X252166D01*
X252691D01*
Y367454D01*
X252166Y366930D01*
X251641D01*
X251116Y367454D01*
X256364Y370078D02*
X255314Y369553D01*
X254265Y368504D01*
Y367454D01*
X254790Y366930D01*
X255839D01*
X256364Y367454D01*
Y367979D01*
X255839Y368504D01*
X254265D01*
X193767Y370275D02*
X192717D01*
X193242D01*
Y367651D01*
X192717Y367126D01*
X192192D01*
X191667Y367651D01*
X196915Y370275D02*
X194816D01*
Y368701D01*
X195866Y369226D01*
X196390D01*
X196915Y368701D01*
Y367651D01*
X196390Y367126D01*
X195341D01*
X194816Y367651D01*
X129003Y74999D02*
X127953D01*
X128478D01*
Y72376D01*
X127953Y71851D01*
X127428D01*
X126904Y72376D01*
X131627Y71851D02*
Y74999D01*
X130052Y73425D01*
X132151D01*
X197246Y27491D02*
X196196D01*
X196721D01*
Y24867D01*
X196196Y24342D01*
X195672D01*
X195147Y24867D01*
X198295Y26966D02*
X198820Y27491D01*
X199870D01*
X200395Y26966D01*
Y26441D01*
X199870Y25917D01*
X199345D01*
X199870D01*
X200395Y25392D01*
Y24867D01*
X199870Y24342D01*
X198820D01*
X198295Y24867D01*
X35040Y341798D02*
Y340749D01*
Y341273D01*
X37664D01*
X38188Y340749D01*
Y340224D01*
X37664Y339699D01*
X38188Y344947D02*
Y342848D01*
X36089Y344947D01*
X35565D01*
X35040Y344422D01*
Y343372D01*
X35565Y342848D01*
X42717Y221456D02*
X41667D01*
X42192D01*
Y218832D01*
X41667Y218308D01*
X41142D01*
X40617Y218832D01*
X43766Y218308D02*
X44816D01*
X44291D01*
Y221456D01*
X43766Y220931D01*
X76378Y215354D02*
X74279D01*
Y213779D01*
X75328D01*
X74279D01*
Y212205D01*
X77428D02*
X78477D01*
X77952D01*
Y215354D01*
X77428Y214829D01*
X355250Y111417D02*
Y108268D01*
X356824D01*
X357349Y108793D01*
Y110892D01*
X356824Y111417D01*
X355250D01*
X358399Y110892D02*
X358924Y111417D01*
X359973D01*
X360498Y110892D01*
Y110367D01*
X359973Y109843D01*
X360498Y109318D01*
Y108793D01*
X359973Y108268D01*
X358924D01*
X358399Y108793D01*
Y109318D01*
X358924Y109843D01*
X358399Y110367D01*
Y110892D01*
X358924Y109843D02*
X359973D01*
X172441Y132809D02*
X175590D01*
Y134383D01*
X175065Y134908D01*
X172966D01*
X172441Y134383D01*
Y132809D01*
Y138057D02*
X172966Y137007D01*
X174016Y135958D01*
X175065D01*
X175590Y136483D01*
Y137532D01*
X175065Y138057D01*
X174540D01*
X174016Y137532D01*
Y135958D01*
X222441Y45211D02*
X225590D01*
Y46785D01*
X225065Y47310D01*
X222966D01*
X222441Y46785D01*
Y45211D01*
Y50459D02*
Y48359D01*
X224016D01*
X223491Y49409D01*
Y49934D01*
X224016Y50459D01*
X225065D01*
X225590Y49934D01*
Y48884D01*
X225065Y48359D01*
X75947Y127991D02*
Y124842D01*
X77521D01*
X78046Y125367D01*
Y127466D01*
X77521Y127991D01*
X75947D01*
X80670Y124842D02*
Y127991D01*
X79095Y126417D01*
X81195D01*
X283006Y254330D02*
Y251182D01*
X284580D01*
X285105Y251706D01*
Y253805D01*
X284580Y254330D01*
X283006D01*
X286155Y253805D02*
X286680Y254330D01*
X287729D01*
X288254Y253805D01*
Y253281D01*
X287729Y252756D01*
X287204D01*
X287729D01*
X288254Y252231D01*
Y251706D01*
X287729Y251182D01*
X286680D01*
X286155Y251706D01*
X219423Y255118D02*
Y251969D01*
X220998D01*
X221522Y252494D01*
Y254593D01*
X220998Y255118D01*
X219423D01*
X224671Y251969D02*
X222572D01*
X224671Y254068D01*
Y254593D01*
X224146Y255118D01*
X223097D01*
X222572Y254593D01*
X204594Y151246D02*
X204069Y151771D01*
X203020D01*
X202495Y151246D01*
Y149147D01*
X203020Y148623D01*
X204069D01*
X204594Y149147D01*
X205643Y151246D02*
X206168Y151771D01*
X207218D01*
X207742Y151246D01*
Y150722D01*
X207218Y150197D01*
X206693D01*
X207218D01*
X207742Y149672D01*
Y149147D01*
X207218Y148623D01*
X206168D01*
X205643Y149147D01*
X210891Y148623D02*
X208792D01*
X210891Y150722D01*
Y151246D01*
X210366Y151771D01*
X209317D01*
X208792Y151246D01*
X225919Y141733D02*
X225394Y141208D01*
Y140158D01*
X225919Y139634D01*
X228018D01*
X228543Y140158D01*
Y141208D01*
X228018Y141733D01*
X225919Y142782D02*
X225394Y143307D01*
Y144357D01*
X225919Y144881D01*
X226444D01*
X226969Y144357D01*
Y143832D01*
Y144357D01*
X227493Y144881D01*
X228018D01*
X228543Y144357D01*
Y143307D01*
X228018Y142782D01*
X228543Y145931D02*
Y146980D01*
Y146456D01*
X225394D01*
X225919Y145931D01*
X278446Y147266D02*
X277921Y147791D01*
X276872D01*
X276347Y147266D01*
Y145167D01*
X276872Y144642D01*
X277921D01*
X278446Y145167D01*
X279495Y147266D02*
X280020Y147791D01*
X281070D01*
X281594Y147266D01*
Y146741D01*
X281070Y146217D01*
X280545D01*
X281070D01*
X281594Y145692D01*
Y145167D01*
X281070Y144642D01*
X280020D01*
X279495Y145167D01*
X282644Y147266D02*
X283169Y147791D01*
X284218D01*
X284743Y147266D01*
Y145167D01*
X284218Y144642D01*
X283169D01*
X282644Y145167D01*
Y147266D01*
X276246Y174566D02*
X275721Y175091D01*
X274672D01*
X274147Y174566D01*
Y172467D01*
X274672Y171942D01*
X275721D01*
X276246Y172467D01*
X279395Y171942D02*
X277295D01*
X279395Y174041D01*
Y174566D01*
X278870Y175091D01*
X277820D01*
X277295Y174566D01*
X280444Y172467D02*
X280969Y171942D01*
X282018D01*
X282543Y172467D01*
Y174566D01*
X282018Y175091D01*
X280969D01*
X280444Y174566D01*
Y174041D01*
X280969Y173517D01*
X282543D01*
X233334Y189632D02*
X232809Y190157D01*
X231760D01*
X231235Y189632D01*
Y187533D01*
X231760Y187008D01*
X232809D01*
X233334Y187533D01*
X236483Y187008D02*
X234384D01*
X236483Y189107D01*
Y189632D01*
X235958Y190157D01*
X234908D01*
X234384Y189632D01*
X237532D02*
X238057Y190157D01*
X239106D01*
X239631Y189632D01*
Y189107D01*
X239106Y188583D01*
X239631Y188058D01*
Y187533D01*
X239106Y187008D01*
X238057D01*
X237532Y187533D01*
Y188058D01*
X238057Y188583D01*
X237532Y189107D01*
Y189632D01*
X238057Y188583D02*
X239106D01*
X226903Y188255D02*
X226378Y187731D01*
Y186681D01*
X226903Y186156D01*
X229002D01*
X229527Y186681D01*
Y187731D01*
X229002Y188255D01*
X229527Y191404D02*
Y189305D01*
X227428Y191404D01*
X226903D01*
X226378Y190879D01*
Y189830D01*
X226903Y189305D01*
X226378Y192453D02*
Y194553D01*
X226903D01*
X229002Y192453D01*
X229527D01*
X216667Y188846D02*
X216142Y188321D01*
Y187271D01*
X216667Y186747D01*
X218766D01*
X219291Y187271D01*
Y188321D01*
X218766Y188846D01*
X219291Y191994D02*
Y189895D01*
X217192Y191994D01*
X216667D01*
X216142Y191470D01*
Y190420D01*
X216667Y189895D01*
X216142Y195143D02*
X216667Y194094D01*
X217717Y193044D01*
X218766D01*
X219291Y193569D01*
Y194618D01*
X218766Y195143D01*
X218241D01*
X217717Y194618D01*
Y193044D01*
X190618Y157743D02*
X190093Y158267D01*
X189043D01*
X188518Y157743D01*
Y155643D01*
X189043Y155119D01*
X190093D01*
X190618Y155643D01*
X193766Y155119D02*
X191667D01*
X193766Y157218D01*
Y157743D01*
X193241Y158267D01*
X192192D01*
X191667Y157743D01*
X196915Y158267D02*
X194816D01*
Y156693D01*
X195865Y157218D01*
X196390D01*
X196915Y156693D01*
Y155643D01*
X196390Y155119D01*
X195340D01*
X194816Y155643D01*
X50328Y136287D02*
X49804Y135762D01*
Y134713D01*
X50328Y134188D01*
X52428D01*
X52952Y134713D01*
Y135762D01*
X52428Y136287D01*
X52952Y139435D02*
Y137336D01*
X50853Y139435D01*
X50328D01*
X49804Y138911D01*
Y137861D01*
X50328Y137336D01*
X52952Y142059D02*
X49804D01*
X51378Y140485D01*
Y142584D01*
X203482Y178785D02*
X202740D01*
X201998Y178043D01*
X201998Y177301D01*
X203482Y175817D01*
X204224D01*
X204966Y176559D01*
X204966Y177301D01*
X207564Y179156D02*
X206080Y177672D01*
Y180641D01*
X205709Y181012D01*
X204966D01*
X204224Y180270D01*
X204224Y179528D01*
X206451Y181754D02*
X206451Y182496D01*
X207193Y183238D01*
X207935D01*
X208306Y182867D01*
Y182125D01*
X207935Y181754D01*
X208306Y182125D01*
X209048Y182125D01*
X209419Y181754D01*
X209419Y181012D01*
X208677Y180270D01*
X207935D01*
X295013Y119358D02*
X294489Y118833D01*
Y117783D01*
X295013Y117259D01*
X297112D01*
X297637Y117783D01*
Y118833D01*
X297112Y119358D01*
X297637Y122506D02*
Y120407D01*
X295538Y122506D01*
X295013D01*
X294489Y121982D01*
Y120932D01*
X295013Y120407D01*
X297637Y125655D02*
Y123556D01*
X295538Y125655D01*
X295013D01*
X294489Y125130D01*
Y124081D01*
X295013Y123556D01*
X305643Y117520D02*
X305119Y116995D01*
Y115946D01*
X305643Y115421D01*
X307742D01*
X308267Y115946D01*
Y116995D01*
X307742Y117520D01*
X308267Y120669D02*
Y118570D01*
X306168Y120669D01*
X305643D01*
X305119Y120144D01*
Y119095D01*
X305643Y118570D01*
X308267Y121718D02*
Y122768D01*
Y122243D01*
X305119D01*
X305643Y121718D01*
X229546Y124566D02*
X229021Y125091D01*
X227972D01*
X227447Y124566D01*
Y122467D01*
X227972Y121942D01*
X229021D01*
X229546Y122467D01*
X232695Y121942D02*
X230595D01*
X232695Y124041D01*
Y124566D01*
X232170Y125091D01*
X231120D01*
X230595Y124566D01*
X233744D02*
X234269Y125091D01*
X235318D01*
X235843Y124566D01*
Y122467D01*
X235318Y121942D01*
X234269D01*
X233744Y122467D01*
Y124566D01*
X224146Y124666D02*
X223621Y125191D01*
X222572D01*
X222047Y124666D01*
Y122567D01*
X222572Y122042D01*
X223621D01*
X224146Y122567D01*
X225195Y122042D02*
X226245D01*
X225720D01*
Y125191D01*
X225195Y124666D01*
X227819Y122567D02*
X228344Y122042D01*
X229394D01*
X229918Y122567D01*
Y124666D01*
X229394Y125191D01*
X228344D01*
X227819Y124666D01*
Y124142D01*
X228344Y123617D01*
X229918D01*
X154069Y121128D02*
X153544Y121653D01*
X152495D01*
X151970Y121128D01*
Y119029D01*
X152495Y118504D01*
X153544D01*
X154069Y119029D01*
X155118Y118504D02*
X156168D01*
X155643D01*
Y121653D01*
X155118Y121128D01*
X157742D02*
X158267Y121653D01*
X159317D01*
X159841Y121128D01*
Y120604D01*
X159317Y120079D01*
X159841Y119554D01*
Y119029D01*
X159317Y118504D01*
X158267D01*
X157742Y119029D01*
Y119554D01*
X158267Y120079D01*
X157742Y120604D01*
Y121128D01*
X158267Y120079D02*
X159317D01*
X41077Y29593D02*
X40552Y30118D01*
X39502D01*
X38978Y29593D01*
Y27494D01*
X39502Y26969D01*
X40552D01*
X41077Y27494D01*
X42126Y26969D02*
X43176D01*
X42651D01*
Y30118D01*
X42126Y29593D01*
X44750Y30118D02*
X46849D01*
Y29593D01*
X44750Y27494D01*
Y26969D01*
X30644Y18176D02*
X30119Y18700D01*
X29069D01*
X28545Y18176D01*
Y16077D01*
X29069Y15552D01*
X30119D01*
X30644Y16077D01*
X31693Y15552D02*
X32743D01*
X32218D01*
Y18700D01*
X31693Y18176D01*
X36416Y18700D02*
X35366Y18176D01*
X34317Y17126D01*
Y16077D01*
X34842Y15552D01*
X35891D01*
X36416Y16077D01*
Y16601D01*
X35891Y17126D01*
X34317D01*
X40880Y6561D02*
X40355Y7086D01*
X39306D01*
X38781Y6561D01*
Y4462D01*
X39306Y3937D01*
X40355D01*
X40880Y4462D01*
X41929Y3937D02*
X42979D01*
X42454D01*
Y7086D01*
X41929Y6561D01*
X46652Y7086D02*
X44553D01*
Y5512D01*
X45603Y6037D01*
X46128D01*
X46652Y5512D01*
Y4462D01*
X46128Y3937D01*
X45078D01*
X44553Y4462D01*
X187533Y170014D02*
X187008Y169489D01*
Y168439D01*
X187533Y167915D01*
X189632D01*
X190157Y168439D01*
Y169489D01*
X189632Y170014D01*
X190157Y171063D02*
Y172113D01*
Y171588D01*
X187008D01*
X187533Y171063D01*
X190157Y175261D02*
X187008D01*
X188583Y173687D01*
Y175786D01*
X157809Y144160D02*
X157284Y144685D01*
X156235D01*
X155710Y144160D01*
Y142061D01*
X156235Y141536D01*
X157284D01*
X157809Y142061D01*
X158859Y141536D02*
X159908D01*
X159383D01*
Y144685D01*
X158859Y144160D01*
X161482D02*
X162007Y144685D01*
X163057D01*
X163581Y144160D01*
Y143635D01*
X163057Y143110D01*
X162532D01*
X163057D01*
X163581Y142586D01*
Y142061D01*
X163057Y141536D01*
X162007D01*
X161482Y142061D01*
X140092Y161352D02*
X139567Y160828D01*
Y159778D01*
X140092Y159253D01*
X142191D01*
X142716Y159778D01*
Y160828D01*
X142191Y161352D01*
X142716Y162402D02*
Y163451D01*
Y162927D01*
X139567D01*
X140092Y162402D01*
X142716Y167125D02*
Y165026D01*
X140617Y167125D01*
X140092D01*
X139567Y166600D01*
Y165550D01*
X140092Y165026D01*
X133546Y185366D02*
X133021Y185891D01*
X131972D01*
X131447Y185366D01*
Y183267D01*
X131972Y182742D01*
X133021D01*
X133546Y183267D01*
X134595Y182742D02*
X135645D01*
X135120D01*
Y185891D01*
X134595Y185366D01*
X137219Y182742D02*
X138269D01*
X137744D01*
Y185891D01*
X137219Y185366D01*
X283990Y51116D02*
X283465Y50591D01*
Y49542D01*
X283990Y49017D01*
X286089D01*
X286614Y49542D01*
Y50591D01*
X286089Y51116D01*
X286614Y52166D02*
Y53215D01*
Y52690D01*
X283465D01*
X283990Y52166D01*
Y54789D02*
X283465Y55314D01*
Y56364D01*
X283990Y56889D01*
X286089D01*
X286614Y56364D01*
Y55314D01*
X286089Y54789D01*
X283990D01*
X275722Y51116D02*
X275197Y50591D01*
Y49542D01*
X275722Y49017D01*
X277821D01*
X278346Y49542D01*
Y50591D01*
X277821Y51116D01*
Y52166D02*
X278346Y52690D01*
Y53740D01*
X277821Y54265D01*
X275722D01*
X275197Y53740D01*
Y52690D01*
X275722Y52166D01*
X276247D01*
X276772Y52690D01*
Y54265D01*
X266470Y51116D02*
X265945Y50591D01*
Y49542D01*
X266470Y49017D01*
X268569D01*
X269094Y49542D01*
Y50591D01*
X268569Y51116D01*
X266470Y52166D02*
X265945Y52690D01*
Y53740D01*
X266470Y54265D01*
X266995D01*
X267520Y53740D01*
X268044Y54265D01*
X268569D01*
X269094Y53740D01*
Y52690D01*
X268569Y52166D01*
X268044D01*
X267520Y52690D01*
X266995Y52166D01*
X266470D01*
X267520Y52690D02*
Y53740D01*
X235761Y35696D02*
X235237Y35171D01*
Y34121D01*
X235761Y33597D01*
X237860D01*
X238385Y34121D01*
Y35171D01*
X237860Y35696D01*
X235237Y36745D02*
Y38844D01*
X235761D01*
X237860Y36745D01*
X238385D01*
X94346Y184066D02*
X93821Y184591D01*
X92772D01*
X92247Y184066D01*
Y181967D01*
X92772Y181442D01*
X93821D01*
X94346Y181967D01*
X97495Y184591D02*
X96445Y184066D01*
X95395Y183017D01*
Y181967D01*
X95920Y181442D01*
X96970D01*
X97495Y181967D01*
Y182492D01*
X96970Y183017D01*
X95395D01*
X118246Y132266D02*
X117721Y132791D01*
X116672D01*
X116147Y132266D01*
Y130167D01*
X116672Y129642D01*
X117721D01*
X118246Y130167D01*
X121395Y132791D02*
X119295D01*
Y131217D01*
X120345Y131741D01*
X120870D01*
X121395Y131217D01*
Y130167D01*
X120870Y129642D01*
X119820D01*
X119295Y130167D01*
X76116Y134908D02*
X75591Y134383D01*
Y133334D01*
X76116Y132809D01*
X78215D01*
X78740Y133334D01*
Y134383D01*
X78215Y134908D01*
X78740Y137532D02*
X75591D01*
X77165Y135958D01*
Y138057D01*
X94423Y134712D02*
X93898Y134187D01*
Y133137D01*
X94423Y132612D01*
X96522D01*
X97047Y133137D01*
Y134187D01*
X96522Y134712D01*
X94423Y135761D02*
X93898Y136286D01*
Y137335D01*
X94423Y137860D01*
X94948D01*
X95472Y137335D01*
Y136811D01*
Y137335D01*
X95997Y137860D01*
X96522D01*
X97047Y137335D01*
Y136286D01*
X96522Y135761D01*
X5971Y318176D02*
X5446Y318700D01*
X4397D01*
X3872Y318176D01*
Y316076D01*
X4397Y315552D01*
X5446D01*
X5971Y316076D01*
X9120Y315552D02*
X7021D01*
X9120Y317651D01*
Y318176D01*
X8595Y318700D01*
X7546D01*
X7021Y318176D01*
X5906Y275459D02*
X5381Y275984D01*
X4331D01*
X3807Y275459D01*
Y273360D01*
X4331Y272835D01*
X5381D01*
X5906Y273360D01*
X6955Y272835D02*
X8005D01*
X7480D01*
Y275984D01*
X6955Y275459D01*
X5347Y149991D02*
Y146842D01*
X6921D01*
X7446Y147367D01*
Y147892D01*
X6921Y148417D01*
X5347D01*
X6921D01*
X7446Y148942D01*
Y149466D01*
X6921Y149991D01*
X5347D01*
X8495D02*
X10594D01*
Y149466D01*
X8495Y147367D01*
Y146842D01*
X10594D01*
X11644D02*
X12694D01*
X12169D01*
Y149991D01*
X11644Y149466D01*
X94347Y219291D02*
Y216142D01*
X95921D01*
X96446Y216667D01*
Y217192D01*
X95921Y217717D01*
X94347D01*
X95921D01*
X96446Y218241D01*
Y218766D01*
X95921Y219291D01*
X94347D01*
X97495Y216142D02*
Y219291D01*
X99070D01*
X99594Y218766D01*
Y217717D01*
X99070Y217192D01*
X97495D01*
X98545D02*
X99594Y216142D01*
X100644D02*
X101694D01*
X101169D01*
Y219291D01*
X100644Y218766D01*
D19*
X219326Y258414D02*
D03*
X287750Y258180D02*
D03*
D20*
X224050Y38335D02*
D03*
X168810Y133282D02*
D03*
D21*
X75283Y192210D02*
D03*
D22*
X86417Y114173D02*
D03*
M02*
