G04*
G04 #@! TF.GenerationSoftware,Altium Limited,Altium Designer,20.0.10 (225)*
G04*
G04 Layer_Color=8421504*
%FSLAX25Y25*%
%MOIN*%
G70*
G01*
G75*
%ADD23R,0.04543X0.04543*%
%ADD24R,0.04543X0.04543*%
%ADD25R,0.04543X0.06906*%
%ADD26R,0.06906X0.04543*%
%ADD27R,0.07299X0.07299*%
%ADD28R,0.08874X0.05724*%
%ADD29R,0.03756X0.06118*%
%ADD30R,0.12811X0.08874*%
%ADD31R,0.09268X0.07299*%
%ADD32R,0.02575X0.06315*%
%ADD33R,0.08480X0.08087*%
%ADD34R,0.03323X0.05764*%
%ADD35R,0.04800X0.04100*%
%ADD36R,0.04100X0.04800*%
%ADD37R,0.06118X0.14386*%
%ADD38R,0.04937X0.04150*%
%ADD39R,0.03756X0.06906*%
%ADD40R,0.06984X0.05724*%
%ADD41R,0.06118X0.03756*%
G04:AMPARAMS|DCode=42|XSize=41mil|YSize=48mil|CornerRadius=0mil|HoleSize=0mil|Usage=FLASHONLY|Rotation=135.000|XOffset=0mil|YOffset=0mil|HoleType=Round|Shape=Rectangle|*
%AMROTATEDRECTD42*
4,1,4,0.03147,0.00248,-0.00248,-0.03147,-0.03147,-0.00248,0.00248,0.03147,0.03147,0.00248,0.0*
%
%ADD42ROTATEDRECTD42*%

%ADD43R,0.05331X0.04150*%
%ADD44R,0.13992X0.05724*%
%ADD45R,0.05724X0.07299*%
%ADD46R,0.05724X0.02181*%
%ADD47R,0.02181X0.05724*%
%ADD48R,0.05134X0.03165*%
%ADD49R,0.03165X0.05134*%
G04:AMPARAMS|DCode=50|XSize=51.34mil|YSize=31.65mil|CornerRadius=0mil|HoleSize=0mil|Usage=FLASHONLY|Rotation=110.000|XOffset=0mil|YOffset=0mil|HoleType=Round|Shape=Rectangle|*
%AMROTATEDRECTD50*
4,1,4,0.02365,-0.01871,-0.00609,-0.02953,-0.02365,0.01871,0.00609,0.02953,0.02365,-0.01871,0.0*
%
%ADD50ROTATEDRECTD50*%

%ADD51R,0.06906X0.02969*%
%ADD52R,0.04937X0.02969*%
%ADD53R,0.18323X0.13992*%
%ADD54R,0.25410X0.16354*%
%ADD55R,0.13992X0.18323*%
%ADD56R,0.16354X0.25410*%
%ADD57R,0.09858X0.09347*%
G04:AMPARAMS|DCode=58|XSize=72.99mil|YSize=59.21mil|CornerRadius=0mil|HoleSize=0mil|Usage=FLASHONLY|Rotation=225.000|XOffset=0mil|YOffset=0mil|HoleType=Round|Shape=Rectangle|*
%AMROTATEDRECTD58*
4,1,4,0.00487,0.04674,0.04674,0.00487,-0.00487,-0.04674,-0.04674,-0.00487,0.00487,0.04674,0.0*
%
%ADD58ROTATEDRECTD58*%

D23*
X66879Y70255D02*
D03*
X72391D02*
D03*
X66879Y64744D02*
D03*
X72391D02*
D03*
X66879Y59232D02*
D03*
X72391D02*
D03*
X61367Y70255D02*
D03*
X66879D02*
D03*
X61367Y64744D02*
D03*
X66879D02*
D03*
X61367Y59232D02*
D03*
X66879D02*
D03*
D24*
Y70255D02*
D03*
Y64744D02*
D03*
Y59232D02*
D03*
X61367Y70255D02*
D03*
Y64744D02*
D03*
Y59232D02*
D03*
D25*
X41389Y104785D02*
D03*
X46389D02*
D03*
X51389D02*
D03*
X56389D02*
D03*
X61389D02*
D03*
X66389D02*
D03*
X71389D02*
D03*
X76389D02*
D03*
X81389D02*
D03*
X86389D02*
D03*
X91389D02*
D03*
X96389D02*
D03*
X101389D02*
D03*
X106389D02*
D03*
X41661Y36198D02*
D03*
X46661D02*
D03*
X51661D02*
D03*
X56661D02*
D03*
X61661D02*
D03*
X66661D02*
D03*
X71661D02*
D03*
X76661D02*
D03*
X81661D02*
D03*
X86661D02*
D03*
X91661D02*
D03*
X96661D02*
D03*
X101661D02*
D03*
X106661D02*
D03*
D26*
X111188Y93092D02*
D03*
Y88092D02*
D03*
Y83092D02*
D03*
Y78092D02*
D03*
Y73092D02*
D03*
Y68092D02*
D03*
Y63092D02*
D03*
Y58092D02*
D03*
Y53092D02*
D03*
Y48092D02*
D03*
D03*
D27*
X68713Y207090D02*
D03*
X82887D02*
D03*
D28*
X268309Y186813D02*
D03*
Y196813D02*
D03*
Y206813D02*
D03*
Y216813D02*
D03*
Y226813D02*
D03*
D29*
X353965Y103902D02*
D03*
X361445D02*
D03*
X161296Y148950D02*
D03*
X168777D02*
D03*
X46294Y10383D02*
D03*
X38814D02*
D03*
X46294Y17075D02*
D03*
X38814D02*
D03*
X239478Y183506D02*
D03*
X231998D02*
D03*
X275428Y166288D02*
D03*
X282908D02*
D03*
X277676Y139020D02*
D03*
X285156D02*
D03*
X202843Y144837D02*
D03*
X210324D02*
D03*
D30*
X98066Y164320D02*
D03*
X121688D02*
D03*
D31*
X202003Y17764D02*
D03*
X226412D02*
D03*
D32*
X219326Y18257D02*
D03*
X209089D02*
D03*
X211648D02*
D03*
X214208D02*
D03*
X216767D02*
D03*
D33*
X199247Y7036D02*
D03*
X229168D02*
D03*
D34*
X216767Y41308D02*
D03*
X213026D02*
D03*
X209286D02*
D03*
Y31426D02*
D03*
X213026D02*
D03*
X216767D02*
D03*
D35*
X245696Y243881D02*
D03*
X251996D02*
D03*
X278266Y243484D02*
D03*
X284566D02*
D03*
X304198Y100728D02*
D03*
X297898D02*
D03*
X284680Y155264D02*
D03*
X278380D02*
D03*
X284680Y160383D02*
D03*
X278380D02*
D03*
X285468Y146209D02*
D03*
X279168D02*
D03*
X354727Y96321D02*
D03*
X361027D02*
D03*
X360658Y74375D02*
D03*
X354358D02*
D03*
X209932Y137092D02*
D03*
X203632D02*
D03*
X124410Y124803D02*
D03*
X118110D02*
D03*
X46246Y23832D02*
D03*
X39946D02*
D03*
X189798Y152115D02*
D03*
X196098D02*
D03*
D36*
X248853Y258611D02*
D03*
Y252311D02*
D03*
X260859Y250127D02*
D03*
Y256427D02*
D03*
X82220Y10553D02*
D03*
Y16853D02*
D03*
X121688Y26130D02*
D03*
Y32430D02*
D03*
X51609Y22981D02*
D03*
Y16681D02*
D03*
X75402Y17532D02*
D03*
Y23832D02*
D03*
X245310Y124950D02*
D03*
Y118650D02*
D03*
X250428Y124950D02*
D03*
Y118650D02*
D03*
X240192Y124950D02*
D03*
Y118650D02*
D03*
X251888Y101722D02*
D03*
Y95421D02*
D03*
X252282Y81248D02*
D03*
Y87548D02*
D03*
X255546Y118650D02*
D03*
Y124950D02*
D03*
X61452Y112744D02*
D03*
Y119044D02*
D03*
X246264Y220474D02*
D03*
Y226774D02*
D03*
X223635Y110570D02*
D03*
Y116870D02*
D03*
X296476Y113303D02*
D03*
Y107003D02*
D03*
X46688Y141742D02*
D03*
Y135442D02*
D03*
D37*
X116732Y112205D02*
D03*
X125000D02*
D03*
D38*
X92080Y14064D02*
D03*
X120741D02*
D03*
X120820Y5796D02*
D03*
X92080D02*
D03*
D39*
X115308Y16820D02*
D03*
X109402D02*
D03*
X97591D02*
D03*
D40*
X97240Y206910D02*
D03*
Y186359D02*
D03*
X131649Y206910D02*
D03*
Y186359D02*
D03*
D41*
X90517Y139026D02*
D03*
Y131546D02*
D03*
X81855Y139026D02*
D03*
Y131546D02*
D03*
X230743Y38926D02*
D03*
Y31446D02*
D03*
X269176Y46875D02*
D03*
Y39395D02*
D03*
X277837Y46875D02*
D03*
Y39395D02*
D03*
X285318Y46875D02*
D03*
Y39395D02*
D03*
X133893Y178296D02*
D03*
Y170816D02*
D03*
X141373Y178296D02*
D03*
Y170816D02*
D03*
X183308Y168645D02*
D03*
Y176125D02*
D03*
X229935Y109980D02*
D03*
Y117460D02*
D03*
X303413Y113827D02*
D03*
Y106346D02*
D03*
X212502Y186916D02*
D03*
Y194396D02*
D03*
X222807Y186887D02*
D03*
Y194368D02*
D03*
X221854Y146752D02*
D03*
Y139272D02*
D03*
D42*
X206898Y173931D02*
D03*
X211353Y178386D02*
D03*
D43*
X234896Y255141D02*
D03*
X242337Y258881D02*
D03*
Y251401D02*
D03*
X274816Y252883D02*
D03*
X267375Y249143D02*
D03*
Y256623D02*
D03*
X59700Y21012D02*
D03*
X67141Y24753D02*
D03*
Y17272D02*
D03*
X46314Y115894D02*
D03*
X53755Y119634D02*
D03*
Y112154D02*
D03*
X353788Y84611D02*
D03*
X361229Y88351D02*
D03*
Y80871D02*
D03*
D44*
X160074Y184005D02*
D03*
D45*
Y158808D02*
D03*
X169129D02*
D03*
X150625D02*
D03*
D46*
X233696Y166485D02*
D03*
Y164516D02*
D03*
Y162548D02*
D03*
Y160579D02*
D03*
Y158611D02*
D03*
Y156642D02*
D03*
Y154674D02*
D03*
Y152705D02*
D03*
Y150737D02*
D03*
Y148768D02*
D03*
Y146800D02*
D03*
Y144831D02*
D03*
X267160D02*
D03*
Y146800D02*
D03*
Y148768D02*
D03*
Y150737D02*
D03*
Y152705D02*
D03*
Y154674D02*
D03*
Y156642D02*
D03*
Y158611D02*
D03*
Y160579D02*
D03*
Y162548D02*
D03*
Y164516D02*
D03*
Y166485D02*
D03*
D47*
X261255Y172390D02*
D03*
X259286D02*
D03*
X257318D02*
D03*
X255349D02*
D03*
X253381D02*
D03*
X251412D02*
D03*
X249444D02*
D03*
X247475D02*
D03*
X245507D02*
D03*
X243538D02*
D03*
X241570D02*
D03*
D03*
X239601D02*
D03*
Y138926D02*
D03*
X241570D02*
D03*
X243538D02*
D03*
X245507D02*
D03*
X247475D02*
D03*
X249444D02*
D03*
X251412D02*
D03*
X253381D02*
D03*
X255349D02*
D03*
X257318D02*
D03*
X259286D02*
D03*
X261255D02*
D03*
D48*
X227200Y258414D02*
D03*
X216176D02*
D03*
X279876Y258180D02*
D03*
X290900D02*
D03*
D49*
X224050Y30461D02*
D03*
Y41485D02*
D03*
X168810Y141156D02*
D03*
Y130132D02*
D03*
D50*
X72590Y199609D02*
D03*
X76360Y189250D02*
D03*
D51*
X110467Y130442D02*
D03*
Y135442D02*
D03*
Y140442D02*
D03*
Y145442D02*
D03*
X132121D02*
D03*
Y140442D02*
D03*
Y135442D02*
D03*
Y130442D02*
D03*
X241963Y101741D02*
D03*
Y96741D02*
D03*
Y91741D02*
D03*
Y86741D02*
D03*
X220310D02*
D03*
Y91741D02*
D03*
Y96741D02*
D03*
Y101741D02*
D03*
X288647Y113740D02*
D03*
Y108740D02*
D03*
Y103740D02*
D03*
Y98740D02*
D03*
X266993D02*
D03*
Y103740D02*
D03*
Y108740D02*
D03*
Y113740D02*
D03*
D52*
X203366Y96936D02*
D03*
Y101267D02*
D03*
D53*
X62239Y181642D02*
D03*
D54*
X27003Y158808D02*
D03*
Y209595D02*
D03*
D55*
X161845Y62942D02*
D03*
D56*
X184680Y27705D02*
D03*
X133893D02*
D03*
D57*
X97579Y113779D02*
D03*
X80374D02*
D03*
D58*
X222899Y167124D02*
D03*
X212599Y156824D02*
D03*
X216775Y173249D02*
D03*
X206474Y162949D02*
D03*
M02*
