G04*
G04 #@! TF.GenerationSoftware,Altium Limited,Altium Designer,20.0.10 (225)*
G04*
G04 Layer_Physical_Order=4*
G04 Layer_Color=16711680*
%FSLAX25Y25*%
%MOIN*%
G70*
G01*
G75*
%ADD12C,0.01000*%
%ADD88R,0.04331X0.02362*%
%ADD95C,0.08268*%
%ADD108C,0.02362*%
%ADD109C,0.01100*%
%ADD116R,0.02756X0.05118*%
%ADD122R,0.03800X0.03100*%
%ADD123R,0.03100X0.03800*%
%ADD128R,0.05118X0.02756*%
%ADD146C,0.02000*%
%ADD147C,0.07000*%
%ADD149C,0.01500*%
%ADD150C,0.00800*%
%ADD152C,0.03000*%
%ADD153C,0.01473*%
%ADD155C,0.02200*%
%ADD156C,0.07874*%
%ADD157C,0.00787*%
%ADD158C,0.03937*%
%ADD159C,0.11811*%
%ADD160O,0.06693X0.04724*%
%ADD161O,0.07874X0.15748*%
%ADD162O,0.15748X0.07874*%
%ADD163O,0.07087X0.14173*%
%ADD164O,0.14173X0.07087*%
%ADD165C,0.01772*%
%ADD166C,0.01968*%
%ADD206R,0.03543X0.06299*%
%ADD207R,0.06299X0.03543*%
%ADD208R,0.04646X0.02284*%
%ADD209C,0.05000*%
G36*
X146383Y214547D02*
X146010Y214472D01*
X145530Y214152D01*
X95758Y164380D01*
X75749D01*
X75542Y164880D01*
X125709Y215047D01*
X146334D01*
X146383Y214547D01*
D02*
G37*
G36*
X22839Y250633D02*
X41706Y231766D01*
Y226007D01*
X132863D01*
X139417Y232561D01*
X249482D01*
X251051Y230992D01*
X251679Y230572D01*
X252421Y230425D01*
X258974D01*
X259716Y230572D01*
X260344Y230992D01*
X260741Y231389D01*
X261161Y232018D01*
X261269Y232561D01*
X265829D01*
X265936Y232023D01*
X266353Y231400D01*
X266963Y230992D01*
Y232759D01*
X268463D01*
Y230992D01*
X269072Y231400D01*
X269489Y232023D01*
X269596Y232561D01*
X305844D01*
X309220Y235937D01*
X311008D01*
X311206Y235738D01*
Y2185D01*
X34755D01*
X33961Y2979D01*
Y16484D01*
X35149D01*
X35300Y15984D01*
X35026Y15800D01*
X34619Y15191D01*
X38153D01*
X37745Y15800D01*
X37471Y15984D01*
X37623Y16484D01*
X39124D01*
X39720Y17080D01*
Y24825D01*
X45678Y30783D01*
X73168D01*
X73435Y30283D01*
X73253Y30010D01*
X76787D01*
X76604Y30283D01*
X76871Y30783D01*
X127501D01*
X131275Y34556D01*
Y100293D01*
X52828D01*
X42211Y110909D01*
X42457Y111370D01*
X42847Y111293D01*
X44106D01*
X44719Y110680D01*
X44790Y110321D01*
X45185Y109730D01*
X45776Y109335D01*
X46472Y109197D01*
X47169Y109335D01*
X47760Y109730D01*
X48155Y110321D01*
X48293Y111017D01*
X48155Y111714D01*
X47760Y112305D01*
X47169Y112700D01*
X46809Y112771D01*
X45764Y113817D01*
X45284Y114137D01*
X44719Y114250D01*
X43582D01*
Y149132D01*
X55872Y161423D01*
X96370D01*
X96936Y161535D01*
X97416Y161856D01*
X147188Y211628D01*
X154814D01*
X155002Y211165D01*
X102152Y159737D01*
X57277Y160155D01*
X57270Y160154D01*
X57263Y160155D01*
X56802D01*
X56236Y160043D01*
X55757Y159722D01*
X55430Y159396D01*
X55426Y159389D01*
X55419Y159385D01*
X46409Y150183D01*
X46263Y149960D01*
X46111Y149741D01*
X46106Y149719D01*
X46094Y149700D01*
X46044Y149438D01*
X45987Y149178D01*
X45979Y148741D01*
X45408Y119613D01*
X45399Y119159D01*
X45401Y119144D01*
X45398Y119130D01*
Y118753D01*
X45434Y118572D01*
X45444Y118388D01*
X45490Y118292D01*
X45511Y118187D01*
X45614Y118034D01*
X45693Y117867D01*
X45913Y117574D01*
X45992Y117503D01*
X46051Y117415D01*
X55281Y108185D01*
X55761Y107864D01*
X56326Y107752D01*
X69510D01*
X70076Y107864D01*
X70555Y108185D01*
X71676Y109305D01*
X71997Y109785D01*
X72109Y110351D01*
Y115378D01*
X72313Y115683D01*
X72452Y116380D01*
X72313Y117076D01*
X71918Y117667D01*
X71328Y118062D01*
X70631Y118200D01*
X69934Y118062D01*
X69343Y117667D01*
X68949Y117076D01*
X68810Y116380D01*
X68949Y115683D01*
X69152Y115378D01*
Y110963D01*
X68898Y110708D01*
X56939D01*
X48359Y119289D01*
X48364Y119555D01*
X48932Y148533D01*
X57415Y157197D01*
X102733Y156775D01*
X103014Y156828D01*
X103294Y156880D01*
X103296Y156882D01*
X103299Y156882D01*
X103537Y157038D01*
X103778Y157194D01*
X157854Y209815D01*
X227139Y208275D01*
X227749Y178223D01*
X227250Y178168D01*
X227187Y178483D01*
X226771Y179107D01*
X226161Y179514D01*
Y177747D01*
Y175980D01*
X226771Y176387D01*
X227187Y177011D01*
X227266Y177404D01*
X227766Y177360D01*
X228480Y142176D01*
X228297Y141901D01*
X228158Y141205D01*
X228297Y140508D01*
X228691Y139917D01*
X229282Y139522D01*
X229979Y139384D01*
X230676Y139522D01*
X231266Y139917D01*
X231661Y140508D01*
X231800Y141205D01*
X231661Y141901D01*
X231437Y142237D01*
X230088Y208686D01*
X230079Y209140D01*
X230020Y209407D01*
X229967Y209676D01*
X229958Y209689D01*
X229955Y209703D01*
X229799Y209928D01*
X229646Y210156D01*
X229021Y210781D01*
X228795Y210932D01*
X228572Y211088D01*
X228555Y211092D01*
X228542Y211101D01*
X228406Y211128D01*
X228455Y211628D01*
X232734D01*
X233863Y210499D01*
Y140022D01*
X233659Y139717D01*
X233520Y139020D01*
X233659Y138323D01*
X234053Y137733D01*
X234644Y137338D01*
X235341Y137199D01*
X236038Y137338D01*
X236629Y137733D01*
X237023Y138323D01*
X237162Y139020D01*
X237023Y139717D01*
X236819Y140022D01*
Y211112D01*
X236707Y211678D01*
X236386Y212157D01*
X234392Y214152D01*
X233912Y214472D01*
X233539Y214547D01*
X233588Y215047D01*
X243972D01*
X244208Y214606D01*
X244100Y214444D01*
X247634D01*
X247526Y214606D01*
X247761Y215047D01*
X283524D01*
X289782Y147773D01*
X289386Y147180D01*
X289224Y146368D01*
X289386Y145556D01*
X289846Y144868D01*
X290534Y144408D01*
X291346Y144246D01*
X292158Y144408D01*
X292847Y144868D01*
X293307Y145556D01*
X293468Y146368D01*
X293307Y147180D01*
X292847Y147869D01*
X292627Y148016D01*
X286246Y216606D01*
X286185Y216811D01*
X286143Y217020D01*
X286106Y217076D01*
X286087Y217140D01*
X285953Y217306D01*
X285834Y217483D01*
X285778Y217520D01*
X285736Y217572D01*
X285548Y217674D01*
X285371Y217793D01*
X285305Y217806D01*
X285246Y217838D01*
X285034Y217860D01*
X284825Y217901D01*
X125118D01*
X125118Y217901D01*
X124572Y217793D01*
X124109Y217483D01*
X99323Y192697D01*
X99175Y192766D01*
X99036Y192885D01*
X97865D01*
Y191714D01*
X97984Y191575D01*
X98053Y191428D01*
X73710Y167085D01*
X73208Y167114D01*
X73195Y167133D01*
X72507Y167593D01*
X71695Y167754D01*
X70883Y167593D01*
X70194Y167133D01*
X69734Y166444D01*
X69573Y165632D01*
X69722Y164880D01*
X69674Y164708D01*
X69499Y164380D01*
X55260D01*
X54694Y164267D01*
X54215Y163947D01*
X46462Y156194D01*
X45987Y156426D01*
X45866Y157034D01*
X45449Y157658D01*
X44839Y158065D01*
Y156298D01*
X44089D01*
Y155548D01*
X42322D01*
X42730Y154939D01*
X43353Y154522D01*
X43962Y154401D01*
X44193Y153925D01*
X41058Y150790D01*
X40737Y150310D01*
X40625Y149744D01*
Y113599D01*
X40630Y113576D01*
X40227Y113035D01*
X40097Y113023D01*
X30386Y122735D01*
Y123728D01*
X17477D01*
X4171Y137034D01*
Y225610D01*
X3178Y290949D01*
X2979Y291545D01*
X7348Y310809D01*
X19860D01*
X22839Y250633D01*
D02*
G37*
G36*
X318199Y166334D02*
X318218Y166315D01*
X320583Y163950D01*
X320795Y163738D01*
X321192Y163556D01*
X321215Y163534D01*
X321630Y163738D01*
X402749D01*
Y6963D01*
X400371Y4585D01*
X316469D01*
Y116836D01*
X316969Y117043D01*
X317515Y116496D01*
X318061Y116132D01*
X318705Y116004D01*
X318989D01*
X320863Y114130D01*
X321409Y113765D01*
X322053Y113637D01*
Y112770D01*
X322446D01*
Y111148D01*
X325346D01*
X328246D01*
Y112465D01*
X328272Y112517D01*
X328771Y112833D01*
X328988Y112778D01*
X329046Y112648D01*
X329046Y112570D01*
Y108148D01*
X331867D01*
X333761Y106254D01*
X333761Y106254D01*
X334307Y105890D01*
X334951Y105762D01*
X334951Y105762D01*
X337132D01*
X337836Y105058D01*
Y103753D01*
X343881D01*
Y107437D01*
X340215D01*
X339398Y108253D01*
X339605Y108753D01*
X343881D01*
Y112437D01*
X337836D01*
Y109132D01*
X337829Y109126D01*
X335648D01*
X334246Y110528D01*
Y112648D01*
X334043D01*
X333853Y113070D01*
X333853Y113137D01*
X333879Y113637D01*
X334153D01*
X334797Y113765D01*
X335017Y113913D01*
X337836D01*
Y113753D01*
X343881D01*
Y117437D01*
X337836D01*
Y117278D01*
X334428D01*
X334239Y117240D01*
X333853Y117557D01*
Y117570D01*
X328653D01*
Y113517D01*
X328640Y113370D01*
X328166Y113067D01*
X328160Y113069D01*
X327998Y113164D01*
X327853Y113262D01*
Y114570D01*
X324953D01*
Y115320D01*
X324203D01*
Y117870D01*
X322053D01*
X322053Y117870D01*
Y117870D01*
X321652Y118100D01*
X320876Y118876D01*
X320330Y119240D01*
X319693Y119367D01*
Y127447D01*
X320018Y127772D01*
X320953D01*
Y127076D01*
X323762D01*
Y129454D01*
X324512D01*
Y130204D01*
X328375D01*
X328572Y130303D01*
X328615Y130270D01*
Y125332D01*
X328670Y125059D01*
X328824Y124827D01*
X329056Y124673D01*
X329329Y124618D01*
X333274D01*
X333371Y124472D01*
X333104Y123972D01*
X329412D01*
Y123911D01*
X328912Y123576D01*
X328511Y123656D01*
X327771D01*
Y124052D01*
X321253D01*
Y119896D01*
X327771D01*
X327771Y119896D01*
Y119896D01*
X328272Y119949D01*
X328468Y119818D01*
X329112Y119690D01*
X329412Y119335D01*
Y118772D01*
X333912D01*
Y119690D01*
X336062D01*
X336346Y119406D01*
X336346Y119406D01*
X336892Y119041D01*
X337536Y118913D01*
X337836D01*
Y118753D01*
X343881D01*
Y122426D01*
X344519D01*
X344792Y122481D01*
X345024Y122635D01*
X345065Y122676D01*
X345099Y122676D01*
X345565Y122521D01*
Y52266D01*
X344462Y51163D01*
X339239Y51187D01*
X333756Y56671D01*
Y82199D01*
X334256Y82466D01*
X334497Y82305D01*
X335232Y82159D01*
X335967Y82305D01*
X336591Y82722D01*
X337007Y83345D01*
X337039Y83508D01*
X339018Y85487D01*
X339383Y86033D01*
X339511Y86677D01*
Y93050D01*
X340215Y93753D01*
X343881D01*
Y97437D01*
X337836D01*
Y96133D01*
X336639Y94936D01*
X336274Y94390D01*
X336146Y93746D01*
Y87374D01*
X334660Y85887D01*
X334497Y85855D01*
X334256Y85694D01*
X333756Y85962D01*
Y90916D01*
X334674D01*
Y95416D01*
X329474D01*
Y90916D01*
X330392D01*
Y55974D01*
X330520Y55330D01*
X330884Y54784D01*
X333994Y51675D01*
X333802Y51213D01*
X324968Y51255D01*
X324915Y51244D01*
X324861Y51247D01*
X324780Y51218D01*
X324695Y51202D01*
X324650Y51172D01*
X324599Y51154D01*
X324535Y51096D01*
X324463Y51048D01*
X324432Y51003D01*
X324392Y50967D01*
X323093Y49221D01*
X323038Y49104D01*
X322979Y48988D01*
X322978Y48978D01*
X322974Y48970D01*
X322967Y48840D01*
X322957Y48710D01*
X323374Y45240D01*
X323403Y45151D01*
X323420Y45059D01*
X323446Y45019D01*
X323460Y44975D01*
X323521Y44904D01*
X323572Y44825D01*
X323611Y44799D01*
X323641Y44764D01*
X323725Y44721D01*
X323761Y44696D01*
X323828Y44619D01*
X323900Y44481D01*
X323936Y44355D01*
X323962Y44193D01*
X323959Y44124D01*
X323176Y43072D01*
X323139Y42994D01*
X323091Y42923D01*
X323080Y42870D01*
X323057Y42821D01*
X323053Y42734D01*
X323035Y42650D01*
X323045Y42597D01*
X323043Y42542D01*
X323072Y42461D01*
X323088Y42377D01*
X323312Y41827D01*
X323421Y41001D01*
X323760Y40183D01*
X324235Y39563D01*
X324420Y39110D01*
X324491Y39003D01*
X324558Y38894D01*
X324549Y38758D01*
X324480Y38424D01*
X324446Y38358D01*
X324370Y38300D01*
X323847Y37618D01*
X323518Y36825D01*
X323406Y35973D01*
X323518Y35122D01*
X323847Y34328D01*
X324370Y33647D01*
X324723Y33375D01*
X324822Y32898D01*
X324789Y32716D01*
X324370Y32394D01*
X323847Y31713D01*
X323776Y31541D01*
X323256Y30949D01*
X323253Y30944D01*
X323248Y30939D01*
X323183Y30823D01*
X323116Y30708D01*
X323116Y30702D01*
X323112Y30696D01*
X323097Y30564D01*
X323080Y30432D01*
X323081Y30426D01*
X323081Y30419D01*
X323117Y30292D01*
X323151Y30163D01*
X323155Y30158D01*
X323157Y30152D01*
X323477Y29530D01*
X323518Y29216D01*
X323847Y28422D01*
X324370Y27741D01*
X324414Y27707D01*
X324528Y27486D01*
X324577Y27425D01*
X324614Y27356D01*
X324646Y27330D01*
X324663Y27313D01*
X324711Y27131D01*
X324724Y26928D01*
X324711Y26841D01*
X324671Y26727D01*
X324666Y26716D01*
X324370Y26489D01*
X323847Y25807D01*
X323518Y25014D01*
X323406Y24162D01*
X323518Y23311D01*
X323847Y22517D01*
X324370Y21836D01*
X324789Y21514D01*
Y20905D01*
X324370Y20583D01*
X323847Y19902D01*
X323518Y19108D01*
X323406Y18257D01*
X323518Y17405D01*
X323847Y16611D01*
X324370Y15930D01*
X325051Y15407D01*
X325845Y15078D01*
X326697Y14966D01*
X328665D01*
X329517Y15078D01*
X330310Y15407D01*
X330992Y15930D01*
X331515Y16611D01*
X331843Y17405D01*
X331956Y18257D01*
X331843Y19108D01*
X331515Y19902D01*
X330992Y20583D01*
X330573Y20905D01*
Y21514D01*
X330992Y21836D01*
X331515Y22517D01*
X331843Y23311D01*
X331956Y24162D01*
X331843Y25014D01*
X331515Y25807D01*
X330992Y26489D01*
X330782Y26649D01*
X330925Y27068D01*
X330970Y27136D01*
X331008Y27142D01*
X331075Y27183D01*
X331148Y27211D01*
X331192Y27255D01*
X331246Y27287D01*
X331292Y27350D01*
X331348Y27405D01*
X331373Y27462D01*
X331410Y27512D01*
X331962Y28706D01*
X338440Y29198D01*
X338583Y29065D01*
Y29065D01*
X344479D01*
X345636Y28899D01*
Y27676D01*
X350136D01*
Y28218D01*
X350491Y28569D01*
X350988Y28562D01*
Y27630D01*
X355488D01*
Y32830D01*
X350988D01*
Y32288D01*
X350633Y31937D01*
X350136Y31944D01*
Y32876D01*
X345636D01*
Y32876D01*
X345136Y32862D01*
X345101Y32878D01*
Y33221D01*
X338583D01*
Y32583D01*
X331273Y32028D01*
X330992Y32394D01*
X330615Y32683D01*
X330585Y32719D01*
X330649Y33383D01*
X330650Y33384D01*
X330992Y33647D01*
X331515Y34328D01*
X331843Y35122D01*
X331956Y35973D01*
X331843Y36825D01*
X331530Y37582D01*
X331589Y37717D01*
X331826Y38034D01*
X332256Y37950D01*
X332263Y37950D01*
X332269Y37947D01*
X332567Y37895D01*
X333086Y37485D01*
X333090Y37484D01*
X333092Y37481D01*
X334423Y36452D01*
X334426Y36450D01*
X334429Y36447D01*
X335770Y35430D01*
X335773Y35429D01*
X335775Y35426D01*
X337126Y34423D01*
X337129Y34421D01*
X337132Y34418D01*
X337812Y33923D01*
X337882Y33890D01*
X337946Y33846D01*
X338008Y33833D01*
X338065Y33806D01*
X338142Y33803D01*
X338218Y33786D01*
X339405Y33764D01*
X339409Y33764D01*
X339412Y33763D01*
X341786Y33740D01*
X341790Y33741D01*
X341793Y33740D01*
X344168Y33740D01*
X344171Y33741D01*
X344175Y33741D01*
X346549Y33763D01*
X346552Y33764D01*
X346556Y33764D01*
X347743Y33786D01*
X347788Y33796D01*
X347834Y33794D01*
X347863Y33804D01*
X347893Y33805D01*
X349889Y34277D01*
X349895Y34280D01*
X349902Y34280D01*
X353875Y35300D01*
X353881Y35304D01*
X353888Y35304D01*
X357840Y36400D01*
X357846Y36404D01*
X357853Y36404D01*
X361783Y37577D01*
X361789Y37580D01*
X361796Y37581D01*
X362276Y37734D01*
X366301Y33709D01*
Y25888D01*
X365083D01*
Y24088D01*
X367983D01*
Y22588D01*
X365083D01*
Y20788D01*
X366301D01*
Y19387D01*
X365011Y18097D01*
X364549Y18288D01*
Y20298D01*
X363519D01*
X363446Y20701D01*
X363792Y21088D01*
X364283D01*
Y25588D01*
X363685D01*
X363627Y25724D01*
X363858Y26224D01*
X363858D01*
Y33924D01*
X358915D01*
Y26224D01*
X359455D01*
X359513Y26088D01*
X359183Y25588D01*
X359083D01*
Y21088D01*
X359848D01*
X359920Y20685D01*
X359575Y20298D01*
X358818D01*
Y16858D01*
X358518D01*
Y15427D01*
X361683D01*
Y13927D01*
X358518D01*
Y13320D01*
X358147Y12985D01*
X355220Y13281D01*
Y14417D01*
X351113Y14417D01*
X351058Y14417D01*
X351027Y14418D01*
X350706Y14454D01*
X350562Y14843D01*
X350559Y14896D01*
X350559Y14938D01*
Y15084D01*
X350720Y15517D01*
X355220D01*
Y20717D01*
X355220D01*
X355194Y21217D01*
X355242Y21330D01*
X355488D01*
Y26530D01*
X350988D01*
Y25988D01*
X350633Y25637D01*
X350136Y25644D01*
Y26576D01*
X345636D01*
Y26443D01*
X345401Y26041D01*
X345136Y26041D01*
X342592D01*
Y23663D01*
X341842D01*
Y22913D01*
X338283D01*
Y21285D01*
X338623D01*
Y18480D01*
X341001D01*
X343379D01*
Y21285D01*
X345174D01*
X345401Y21285D01*
X345863Y21376D01*
X346130D01*
X346403Y20989D01*
Y14471D01*
X350167Y14471D01*
X350221Y14471D01*
X350252Y14470D01*
X350573Y14434D01*
X350717Y14045D01*
X350720Y13992D01*
X350720Y13950D01*
Y9217D01*
X355220D01*
Y9526D01*
X355591Y9861D01*
X358818Y9535D01*
Y9056D01*
X364549D01*
Y9255D01*
X365602D01*
X366246Y9382D01*
X366791Y9747D01*
X368592Y11548D01*
X369054Y11357D01*
Y9056D01*
X374785D01*
Y9255D01*
X375566D01*
Y8671D01*
X380066D01*
Y9589D01*
X383878D01*
X384522Y9717D01*
X385068Y10081D01*
X385947Y10960D01*
X386311Y11506D01*
X386439Y12150D01*
Y28672D01*
X386439Y28672D01*
X386311Y29316D01*
X385947Y29862D01*
X384545Y31264D01*
X383999Y31628D01*
X383355Y31756D01*
X375275D01*
Y33924D01*
X374486D01*
Y34224D01*
X374358Y34867D01*
X373993Y35413D01*
X369993Y39413D01*
Y46242D01*
X369865Y46886D01*
X369501Y47432D01*
X367958Y48974D01*
X367413Y49338D01*
X366769Y49466D01*
X363952D01*
X363670Y50543D01*
X363650Y50586D01*
X363641Y50632D01*
X363589Y50710D01*
X363549Y50793D01*
X363513Y50825D01*
X363487Y50864D01*
X363410Y50916D01*
X363340Y50978D01*
X363296Y50994D01*
X363256Y51020D01*
X363165Y51039D01*
X363077Y51069D01*
X363030Y51066D01*
X362983Y51076D01*
X349705Y51138D01*
X349439Y51464D01*
Y75117D01*
X349901Y75308D01*
X351350Y73859D01*
X351350Y73859D01*
X351896Y73495D01*
X352540Y73367D01*
X366683D01*
X367327Y73495D01*
X367873Y73859D01*
X368752Y74738D01*
X369116Y75284D01*
X369244Y75928D01*
Y79071D01*
X370436D01*
Y82630D01*
X371936D01*
Y79071D01*
X373564D01*
Y80948D01*
X375547D01*
X376191Y81076D01*
X376736Y81440D01*
X384017Y88721D01*
X384017Y88721D01*
X384142Y88908D01*
X384743D01*
X384904Y88668D01*
X390841Y82731D01*
X393620D01*
X396170D01*
Y84881D01*
X393449D01*
X393111Y85219D01*
X393302Y85681D01*
X395870D01*
Y90881D01*
X395827D01*
X395510Y91268D01*
X395540Y91419D01*
Y93022D01*
X397708D01*
Y97965D01*
X390008D01*
Y93022D01*
X392176D01*
Y91989D01*
X392066Y91825D01*
X391938Y91181D01*
Y90881D01*
X391370D01*
Y87613D01*
X390908Y87422D01*
X387688Y90642D01*
X387648Y90847D01*
X387283Y91393D01*
X386386Y92289D01*
Y94666D01*
X383577D01*
Y92288D01*
X382077D01*
Y94666D01*
X379268D01*
X379078Y95087D01*
Y95778D01*
X377278D01*
Y92878D01*
X375778D01*
Y95778D01*
X373978D01*
Y95706D01*
X373478Y95355D01*
X373110Y95429D01*
X365530D01*
X365126Y95833D01*
Y97737D01*
X363199D01*
X362881Y98123D01*
X362894Y98187D01*
Y98753D01*
X364826D01*
Y100721D01*
X365288Y100912D01*
X368212Y97989D01*
X368212Y97989D01*
X368758Y97624D01*
X369402Y97496D01*
X369402Y97496D01*
X374278D01*
Y96578D01*
X378778D01*
Y97496D01*
X379381D01*
X380025Y97624D01*
X380124Y97690D01*
X386086D01*
Y101846D01*
X379568D01*
Y101664D01*
X379254Y101499D01*
X378778Y101775D01*
Y101778D01*
X374278D01*
Y100861D01*
X370098D01*
X364826Y106133D01*
Y107437D01*
X359018D01*
X358653Y107802D01*
X358483Y107916D01*
X358210Y108188D01*
Y141883D01*
X364028Y147701D01*
X364482Y147641D01*
X365231Y147740D01*
X365929Y148029D01*
X366528Y148488D01*
X366988Y149088D01*
X367277Y149785D01*
X367375Y150534D01*
X367277Y151283D01*
X366988Y151981D01*
X366528Y152580D01*
X365929Y153040D01*
X365231Y153329D01*
X364482Y153428D01*
X363733Y153329D01*
X363036Y153040D01*
X362436Y152580D01*
X361977Y151981D01*
X361688Y151283D01*
X361589Y150534D01*
X361649Y150080D01*
X359967Y148398D01*
X359506Y148645D01*
X359525Y148740D01*
X359525Y148740D01*
Y154949D01*
X359658Y155082D01*
X372799D01*
Y147057D01*
X364936Y139195D01*
X364482Y139254D01*
X363733Y139156D01*
X363036Y138867D01*
X362436Y138407D01*
X361977Y137808D01*
X361688Y137110D01*
X361589Y136361D01*
X361688Y135612D01*
X361977Y134915D01*
X362436Y134315D01*
X363036Y133855D01*
X363733Y133566D01*
X364482Y133468D01*
X365231Y133566D01*
X365929Y133855D01*
X366528Y134315D01*
X366988Y134915D01*
X367277Y135612D01*
X367375Y136361D01*
X367316Y136815D01*
X375671Y145170D01*
X375671Y145170D01*
X376035Y145716D01*
X376163Y146360D01*
X376163Y146360D01*
Y155885D01*
X376035Y156529D01*
X375671Y157075D01*
X374792Y157954D01*
X374246Y158318D01*
X373602Y158446D01*
X358961D01*
X358317Y158318D01*
X357771Y157954D01*
X356653Y156836D01*
X356289Y156290D01*
X356161Y155646D01*
Y149437D01*
X352671Y145948D01*
X352491Y145678D01*
X351991Y145830D01*
Y146400D01*
X351991Y146400D01*
X351991Y146400D01*
Y148083D01*
X352426Y148417D01*
X352902Y149037D01*
X353201Y149759D01*
X353204Y149784D01*
X350309D01*
Y150534D01*
X349559D01*
Y153430D01*
X349534Y153426D01*
X348812Y153127D01*
X348192Y152651D01*
X347858Y152217D01*
X336342D01*
X334904Y153655D01*
X334359Y154019D01*
X333715Y154147D01*
X319711D01*
X319067Y154019D01*
X318521Y153655D01*
X317642Y152776D01*
X317278Y152230D01*
X317150Y151586D01*
Y137512D01*
X317278Y136869D01*
X317642Y136323D01*
X321671Y132294D01*
X321480Y131832D01*
X320953D01*
Y131136D01*
X319321D01*
X319321Y131136D01*
X318677Y131008D01*
X318131Y130644D01*
X316969Y129481D01*
X316469Y129688D01*
Y165274D01*
X317811Y166616D01*
X318199Y166334D01*
D02*
G37*
G36*
X334456Y149345D02*
X334456Y149345D01*
X335002Y148980D01*
X335646Y148852D01*
X335646Y148852D01*
X347858D01*
X348192Y148417D01*
X348627Y148083D01*
Y147097D01*
X345614Y144084D01*
X345249Y143538D01*
X345121Y142894D01*
X344426D01*
Y140085D01*
X346803D01*
Y138585D01*
X344426D01*
Y135776D01*
Y133392D01*
X346803D01*
Y132642D01*
X347553D01*
Y129083D01*
X348627D01*
Y126880D01*
X348165Y126689D01*
X347889Y126965D01*
X347260Y127385D01*
X346519Y127532D01*
X344889D01*
X344792Y127597D01*
X344519Y127652D01*
X343624D01*
X343210Y128398D01*
Y128956D01*
Y142762D01*
X343155Y143035D01*
X343001Y143267D01*
X342769Y143421D01*
X342496Y143476D01*
X338649D01*
X338512Y143567D01*
X338512Y143567D01*
X338512Y143567D01*
X338394Y143591D01*
X338239Y143622D01*
X338239Y143622D01*
X338239Y143622D01*
X329718Y143621D01*
X329573Y143592D01*
X329445Y143566D01*
X329445Y143566D01*
X329445Y143566D01*
X329320Y143483D01*
X329213Y143412D01*
X329213Y143412D01*
X329213Y143412D01*
X329142Y143305D01*
X329059Y143180D01*
X329059Y143180D01*
X329059Y143180D01*
X329033Y143052D01*
X329004Y142907D01*
Y132200D01*
X328580Y131776D01*
X328572Y131762D01*
X328071Y131832D01*
Y131832D01*
X326195D01*
X326067Y132476D01*
X325702Y133021D01*
X320514Y138209D01*
Y150783D01*
X333018D01*
X334456Y149345D01*
D02*
G37*
G36*
X338385Y142762D02*
X342496D01*
Y128956D01*
Y128213D01*
X343204Y126938D01*
X344519D01*
Y123238D01*
X344568Y123189D01*
X344519Y123140D01*
X336096D01*
X333904Y125332D01*
X329329D01*
Y131027D01*
X329085Y131271D01*
X329718Y131904D01*
Y142907D01*
X338239Y142908D01*
X338385Y142762D01*
D02*
G37*
G36*
X362980Y50362D02*
X363696Y47630D01*
X362826Y44923D01*
X324082Y45325D01*
X323666Y48795D01*
X324965Y50541D01*
X362980Y50362D01*
D02*
G37*
G36*
X363063Y44213D02*
X363779Y41481D01*
X363533Y38885D01*
X363533D01*
X361579Y38261D01*
X357649Y37088D01*
X353697Y35992D01*
X349725Y34972D01*
X347729Y34500D01*
X347729Y34500D01*
X346542Y34477D01*
X344168Y34454D01*
X341793Y34454D01*
X339419Y34477D01*
X338232Y34500D01*
X337552Y34995D01*
X336201Y35999D01*
X334860Y37016D01*
X333529Y38046D01*
X332868Y38567D01*
X332868Y38567D01*
X332392Y38650D01*
X331445Y38835D01*
X330501Y39038D01*
X329561Y39259D01*
X329093Y39379D01*
X328592Y39360D01*
X327589Y39340D01*
X326586Y39340D01*
X325583Y39360D01*
X325081Y39379D01*
X323749Y42646D01*
X325048Y44392D01*
X363063Y44213D01*
D02*
G37*
G36*
X329772Y32573D02*
X331295Y30783D01*
X331714Y29869D01*
X330762Y27812D01*
X328857Y27469D01*
X325163Y27812D01*
X323792Y30478D01*
X325734Y32687D01*
X329772Y32573D01*
D02*
G37*
G36*
X383075Y27975D02*
Y12953D01*
X380066D01*
Y13871D01*
X375566D01*
Y12619D01*
X374785D01*
Y12818D01*
X370515D01*
X370324Y13280D01*
X372091Y15046D01*
X372091Y15046D01*
X372455Y15592D01*
X372583Y16236D01*
Y16536D01*
X374785D01*
Y16536D01*
X375266Y16490D01*
Y14671D01*
X377066D01*
Y17571D01*
X377816D01*
Y18321D01*
X380366D01*
Y20471D01*
X379498D01*
Y22697D01*
X379370Y23341D01*
X379006Y23887D01*
X378127Y24766D01*
X377581Y25130D01*
X376937Y25258D01*
X371302D01*
X371065Y25485D01*
X371066Y25999D01*
X371295Y26224D01*
X375275D01*
Y28392D01*
X382658D01*
X383075Y27975D01*
D02*
G37*
%LPC*%
G36*
X99653Y177925D02*
Y176908D01*
X100670D01*
X100262Y177518D01*
X99653Y177925D01*
D02*
G37*
G36*
X98153D02*
X97543Y177518D01*
X97136Y176908D01*
X98153D01*
Y177925D01*
D02*
G37*
G36*
X100670Y175408D02*
X99653D01*
Y174391D01*
X100262Y174799D01*
X100670Y175408D01*
D02*
G37*
G36*
X98153D02*
X97136D01*
X97543Y174799D01*
X98153Y174391D01*
Y175408D01*
D02*
G37*
G36*
X13776Y301484D02*
Y297353D01*
X17907D01*
X17836Y297892D01*
X17339Y299093D01*
X16547Y300124D01*
X15516Y300916D01*
X14315Y301413D01*
X13776Y301484D01*
D02*
G37*
G36*
X12276D02*
X11738Y301413D01*
X10537Y300916D01*
X9505Y300124D01*
X8714Y299093D01*
X8216Y297892D01*
X8145Y297353D01*
X12276D01*
Y301484D01*
D02*
G37*
G36*
X17907Y295853D02*
X13776D01*
Y291722D01*
X14315Y291793D01*
X15516Y292291D01*
X16547Y293082D01*
X17339Y294113D01*
X17836Y295314D01*
X17907Y295853D01*
D02*
G37*
G36*
X12276D02*
X8145D01*
X8216Y295314D01*
X8714Y294113D01*
X9505Y293082D01*
X10537Y292291D01*
X11738Y291793D01*
X12276Y291722D01*
Y295853D01*
D02*
G37*
G36*
X12989Y258571D02*
Y254440D01*
X17120D01*
X17049Y254978D01*
X16551Y256179D01*
X15760Y257211D01*
X14729Y258002D01*
X13528Y258500D01*
X12989Y258571D01*
D02*
G37*
G36*
X11489D02*
X10950Y258500D01*
X9749Y258002D01*
X8718Y257211D01*
X7926Y256179D01*
X7429Y254978D01*
X7358Y254440D01*
X11489D01*
Y258571D01*
D02*
G37*
G36*
X17120Y252940D02*
X12989D01*
Y248809D01*
X13528Y248880D01*
X14729Y249377D01*
X15760Y250168D01*
X16551Y251200D01*
X17049Y252401D01*
X17120Y252940D01*
D02*
G37*
G36*
X11489D02*
X7358D01*
X7429Y252401D01*
X7926Y251200D01*
X8718Y250168D01*
X9749Y249377D01*
X10950Y248880D01*
X11489Y248809D01*
Y252940D01*
D02*
G37*
G36*
X193988Y227774D02*
Y226757D01*
X195005D01*
X194597Y227366D01*
X193988Y227774D01*
D02*
G37*
G36*
X192488D02*
X191878Y227366D01*
X191471Y226757D01*
X192488D01*
Y227774D01*
D02*
G37*
G36*
X182148Y226983D02*
Y225967D01*
X183165D01*
X182757Y226576D01*
X182148Y226983D01*
D02*
G37*
G36*
X180648D02*
X180038Y226576D01*
X179631Y225967D01*
X180648D01*
Y226983D01*
D02*
G37*
G36*
X297458Y226383D02*
Y225367D01*
X298475D01*
X298068Y225976D01*
X297458Y226383D01*
D02*
G37*
G36*
X295958D02*
X295349Y225976D01*
X294941Y225367D01*
X295958D01*
Y226383D01*
D02*
G37*
G36*
X195005Y225257D02*
X193988D01*
Y224240D01*
X194597Y224647D01*
X195005Y225257D01*
D02*
G37*
G36*
X192488D02*
X191471D01*
X191878Y224647D01*
X192488Y224240D01*
Y225257D01*
D02*
G37*
G36*
X183165Y224466D02*
X182148D01*
Y223450D01*
X182757Y223857D01*
X183165Y224466D01*
D02*
G37*
G36*
X180648D02*
X179631D01*
X180038Y223857D01*
X180648Y223450D01*
Y224466D01*
D02*
G37*
G36*
X298475Y223867D02*
X297458D01*
Y222850D01*
X298068Y223257D01*
X298475Y223867D01*
D02*
G37*
G36*
X295958D02*
X294941D01*
X295349Y223257D01*
X295958Y222850D01*
Y223867D01*
D02*
G37*
G36*
X247634Y212944D02*
X246617D01*
Y211927D01*
X247226Y212334D01*
X247634Y212944D01*
D02*
G37*
G36*
X245117D02*
X244100D01*
X244507Y212334D01*
X245117Y211927D01*
Y212944D01*
D02*
G37*
G36*
X298054Y210694D02*
Y209677D01*
X299071D01*
X298664Y210287D01*
X298054Y210694D01*
D02*
G37*
G36*
X296554D02*
X295945Y210287D01*
X295537Y209677D01*
X296554D01*
Y210694D01*
D02*
G37*
G36*
X299071Y208177D02*
X298054D01*
Y207160D01*
X298664Y207568D01*
X299071Y208177D01*
D02*
G37*
G36*
X296554D02*
X295537D01*
X295945Y207568D01*
X296554Y207160D01*
Y208177D01*
D02*
G37*
G36*
X177107Y207318D02*
Y206301D01*
X178124D01*
X177716Y206911D01*
X177107Y207318D01*
D02*
G37*
G36*
X175607D02*
X174997Y206911D01*
X174590Y206301D01*
X175607D01*
Y207318D01*
D02*
G37*
G36*
X193789Y205531D02*
Y204514D01*
X194806D01*
X194399Y205123D01*
X193789Y205531D01*
D02*
G37*
G36*
X192289D02*
X191680Y205123D01*
X191272Y204514D01*
X192289D01*
Y205531D01*
D02*
G37*
G36*
X178124Y204801D02*
X177107D01*
Y203784D01*
X177716Y204191D01*
X178124Y204801D01*
D02*
G37*
G36*
X175607D02*
X174590D01*
X174997Y204191D01*
X175607Y203784D01*
Y204801D01*
D02*
G37*
G36*
X194806Y203014D02*
X193789D01*
Y201997D01*
X194399Y202404D01*
X194806Y203014D01*
D02*
G37*
G36*
X192289D02*
X191272D01*
X191680Y202404D01*
X192289Y201997D01*
Y203014D01*
D02*
G37*
G36*
X183661Y198778D02*
Y197761D01*
X184678D01*
X184270Y198371D01*
X183661Y198778D01*
D02*
G37*
G36*
X182161D02*
X181551Y198371D01*
X181144Y197761D01*
X182161D01*
Y198778D01*
D02*
G37*
G36*
X184678Y196261D02*
X183661D01*
Y195244D01*
X184270Y195652D01*
X184678Y196261D01*
D02*
G37*
G36*
X182161D02*
X181144D01*
X181551Y195652D01*
X182161Y195244D01*
Y196261D01*
D02*
G37*
G36*
X97865Y195402D02*
Y194385D01*
X98882D01*
X98475Y194995D01*
X97865Y195402D01*
D02*
G37*
G36*
X96365D02*
X95756Y194995D01*
X95349Y194385D01*
X96365D01*
Y195402D01*
D02*
G37*
G36*
Y192885D02*
X95349D01*
X95756Y192275D01*
X96365Y191868D01*
Y192885D01*
D02*
G37*
G36*
X148111Y186068D02*
Y185051D01*
X149128D01*
X148721Y185660D01*
X148111Y186068D01*
D02*
G37*
G36*
X146611D02*
X146002Y185660D01*
X145594Y185051D01*
X146611D01*
Y186068D01*
D02*
G37*
G36*
X30509Y193019D02*
Y184951D01*
X34738D01*
Y188138D01*
X34569Y189427D01*
X34071Y190628D01*
X33280Y191660D01*
X32248Y192451D01*
X31047Y192948D01*
X30509Y193019D01*
D02*
G37*
G36*
X29009D02*
X28470Y192948D01*
X27269Y192451D01*
X26237Y191660D01*
X25446Y190628D01*
X24949Y189427D01*
X24779Y188138D01*
Y184951D01*
X29009D01*
Y193019D01*
D02*
G37*
G36*
X280750Y188935D02*
X279938Y188773D01*
X279250Y188313D01*
X278790Y187625D01*
X278628Y186813D01*
X278790Y186001D01*
X279250Y185312D01*
X279938Y184852D01*
X280750Y184691D01*
X281562Y184852D01*
X282251Y185312D01*
X282711Y186001D01*
X282872Y186813D01*
X282711Y187625D01*
X282251Y188313D01*
X281562Y188773D01*
X280750Y188935D01*
D02*
G37*
G36*
X149128Y183551D02*
X148111D01*
Y182534D01*
X148721Y182941D01*
X149128Y183551D01*
D02*
G37*
G36*
X146611D02*
X145594D01*
X146002Y182941D01*
X146611Y182534D01*
Y183551D01*
D02*
G37*
G36*
X220799Y181897D02*
Y180880D01*
X221816D01*
X221408Y181490D01*
X220799Y181897D01*
D02*
G37*
G36*
X219299D02*
X218689Y181490D01*
X218282Y180880D01*
X219299D01*
Y181897D01*
D02*
G37*
G36*
X54562Y196557D02*
X53402Y196404D01*
X52321Y195957D01*
X51393Y195245D01*
X50681Y194316D01*
X50233Y193235D01*
X50080Y192076D01*
Y184989D01*
X50233Y183829D01*
X50681Y182748D01*
X51393Y181820D01*
X52321Y181108D01*
X53402Y180660D01*
X54562Y180507D01*
X55722Y180660D01*
X56803Y181108D01*
X57731Y181820D01*
X58443Y182748D01*
X58891Y183829D01*
X59043Y184989D01*
Y192076D01*
X58891Y193235D01*
X58443Y194316D01*
X57731Y195245D01*
X56803Y195957D01*
X55722Y196404D01*
X54562Y196557D01*
D02*
G37*
G36*
X12042Y189279D02*
X10728Y189106D01*
X9504Y188599D01*
X8452Y187792D01*
X7645Y186740D01*
X7138Y185516D01*
X6965Y184201D01*
X7138Y182887D01*
X7645Y181663D01*
X8452Y180611D01*
X9504Y179804D01*
X10728Y179297D01*
X12042Y179124D01*
X13356Y179297D01*
X14581Y179804D01*
X15632Y180611D01*
X16439Y181663D01*
X16946Y182887D01*
X17119Y184201D01*
X16946Y185516D01*
X16439Y186740D01*
X15632Y187792D01*
X14581Y188599D01*
X13356Y189106D01*
X12042Y189279D01*
D02*
G37*
G36*
X281769Y179911D02*
Y178894D01*
X282786D01*
X282379Y179504D01*
X281769Y179911D01*
D02*
G37*
G36*
X280269D02*
X279659Y179504D01*
X279252Y178894D01*
X280269D01*
Y179911D01*
D02*
G37*
G36*
X224661Y179514D02*
X224051Y179107D01*
X223644Y178497D01*
X224661D01*
Y179514D01*
D02*
G37*
G36*
X221816Y179380D02*
X220799D01*
Y178363D01*
X221408Y178771D01*
X221816Y179380D01*
D02*
G37*
G36*
X219299D02*
X218282D01*
X218689Y178771D01*
X219299Y178363D01*
Y179380D01*
D02*
G37*
G36*
X282786Y177394D02*
X281769D01*
Y176377D01*
X282379Y176785D01*
X282786Y177394D01*
D02*
G37*
G36*
X280269D02*
X279252D01*
X279659Y176785D01*
X280269Y176377D01*
Y177394D01*
D02*
G37*
G36*
X224661Y176997D02*
X223644D01*
X224051Y176387D01*
X224661Y175980D01*
Y176997D01*
D02*
G37*
G36*
X34738Y183451D02*
X30509D01*
Y175384D01*
X31047Y175454D01*
X32248Y175952D01*
X33280Y176743D01*
X34071Y177775D01*
X34569Y178976D01*
X34738Y180264D01*
Y183451D01*
D02*
G37*
G36*
X29009D02*
X24779D01*
Y180264D01*
X24949Y178976D01*
X25446Y177775D01*
X26237Y176743D01*
X27269Y175952D01*
X28470Y175454D01*
X29009Y175384D01*
Y183451D01*
D02*
G37*
G36*
X275428Y174802D02*
X274731Y174663D01*
X274140Y174268D01*
X273746Y173678D01*
X273607Y172981D01*
X273746Y172284D01*
X274140Y171694D01*
X274731Y171299D01*
X275428Y171160D01*
X276125Y171299D01*
X276715Y171694D01*
X277110Y172284D01*
X277249Y172981D01*
X277110Y173678D01*
X276715Y174268D01*
X276125Y174663D01*
X275428Y174802D01*
D02*
G37*
G36*
X203168Y203105D02*
X202356Y202944D01*
X201667Y202484D01*
X201207Y201795D01*
X201046Y200983D01*
X201207Y200171D01*
X201667Y199483D01*
X201740Y199434D01*
Y170615D01*
X201240Y170441D01*
X200740Y170775D01*
Y169009D01*
Y167242D01*
X201240Y167576D01*
X201740Y167402D01*
Y142992D01*
X201740Y142992D01*
X201849Y142446D01*
X202158Y141983D01*
X256472Y87669D01*
X256455Y87583D01*
X256617Y86771D01*
X257077Y86082D01*
X257765Y85622D01*
X258577Y85461D01*
X259389Y85622D01*
X260078Y86082D01*
X260538Y86771D01*
X260699Y87583D01*
X260538Y88395D01*
X260078Y89083D01*
X259389Y89543D01*
X258577Y89705D01*
X258491Y89687D01*
X204595Y143583D01*
Y199434D01*
X204668Y199483D01*
X205128Y200171D01*
X205290Y200983D01*
X205128Y201795D01*
X204668Y202484D01*
X203980Y202944D01*
X203168Y203105D01*
D02*
G37*
G36*
X199240Y170775D02*
X198631Y170368D01*
X198223Y169759D01*
X199240D01*
Y170775D01*
D02*
G37*
G36*
X174768Y175794D02*
X174071Y175656D01*
X173480Y175261D01*
X173086Y174670D01*
X172947Y173974D01*
X173086Y173277D01*
X173480Y172686D01*
X174071Y172291D01*
X174317Y172242D01*
Y171733D01*
X174071Y171684D01*
X173480Y171289D01*
X173086Y170698D01*
X172947Y170002D01*
X173086Y169305D01*
X173480Y168714D01*
X174071Y168319D01*
X174768Y168181D01*
X175465Y168319D01*
X176056Y168714D01*
X176450Y169305D01*
X176589Y170002D01*
X176450Y170698D01*
X176056Y171289D01*
X175465Y171684D01*
X175219Y171733D01*
Y172242D01*
X175465Y172291D01*
X176056Y172686D01*
X176450Y173277D01*
X176589Y173974D01*
X176450Y174670D01*
X176056Y175261D01*
X175465Y175656D01*
X174768Y175794D01*
D02*
G37*
G36*
X168810Y171822D02*
X168113Y171684D01*
X167523Y171289D01*
X167128Y170698D01*
X166989Y170002D01*
X167128Y169305D01*
X167523Y168714D01*
X168113Y168319D01*
X168810Y168181D01*
X169507Y168319D01*
X170097Y168714D01*
X170492Y169305D01*
X170631Y170002D01*
X170492Y170698D01*
X170097Y171289D01*
X169507Y171684D01*
X168810Y171822D01*
D02*
G37*
G36*
X199240Y168259D02*
X198223D01*
X198631Y167649D01*
X199240Y167242D01*
Y168259D01*
D02*
G37*
G36*
X46294Y170283D02*
X43107D01*
Y166054D01*
X51175D01*
X51104Y166593D01*
X50607Y167794D01*
X49815Y168825D01*
X48784Y169616D01*
X47583Y170114D01*
X46294Y170283D01*
D02*
G37*
G36*
X41607D02*
X38420D01*
X37131Y170114D01*
X35930Y169616D01*
X34899Y168825D01*
X34108Y167794D01*
X33610Y166593D01*
X33539Y166054D01*
X41607D01*
Y170283D01*
D02*
G37*
G36*
X173775Y167850D02*
X173078Y167712D01*
X172487Y167317D01*
X172093Y166726D01*
X171954Y166030D01*
X172093Y165333D01*
X172487Y164742D01*
X173078Y164347D01*
X173775Y164209D01*
X174472Y164347D01*
X175063Y164742D01*
X175457Y165333D01*
X175596Y166030D01*
X175457Y166726D01*
X175063Y167317D01*
X174472Y167712D01*
X173775Y167850D01*
D02*
G37*
G36*
X167817D02*
X167120Y167712D01*
X166530Y167317D01*
X166135Y166726D01*
X165996Y166030D01*
X166135Y165333D01*
X166530Y164742D01*
X167120Y164347D01*
X167817Y164209D01*
X168514Y164347D01*
X169105Y164742D01*
X169499Y165333D01*
X169638Y166030D01*
X169499Y166726D01*
X169105Y167317D01*
X168514Y167712D01*
X167817Y167850D01*
D02*
G37*
G36*
X241145Y163824D02*
X240535Y163417D01*
X240128Y162808D01*
X241145D01*
Y163824D01*
D02*
G37*
G36*
X244278Y180065D02*
X243543Y179919D01*
X242919Y179503D01*
X242503Y178879D01*
X242357Y178144D01*
X242503Y177409D01*
X242919Y176786D01*
X243543Y176369D01*
X244156Y176247D01*
X244241Y176163D01*
Y162493D01*
X243741Y162444D01*
X243671Y162793D01*
X243254Y163417D01*
X242645Y163824D01*
Y162058D01*
Y160291D01*
X243254Y160698D01*
X243671Y161322D01*
X243741Y161671D01*
X244241Y161622D01*
Y135445D01*
X244241Y135445D01*
X244349Y134899D01*
X244659Y134436D01*
X282769Y96325D01*
Y94994D01*
X282422Y94474D01*
X282275Y93739D01*
X282422Y93004D01*
X282838Y92381D01*
X283461Y91964D01*
X284197Y91818D01*
X284755Y91929D01*
X285255Y91625D01*
Y90516D01*
X283204Y88464D01*
X279113Y92555D01*
Y93197D01*
X279012Y93704D01*
X278725Y94134D01*
X275104Y97756D01*
X273229D01*
Y95881D01*
X276462Y92648D01*
Y92006D01*
X276563Y91499D01*
X276850Y91068D01*
X281935Y85984D01*
X282365Y85696D01*
X282872Y85596D01*
X283535D01*
X284042Y85696D01*
X284472Y85984D01*
X287518Y89030D01*
X287805Y89460D01*
X287906Y89967D01*
Y97357D01*
X287805Y97864D01*
X287518Y98294D01*
X284331Y101482D01*
Y104353D01*
X284436Y104423D01*
X284874Y105080D01*
X284879Y105104D01*
X281131D01*
X281136Y105080D01*
X281574Y104423D01*
X281680Y104353D01*
Y102106D01*
X281218Y101915D01*
X259629Y123503D01*
X259784Y124055D01*
X260269Y124379D01*
X260383Y124549D01*
X289720D01*
Y84160D01*
X287136Y81576D01*
X286676Y81822D01*
X286715Y82022D01*
X286569Y82758D01*
X286152Y83381D01*
X285542Y83789D01*
Y82022D01*
X284792D01*
Y81272D01*
X283026D01*
X283433Y80662D01*
X284057Y80245D01*
X284406Y80176D01*
X284357Y79676D01*
X261104D01*
X260868Y80117D01*
X260935Y80217D01*
X261096Y81029D01*
X260935Y81841D01*
X260475Y82529D01*
X259786Y82989D01*
X258974Y83151D01*
X258162Y82989D01*
X257474Y82529D01*
X257014Y81841D01*
X256853Y81029D01*
X257014Y80217D01*
X257081Y80117D01*
X256845Y79676D01*
X191053D01*
X190507Y79567D01*
X190044Y79258D01*
X189734Y78795D01*
X189626Y78248D01*
Y65339D01*
X189734Y64793D01*
X190044Y64330D01*
X190507Y64021D01*
X191053Y63912D01*
X260526D01*
Y28598D01*
X260635Y28052D01*
X260944Y27589D01*
X261407Y27280D01*
X261953Y27171D01*
X296063D01*
X296376Y26763D01*
X296795Y26441D01*
Y25832D01*
X296376Y25510D01*
X295854Y24829D01*
X295525Y24035D01*
X295413Y23184D01*
X295525Y22332D01*
X295854Y21539D01*
X296376Y20857D01*
X296795Y20536D01*
Y19926D01*
X296376Y19605D01*
X295854Y18923D01*
X295525Y18130D01*
X295413Y17278D01*
X295525Y16427D01*
X295854Y15633D01*
X296376Y14952D01*
X297058Y14429D01*
X297851Y14100D01*
X298703Y13988D01*
X300672D01*
X301523Y14100D01*
X302317Y14429D01*
X302998Y14952D01*
X303521Y15633D01*
X303850Y16427D01*
X303962Y17278D01*
X303850Y18130D01*
X303521Y18923D01*
X302998Y19605D01*
X302579Y19926D01*
Y20536D01*
X302998Y20857D01*
X303521Y21539D01*
X303850Y22332D01*
X303962Y23184D01*
X303850Y24035D01*
X303521Y24829D01*
X302998Y25510D01*
X302579Y25832D01*
Y26441D01*
X302998Y26763D01*
X303521Y27444D01*
X303850Y28238D01*
X303962Y29089D01*
X303850Y29941D01*
X303521Y30734D01*
X302998Y31416D01*
X302579Y31737D01*
Y32347D01*
X302998Y32668D01*
X303521Y33350D01*
X303850Y34143D01*
X303962Y34995D01*
X303850Y35846D01*
X303521Y36640D01*
X302998Y37321D01*
X302675Y37569D01*
X302675Y38200D01*
X303070Y38502D01*
X303608Y39205D01*
X303947Y40023D01*
X303964Y40150D01*
X299687D01*
X295411D01*
X295427Y40023D01*
X295766Y39205D01*
X296305Y38502D01*
X296700Y38200D01*
X296700Y37569D01*
X296376Y37321D01*
X295854Y36640D01*
X295525Y35846D01*
X295413Y34995D01*
X295525Y34143D01*
X295854Y33350D01*
X296376Y32668D01*
X296795Y32347D01*
Y31737D01*
X296376Y31416D01*
X295854Y30734D01*
X295560Y30026D01*
X286866D01*
X286714Y30526D01*
X287145Y30814D01*
X287552Y31423D01*
X284018D01*
X284426Y30814D01*
X284857Y30526D01*
X284705Y30026D01*
X263381D01*
Y65339D01*
X263272Y65886D01*
X262963Y66349D01*
X262500Y66658D01*
X261953Y66767D01*
X192481D01*
Y76821D01*
X196603D01*
X196782Y76487D01*
X196827Y76321D01*
X196677Y75567D01*
X196838Y74755D01*
X197298Y74067D01*
X197649Y73832D01*
Y73231D01*
X197298Y72996D01*
X196838Y72308D01*
X196677Y71496D01*
X196838Y70684D01*
X197298Y69996D01*
X197987Y69536D01*
X198799Y69374D01*
X199611Y69536D01*
X200299Y69996D01*
X200721Y70627D01*
X284321D01*
X284526Y70127D01*
X284217Y69664D01*
X287751D01*
X287344Y70274D01*
X287137Y70412D01*
Y71013D01*
X287289Y71116D01*
X308702Y92528D01*
X309064Y93069D01*
X309191Y93708D01*
Y155913D01*
X309064Y156552D01*
X308702Y157093D01*
X305988Y159807D01*
X305447Y160168D01*
X304808Y160295D01*
X299195D01*
X298795Y160562D01*
X298099Y160701D01*
X297402Y160562D01*
X296811Y160168D01*
X296416Y159577D01*
X296278Y158880D01*
X296416Y158183D01*
X296720Y157729D01*
X296777Y157390D01*
X296720Y157052D01*
X296416Y156598D01*
X296278Y155901D01*
X296416Y155204D01*
X296811Y154613D01*
X297402Y154219D01*
X298099Y154080D01*
X298795Y154219D01*
X299195Y154486D01*
X303093D01*
X303381Y154198D01*
Y122036D01*
X302881Y121884D01*
X302701Y122154D01*
X302110Y122548D01*
X301413Y122687D01*
X300717Y122548D01*
X300126Y122154D01*
X299731Y121563D01*
X299593Y120866D01*
X299731Y120169D01*
X300126Y119579D01*
X300717Y119184D01*
X301413Y119045D01*
X302110Y119184D01*
X302701Y119579D01*
X302881Y119849D01*
X303381Y119697D01*
Y95423D01*
X293037Y85079D01*
X292575Y85270D01*
Y125976D01*
X292466Y126523D01*
X292157Y126986D01*
X291694Y127295D01*
X291148Y127404D01*
X259501D01*
X259451Y127394D01*
X258982Y127487D01*
X258285Y127349D01*
X257694Y126954D01*
X257370Y126469D01*
X256819Y126313D01*
X247096Y136037D01*
Y176754D01*
X247096Y176754D01*
X246987Y177300D01*
X246678Y177763D01*
X246175Y178266D01*
X246053Y178879D01*
X245637Y179503D01*
X245013Y179919D01*
X244278Y180065D01*
D02*
G37*
G36*
X51175Y164554D02*
X43107D01*
Y160324D01*
X46294D01*
X47583Y160494D01*
X48784Y160991D01*
X49815Y161783D01*
X50607Y162814D01*
X51104Y164015D01*
X51175Y164554D01*
D02*
G37*
G36*
X41607D02*
X33539D01*
X33610Y164015D01*
X34108Y162814D01*
X34899Y161783D01*
X35930Y160991D01*
X37131Y160494D01*
X38420Y160324D01*
X41607D01*
Y164554D01*
D02*
G37*
G36*
X241145Y161308D02*
X240128D01*
X240535Y160698D01*
X241145Y160291D01*
Y161308D01*
D02*
G37*
G36*
X43339Y158065D02*
X42730Y157658D01*
X42322Y157048D01*
X43339D01*
Y158065D01*
D02*
G37*
G36*
X252972Y156874D02*
Y155857D01*
X253989D01*
X253582Y156466D01*
X252972Y156874D01*
D02*
G37*
G36*
X251472D02*
X250862Y156466D01*
X250455Y155857D01*
X251472D01*
Y156874D01*
D02*
G37*
G36*
X98263Y155285D02*
Y154268D01*
X99279D01*
X98872Y154877D01*
X98263Y155285D01*
D02*
G37*
G36*
X96763D02*
X96153Y154877D01*
X95746Y154268D01*
X96763D01*
Y155285D01*
D02*
G37*
G36*
X81977Y155086D02*
Y154069D01*
X82994D01*
X82587Y154679D01*
X81977Y155086D01*
D02*
G37*
G36*
X80477D02*
X79868Y154679D01*
X79461Y154069D01*
X80477D01*
Y155086D01*
D02*
G37*
G36*
X253989Y154357D02*
X252972D01*
Y153340D01*
X253582Y153747D01*
X253989Y154357D01*
D02*
G37*
G36*
X251472D02*
X250455D01*
X250862Y153747D01*
X251472Y153340D01*
Y154357D01*
D02*
G37*
G36*
X99279Y152768D02*
X98263D01*
Y151751D01*
X98872Y152158D01*
X99279Y152768D01*
D02*
G37*
G36*
X96763D02*
X95746D01*
X96153Y152158D01*
X96763Y151751D01*
Y152768D01*
D02*
G37*
G36*
X82994Y152569D02*
X81977D01*
Y151552D01*
X82587Y151960D01*
X82994Y152569D01*
D02*
G37*
G36*
X80477D02*
X79461D01*
X79868Y151960D01*
X80477Y151552D01*
Y152569D01*
D02*
G37*
G36*
X242248Y152306D02*
Y151289D01*
X243265D01*
X242857Y151898D01*
X242248Y152306D01*
D02*
G37*
G36*
X240748D02*
X240138Y151898D01*
X239731Y151289D01*
X240748D01*
Y152306D01*
D02*
G37*
G36*
X243265Y149789D02*
X242248D01*
Y148772D01*
X242857Y149179D01*
X243265Y149789D01*
D02*
G37*
G36*
X240748D02*
X239731D01*
X240138Y149179D01*
X240748Y148772D01*
Y149789D01*
D02*
G37*
G36*
X158240Y136219D02*
Y135202D01*
X159257D01*
X158849Y135812D01*
X158240Y136219D01*
D02*
G37*
G36*
X156740D02*
X156130Y135812D01*
X155723Y135202D01*
X156740D01*
Y136219D01*
D02*
G37*
G36*
X159257Y133702D02*
X158240D01*
Y132685D01*
X158849Y133093D01*
X159257Y133702D01*
D02*
G37*
G36*
X156740D02*
X155723D01*
X156130Y133093D01*
X156740Y132685D01*
Y133702D01*
D02*
G37*
G36*
X288720Y133240D02*
Y132223D01*
X289737D01*
X289330Y132833D01*
X288720Y133240D01*
D02*
G37*
G36*
X287220D02*
X286610Y132833D01*
X286203Y132223D01*
X287220D01*
Y133240D01*
D02*
G37*
G36*
X81724Y135657D02*
X80912Y135496D01*
X80224Y135036D01*
X79764Y134347D01*
X79602Y133535D01*
X79764Y132723D01*
X80224Y132035D01*
X80912Y131575D01*
X81724Y131414D01*
X82536Y131575D01*
X83225Y132035D01*
X83685Y132723D01*
X83846Y133535D01*
X83685Y134347D01*
X83225Y135036D01*
X82536Y135496D01*
X81724Y135657D01*
D02*
G37*
G36*
X86516Y135598D02*
X85704Y135437D01*
X85015Y134977D01*
X84555Y134288D01*
X84394Y133476D01*
X84555Y132664D01*
X85015Y131976D01*
X85704Y131516D01*
X86516Y131354D01*
X87328Y131516D01*
X88016Y131976D01*
X88476Y132664D01*
X88638Y133476D01*
X88476Y134288D01*
X88016Y134977D01*
X87328Y135437D01*
X86516Y135598D01*
D02*
G37*
G36*
X22672Y141108D02*
X21409Y140942D01*
X20233Y140454D01*
X19222Y139679D01*
X18447Y138669D01*
X17959Y137492D01*
X17793Y136229D01*
X17959Y134967D01*
X18447Y133790D01*
X19222Y132780D01*
X20233Y132004D01*
X21409Y131517D01*
X22672Y131351D01*
X23935Y131517D01*
X25111Y132004D01*
X26122Y132780D01*
X26897Y133790D01*
X27384Y134967D01*
X27551Y136229D01*
X27384Y137492D01*
X26897Y138669D01*
X26122Y139679D01*
X25111Y140454D01*
X23935Y140942D01*
X22672Y141108D01*
D02*
G37*
G36*
X91598Y135303D02*
X90786Y135142D01*
X90098Y134681D01*
X89638Y133993D01*
X89477Y133181D01*
X89638Y132369D01*
X90098Y131681D01*
X90786Y131221D01*
X91598Y131059D01*
X92410Y131221D01*
X93099Y131681D01*
X93559Y132369D01*
X93720Y133181D01*
X93559Y133993D01*
X93099Y134681D01*
X92410Y135142D01*
X91598Y135303D01*
D02*
G37*
G36*
X180284Y131651D02*
Y130634D01*
X181301D01*
X180894Y131244D01*
X180284Y131651D01*
D02*
G37*
G36*
X178784D02*
X178175Y131244D01*
X177768Y130634D01*
X178784D01*
Y131651D01*
D02*
G37*
G36*
X96803Y134827D02*
X95991Y134665D01*
X95303Y134205D01*
X94843Y133517D01*
X94681Y132705D01*
X94843Y131893D01*
X95303Y131204D01*
X95991Y130744D01*
X96803Y130583D01*
X97615Y130744D01*
X98304Y131204D01*
X98764Y131893D01*
X98925Y132705D01*
X98764Y133517D01*
X98304Y134205D01*
X97615Y134665D01*
X96803Y134827D01*
D02*
G37*
G36*
X289737Y130723D02*
X288720D01*
Y129706D01*
X289330Y130114D01*
X289737Y130723D01*
D02*
G37*
G36*
X287220D02*
X286203D01*
X286610Y130114D01*
X287220Y129706D01*
Y130723D01*
D02*
G37*
G36*
X277841Y133396D02*
X277029Y133235D01*
X276341Y132775D01*
X275881Y132087D01*
X275719Y131275D01*
X275881Y130463D01*
X276341Y129774D01*
X277029Y129314D01*
X277841Y129153D01*
X278653Y129314D01*
X279342Y129774D01*
X279802Y130463D01*
X279963Y131275D01*
X279802Y132087D01*
X279342Y132775D01*
X278653Y133235D01*
X277841Y133396D01*
D02*
G37*
G36*
X225455Y129730D02*
X224439D01*
X224846Y129121D01*
X225455Y128713D01*
Y129730D01*
D02*
G37*
G36*
X181301Y129134D02*
X180284D01*
Y128118D01*
X180894Y128525D01*
X181301Y129134D01*
D02*
G37*
G36*
X178784D02*
X177768D01*
X178175Y128525D01*
X178784Y128118D01*
Y129134D01*
D02*
G37*
G36*
X209479Y118742D02*
Y117725D01*
X210495D01*
X210088Y118335D01*
X209479Y118742D01*
D02*
G37*
G36*
X207979D02*
X207369Y118335D01*
X206962Y117725D01*
X207979D01*
Y118742D01*
D02*
G37*
G36*
X210495Y116225D02*
X209479D01*
Y115208D01*
X210088Y115616D01*
X210495Y116225D01*
D02*
G37*
G36*
X207979D02*
X206962D01*
X207369Y115616D01*
X207979Y115208D01*
Y116225D01*
D02*
G37*
G36*
X283755Y107728D02*
Y106604D01*
X284879D01*
X284874Y106628D01*
X284436Y107284D01*
X283779Y107723D01*
X283755Y107728D01*
D02*
G37*
G36*
X282255D02*
X282231Y107723D01*
X281574Y107284D01*
X281136Y106628D01*
X281131Y106604D01*
X282255D01*
Y107728D01*
D02*
G37*
G36*
X225014Y112742D02*
X224202Y112581D01*
X223513Y112121D01*
X223054Y111432D01*
X222892Y110620D01*
X223054Y109808D01*
X223513Y109120D01*
X223211Y108742D01*
X222918Y108546D01*
X222458Y107857D01*
X222296Y107045D01*
X222458Y106233D01*
X222918Y105545D01*
X223606Y105085D01*
X224418Y104923D01*
X225230Y105085D01*
X225918Y105545D01*
X226378Y106233D01*
X226540Y107045D01*
X226378Y107857D01*
X225918Y108546D01*
X226221Y108924D01*
X226514Y109120D01*
X226974Y109808D01*
X227136Y110620D01*
X226974Y111432D01*
X226514Y112121D01*
X225826Y112581D01*
X225014Y112742D01*
D02*
G37*
G36*
X182191Y113953D02*
X180928Y113787D01*
X179751Y113300D01*
X178741Y112524D01*
X177966Y111514D01*
X177478Y110337D01*
X177312Y109074D01*
X177478Y107812D01*
X177966Y106635D01*
X178741Y105625D01*
X179751Y104849D01*
X180928Y104362D01*
X182191Y104196D01*
X183454Y104362D01*
X184630Y104849D01*
X185641Y105625D01*
X186416Y106635D01*
X186903Y107812D01*
X187070Y109074D01*
X186903Y110337D01*
X186416Y111514D01*
X185641Y112524D01*
X184630Y113300D01*
X183454Y113787D01*
X182191Y113953D01*
D02*
G37*
G36*
X273229Y100380D02*
Y99256D01*
X274353D01*
X274348Y99280D01*
X273910Y99936D01*
X273253Y100375D01*
X273229Y100380D01*
D02*
G37*
G36*
X271729D02*
X271705Y100375D01*
X271049Y99936D01*
X270610Y99280D01*
X270605Y99256D01*
X271729D01*
Y100380D01*
D02*
G37*
G36*
Y97756D02*
X270605D01*
X270610Y97731D01*
X271049Y97075D01*
X271705Y96636D01*
X271729Y96632D01*
Y97756D01*
D02*
G37*
G36*
X168271Y100135D02*
X166982Y99965D01*
X165782Y99468D01*
X165350Y99137D01*
X168271Y96216D01*
X171192Y99137D01*
X170761Y99468D01*
X169560Y99965D01*
X168271Y100135D01*
D02*
G37*
G36*
X211906Y207474D02*
X211094Y207313D01*
X210406Y206853D01*
X209946Y206164D01*
X209784Y205352D01*
X209946Y204540D01*
X210406Y203852D01*
X210479Y203803D01*
Y148968D01*
X210479Y148968D01*
X210587Y148422D01*
X210897Y147959D01*
X215383Y143473D01*
X215166Y142982D01*
X214626Y142875D01*
X214035Y142480D01*
X213641Y141890D01*
X213502Y141193D01*
X213641Y140496D01*
X214035Y139905D01*
X214626Y139511D01*
X215323Y139372D01*
X216020Y139511D01*
X216610Y139905D01*
X217005Y140496D01*
X217112Y141036D01*
X217603Y141253D01*
X225987Y132869D01*
X225822Y132327D01*
X225470Y132257D01*
X224846Y131840D01*
X224439Y131230D01*
X226205D01*
Y130480D01*
X226955D01*
Y128713D01*
X227565Y129121D01*
X227982Y129744D01*
X228052Y130097D01*
X228594Y130261D01*
X255329Y103526D01*
X255219Y103164D01*
X255134Y103015D01*
X254495Y102588D01*
X254035Y101899D01*
X253873Y101087D01*
X254035Y100275D01*
X254495Y99587D01*
X255183Y99127D01*
X255995Y98966D01*
X256749Y99115D01*
X256915Y99070D01*
X257249Y98892D01*
Y96546D01*
X257077Y96431D01*
X256617Y95743D01*
X256455Y94931D01*
X256617Y94119D01*
X257077Y93430D01*
X257765Y92971D01*
X258577Y92809D01*
X259389Y92971D01*
X260078Y93430D01*
X260538Y94119D01*
X260699Y94931D01*
X260538Y95743D01*
X260104Y96392D01*
Y102198D01*
X259995Y102744D01*
X259686Y103207D01*
X259686Y103207D01*
X213334Y149559D01*
Y203803D01*
X213407Y203852D01*
X213867Y204540D01*
X214028Y205352D01*
X213867Y206164D01*
X213407Y206853D01*
X212718Y207313D01*
X211906Y207474D01*
D02*
G37*
G36*
X147913Y93719D02*
Y92702D01*
X148930D01*
X148522Y93311D01*
X147913Y93719D01*
D02*
G37*
G36*
X146413D02*
X145803Y93311D01*
X145396Y92702D01*
X146413D01*
Y93719D01*
D02*
G37*
G36*
X164290Y98076D02*
X163959Y97645D01*
X163461Y96444D01*
X163292Y95155D01*
X163461Y93866D01*
X163959Y92665D01*
X164290Y92234D01*
X167211Y95155D01*
X164290Y98076D01*
D02*
G37*
G36*
X172253Y98076D02*
X169332Y95155D01*
X172253Y92234D01*
X172584Y92665D01*
X173081Y93866D01*
X173251Y95155D01*
X173081Y96444D01*
X172584Y97645D01*
X172253Y98076D01*
D02*
G37*
G36*
X148930Y91202D02*
X147913D01*
Y90185D01*
X148522Y90592D01*
X148930Y91202D01*
D02*
G37*
G36*
X146413D02*
X145396D01*
X145803Y90592D01*
X146413Y90185D01*
Y91202D01*
D02*
G37*
G36*
X168271Y94094D02*
X165350Y91173D01*
X165782Y90843D01*
X166982Y90345D01*
X168271Y90175D01*
X169560Y90345D01*
X170761Y90843D01*
X171192Y91173D01*
X168271Y94094D01*
D02*
G37*
G36*
X267271Y85378D02*
Y84361D01*
X268288D01*
X267881Y84970D01*
X267271Y85378D01*
D02*
G37*
G36*
X265771D02*
X265162Y84970D01*
X264754Y84361D01*
X265771D01*
Y85378D01*
D02*
G37*
G36*
X284042Y83789D02*
X283433Y83381D01*
X283026Y82772D01*
X284042D01*
Y83789D01*
D02*
G37*
G36*
X268288Y82861D02*
X267271D01*
Y81844D01*
X267881Y82251D01*
X268288Y82861D01*
D02*
G37*
G36*
X265771D02*
X264754D01*
X265162Y82251D01*
X265771Y81844D01*
Y82861D01*
D02*
G37*
G36*
X287751Y68164D02*
X286734D01*
Y67147D01*
X287344Y67555D01*
X287751Y68164D01*
D02*
G37*
G36*
X285234D02*
X284217D01*
X284624Y67555D01*
X285234Y67147D01*
Y68164D01*
D02*
G37*
G36*
X273075Y54354D02*
X272263Y54192D01*
X271575Y53732D01*
X271115Y53044D01*
X270953Y52232D01*
X271115Y51420D01*
X271575Y50731D01*
X272263Y50271D01*
X273075Y50110D01*
X273887Y50271D01*
X274575Y50731D01*
X275035Y51420D01*
X275197Y52232D01*
X275035Y53044D01*
X274575Y53732D01*
X273887Y54192D01*
X273075Y54354D01*
D02*
G37*
G36*
X289360Y53957D02*
X288548Y53795D01*
X287860Y53335D01*
X287400Y52647D01*
X287238Y51835D01*
X287400Y51023D01*
X287860Y50334D01*
X288548Y49874D01*
X289360Y49713D01*
X290172Y49874D01*
X290861Y50334D01*
X291321Y51023D01*
X291482Y51835D01*
X291321Y52647D01*
X290861Y53335D01*
X290172Y53795D01*
X289360Y53957D01*
D02*
G37*
G36*
X280225D02*
X279413Y53795D01*
X278724Y53335D01*
X278264Y52647D01*
X278103Y51835D01*
X278264Y51023D01*
X278724Y50334D01*
X279413Y49874D01*
X280225Y49713D01*
X281037Y49874D01*
X281725Y50334D01*
X282185Y51023D01*
X282347Y51835D01*
X282185Y52647D01*
X281725Y53335D01*
X281037Y53795D01*
X280225Y53957D01*
D02*
G37*
G36*
X213427Y49342D02*
Y48325D01*
X214444D01*
X214037Y48934D01*
X213427Y49342D01*
D02*
G37*
G36*
X211927D02*
X211318Y48934D01*
X210910Y48325D01*
X211927D01*
Y49342D01*
D02*
G37*
G36*
X214444Y46825D02*
X213427D01*
Y45808D01*
X214037Y46215D01*
X214444Y46825D01*
D02*
G37*
G36*
X211927D02*
X210910D01*
X211318Y46215D01*
X211927Y45808D01*
Y46825D01*
D02*
G37*
G36*
X178934Y51878D02*
Y43810D01*
X183163D01*
Y46997D01*
X182994Y48285D01*
X182496Y49487D01*
X181705Y50518D01*
X180674Y51309D01*
X179473Y51807D01*
X178934Y51878D01*
D02*
G37*
G36*
X177434D02*
X176895Y51807D01*
X175694Y51309D01*
X174663Y50518D01*
X173871Y49487D01*
X173374Y48285D01*
X173204Y46997D01*
Y43810D01*
X177434D01*
Y51878D01*
D02*
G37*
G36*
X300672Y50096D02*
X298703D01*
X297851Y49984D01*
X297058Y49655D01*
X296376Y49132D01*
X295854Y48451D01*
X295525Y47657D01*
X295413Y46806D01*
X295525Y45954D01*
X295854Y45161D01*
X296376Y44479D01*
X296700Y44231D01*
X296700Y43601D01*
X296305Y43298D01*
X295766Y42596D01*
X295427Y41778D01*
X295411Y41650D01*
X299687D01*
X303964D01*
X303947Y41778D01*
X303608Y42596D01*
X303070Y43298D01*
X302675Y43601D01*
X302675Y44231D01*
X302998Y44479D01*
X303521Y45161D01*
X303850Y45954D01*
X303962Y46806D01*
X303850Y47657D01*
X303521Y48451D01*
X302998Y49132D01*
X302317Y49655D01*
X301523Y49984D01*
X300672Y50096D01*
D02*
G37*
G36*
X52756Y143854D02*
X51944Y143692D01*
X51255Y143232D01*
X50795Y142544D01*
X50634Y141732D01*
X50795Y140920D01*
X51255Y140232D01*
X51944Y139772D01*
X51985Y139763D01*
X83276Y108473D01*
X83904Y108053D01*
X84645Y107905D01*
X119207D01*
X120152Y107433D01*
Y103149D01*
X120206Y102876D01*
X120361Y102645D01*
X120593Y102490D01*
X120866Y102436D01*
X134472D01*
X135530Y100993D01*
X134739Y78552D01*
X134739Y78552D01*
X134667Y76496D01*
X134672Y76436D01*
X134665Y76376D01*
Y74399D01*
X134709Y74062D01*
X134732Y73722D01*
X134767Y73619D01*
X134781Y73511D01*
X134912Y73197D01*
X135022Y72875D01*
X135082Y72785D01*
X135124Y72684D01*
X135331Y72414D01*
X135521Y72132D01*
X136770Y70715D01*
X147940Y58039D01*
X147531Y57505D01*
X147083Y56424D01*
X146931Y55264D01*
X147083Y54105D01*
X147531Y53024D01*
X148243Y52095D01*
X149171Y51383D01*
X150252Y50936D01*
X151412Y50783D01*
X158499D01*
X159659Y50936D01*
X160740Y51383D01*
X161668Y52095D01*
X162380Y53024D01*
X162770Y53966D01*
X222171D01*
X227010Y47213D01*
X228481Y42557D01*
X228614Y41887D01*
X229074Y41199D01*
X229763Y40739D01*
X230575Y40577D01*
X231387Y40739D01*
X232075Y41199D01*
X232535Y41887D01*
X232697Y42699D01*
X232535Y43511D01*
X232386Y43733D01*
X230907Y48417D01*
X230907Y48417D01*
X230802Y48751D01*
X230647Y49033D01*
X230515Y49325D01*
X225534Y56275D01*
X224876Y57193D01*
X224754Y57308D01*
X224660Y57447D01*
X224466Y57577D01*
X224295Y57737D01*
X224138Y57796D01*
X223999Y57889D01*
X223769Y57935D01*
X223551Y58017D01*
X223383Y58012D01*
X223218Y58044D01*
X161966D01*
X161668Y58433D01*
X160740Y59146D01*
X159659Y59593D01*
X158499Y59746D01*
X155577D01*
X141916Y75249D01*
X141523Y75694D01*
Y76315D01*
X141594Y78311D01*
X142388Y100860D01*
X143256Y102585D01*
X143259Y102586D01*
X143321Y102629D01*
X143396Y102708D01*
X143478Y102778D01*
X143524Y102838D01*
X143572Y102935D01*
X143629Y103027D01*
X143642Y103063D01*
X143642Y103063D01*
X147519Y113531D01*
X147527Y113580D01*
X147547Y113625D01*
X147549Y113716D01*
X147563Y113806D01*
X147552Y113854D01*
X147553Y113903D01*
X146372Y120596D01*
X146344Y120669D01*
X146328Y120745D01*
X146294Y120797D01*
X146271Y120856D01*
X146217Y120912D01*
X146174Y120977D01*
X146122Y121012D01*
X146078Y121057D01*
X146007Y121088D01*
X145942Y121132D01*
X145881Y121144D01*
X145823Y121169D01*
X145746Y121171D01*
X145669Y121186D01*
X121260D01*
X120986Y121132D01*
X120755Y120977D01*
X120361Y120583D01*
X120206Y120352D01*
X120152Y120079D01*
Y112109D01*
X119275Y111779D01*
X85448D01*
X54724Y142503D01*
X54716Y142544D01*
X54256Y143232D01*
X53568Y143692D01*
X52756Y143854D01*
D02*
G37*
G36*
X257738Y40692D02*
Y39676D01*
X258755D01*
X258348Y40285D01*
X257738Y40692D01*
D02*
G37*
G36*
X256238D02*
X255629Y40285D01*
X255222Y39676D01*
X256238D01*
Y40692D01*
D02*
G37*
G36*
X258755Y38176D02*
X257738D01*
Y37159D01*
X258348Y37566D01*
X258755Y38176D01*
D02*
G37*
G36*
X256238D02*
X255222D01*
X255629Y37566D01*
X256238Y37159D01*
Y38176D01*
D02*
G37*
G36*
X177434Y42310D02*
X173204D01*
Y39123D01*
X173374Y37834D01*
X173871Y36633D01*
X174663Y35602D01*
X175694Y34810D01*
X176895Y34313D01*
X177434Y34242D01*
Y42310D01*
D02*
G37*
G36*
X183163D02*
X178934D01*
Y34242D01*
X179473Y34313D01*
X180674Y34810D01*
X181705Y35602D01*
X182496Y36633D01*
X182994Y37834D01*
X183163Y39123D01*
Y42310D01*
D02*
G37*
G36*
X286535Y33940D02*
Y32923D01*
X287552D01*
X287145Y33533D01*
X286535Y33940D01*
D02*
G37*
G36*
X285035D02*
X284426Y33533D01*
X284018Y32923D01*
X285035D01*
Y33940D01*
D02*
G37*
G36*
X163223Y35441D02*
X160036D01*
Y31211D01*
X168104D01*
X168033Y31750D01*
X167536Y32951D01*
X166744Y33982D01*
X165713Y34774D01*
X164512Y35271D01*
X163223Y35441D01*
D02*
G37*
G36*
X158536D02*
X155349D01*
X154060Y35271D01*
X152859Y34774D01*
X151828Y33982D01*
X151037Y32951D01*
X150539Y31750D01*
X150468Y31211D01*
X158536D01*
Y35441D01*
D02*
G37*
G36*
X76787Y28510D02*
X75770D01*
Y27493D01*
X76379Y27900D01*
X76787Y28510D01*
D02*
G37*
G36*
X74270D02*
X73253D01*
X73660Y27900D01*
X74270Y27493D01*
Y28510D01*
D02*
G37*
G36*
X168104Y29711D02*
X160036D01*
Y25482D01*
X163223D01*
X164512Y25651D01*
X165713Y26149D01*
X166744Y26940D01*
X167536Y27972D01*
X168033Y29173D01*
X168104Y29711D01*
D02*
G37*
G36*
X158536D02*
X150468D01*
X150539Y29173D01*
X151037Y27972D01*
X151828Y26940D01*
X152859Y26149D01*
X154060Y25651D01*
X155349Y25482D01*
X158536D01*
Y29711D01*
D02*
G37*
G36*
X213937Y28982D02*
X213240Y28844D01*
X212649Y28449D01*
X212255Y27858D01*
X212116Y27161D01*
X212255Y26465D01*
X212649Y25874D01*
X213240Y25479D01*
X213937Y25341D01*
X214634Y25479D01*
X215225Y25874D01*
X215619Y26465D01*
X215758Y27161D01*
X215619Y27858D01*
X215225Y28449D01*
X214634Y28844D01*
X213937Y28982D01*
D02*
G37*
G36*
X52430Y15723D02*
X51734Y15584D01*
X51143Y15190D01*
X50748Y14599D01*
X50610Y13902D01*
X50748Y13205D01*
X51143Y12615D01*
X51734Y12220D01*
X52430Y12081D01*
X53127Y12220D01*
X53718Y12615D01*
X54113Y13205D01*
X54251Y13902D01*
X54113Y14599D01*
X53718Y15190D01*
X53127Y15584D01*
X52430Y15723D01*
D02*
G37*
G36*
X38153Y13691D02*
X34619D01*
X35026Y13081D01*
X35650Y12664D01*
X35928Y12609D01*
Y12099D01*
X35650Y12044D01*
X35026Y11627D01*
X34619Y11018D01*
X38153D01*
X37745Y11627D01*
X37122Y12044D01*
X36844Y12099D01*
Y12609D01*
X37122Y12664D01*
X37745Y13081D01*
X38153Y13691D01*
D02*
G37*
G36*
X56005Y12148D02*
X55308Y12009D01*
X54718Y11615D01*
X54323Y11024D01*
X54184Y10327D01*
X54323Y9630D01*
X54718Y9040D01*
X55308Y8645D01*
X56005Y8506D01*
X56702Y8645D01*
X57293Y9040D01*
X57687Y9630D01*
X57826Y10327D01*
X57687Y11024D01*
X57293Y11615D01*
X56702Y12009D01*
X56005Y12148D01*
D02*
G37*
G36*
X38153Y9518D02*
X37136D01*
Y8501D01*
X37745Y8908D01*
X38153Y9518D01*
D02*
G37*
G36*
X35636D02*
X34619D01*
X35026Y8908D01*
X35636Y8501D01*
Y9518D01*
D02*
G37*
G36*
X159286Y17822D02*
X157972Y17649D01*
X156748Y17142D01*
X155696Y16335D01*
X154889Y15283D01*
X154382Y14059D01*
X154209Y12745D01*
X154382Y11431D01*
X154889Y10206D01*
X155696Y9155D01*
X156748Y8348D01*
X157972Y7840D01*
X159286Y7667D01*
X160600Y7840D01*
X161825Y8348D01*
X162876Y9155D01*
X163683Y10206D01*
X164190Y11431D01*
X164364Y12745D01*
X164190Y14059D01*
X163683Y15283D01*
X162876Y16335D01*
X161825Y17142D01*
X160600Y17649D01*
X159286Y17822D01*
D02*
G37*
G36*
X49451Y11155D02*
X48755Y11016D01*
X48164Y10622D01*
X47769Y10031D01*
X47631Y9334D01*
X47769Y8637D01*
X48164Y8047D01*
X48755Y7652D01*
X49451Y7513D01*
X50148Y7652D01*
X50739Y8047D01*
X51134Y8637D01*
X51272Y9334D01*
X51134Y10031D01*
X50739Y10622D01*
X50148Y11016D01*
X49451Y11155D01*
D02*
G37*
G36*
X112355Y12625D02*
X111658Y12533D01*
X111008Y12264D01*
X110450Y11835D01*
X110021Y11277D01*
X109752Y10627D01*
X109660Y9930D01*
X109752Y9233D01*
X110021Y8583D01*
X110450Y8025D01*
X111008Y7596D01*
X111658Y7327D01*
X112355Y7235D01*
X113052Y7327D01*
X113702Y7596D01*
X114260Y8025D01*
X114689Y8583D01*
X114958Y9233D01*
X115050Y9930D01*
X114958Y10627D01*
X114689Y11277D01*
X114260Y11835D01*
X113702Y12264D01*
X113052Y12533D01*
X112355Y12625D01*
D02*
G37*
G36*
X100544D02*
X99847Y12533D01*
X99197Y12264D01*
X98639Y11835D01*
X98210Y11277D01*
X97941Y10627D01*
X97849Y9930D01*
X97941Y9233D01*
X98210Y8583D01*
X98639Y8025D01*
X99197Y7596D01*
X99847Y7327D01*
X100544Y7235D01*
X101242Y7327D01*
X101891Y7596D01*
X102450Y8025D01*
X102878Y8583D01*
X103147Y9233D01*
X103239Y9930D01*
X103147Y10627D01*
X102878Y11277D01*
X102450Y11835D01*
X101891Y12264D01*
X101242Y12533D01*
X100544Y12625D01*
D02*
G37*
%LPD*%
G36*
X146850Y113779D02*
X142973Y103311D01*
X142973D01*
X142960Y103275D01*
X142913Y103215D01*
X142851Y103172D01*
X142779Y103149D01*
X142741D01*
X141403Y100492D01*
X140694Y103149D01*
X137098D01*
X136637Y100690D01*
X134833Y103149D01*
X120866D01*
Y107874D01*
X119291Y108661D01*
Y109055D01*
X120866D01*
Y110630D01*
X119209Y110815D01*
X119291Y111023D01*
X120866Y111614D01*
Y120079D01*
X121260Y120472D01*
X145669D01*
X146850Y113779D01*
D02*
G37*
%LPC*%
G36*
X351059Y153430D02*
Y151284D01*
X353204D01*
X353201Y151309D01*
X352902Y152031D01*
X352426Y152651D01*
X351806Y153127D01*
X351084Y153426D01*
X351059Y153430D01*
D02*
G37*
G36*
X381534Y128156D02*
X377034D01*
Y127239D01*
X376022D01*
Y128156D01*
X371522D01*
Y127699D01*
X371183Y127278D01*
X364826D01*
Y127437D01*
X358781D01*
Y123753D01*
X364826D01*
Y123913D01*
X371026D01*
X371222Y123874D01*
X371522D01*
Y122956D01*
X376022D01*
Y123874D01*
X377034D01*
Y122956D01*
X381534D01*
Y128156D01*
D02*
G37*
G36*
X328071Y128704D02*
X325262D01*
Y127076D01*
X328071D01*
Y128704D01*
D02*
G37*
G36*
X388227Y128156D02*
X383727D01*
Y122956D01*
X388227D01*
Y123874D01*
X389699D01*
X389701Y123873D01*
X390001Y123518D01*
Y123084D01*
X397700D01*
Y128027D01*
X390001D01*
Y127594D01*
X389701Y127239D01*
X388227D01*
Y128156D01*
D02*
G37*
G36*
X364826Y122437D02*
X358781D01*
Y118753D01*
X364589D01*
X365276Y118067D01*
X365821Y117702D01*
X366465Y117574D01*
X371522D01*
Y116656D01*
X376022D01*
Y117574D01*
X377034D01*
Y116656D01*
X377056D01*
X377427Y116345D01*
X377427Y116156D01*
Y115427D01*
X367673D01*
X366316Y116785D01*
X365770Y117149D01*
X365126Y117278D01*
X364826D01*
Y117437D01*
X358781D01*
Y113753D01*
X364589D01*
X365661Y112681D01*
X365415Y112220D01*
X365126Y112277D01*
X364826D01*
Y112437D01*
X358781D01*
Y108753D01*
X364589D01*
X367087Y106256D01*
X367633Y105891D01*
X368276Y105763D01*
X377427D01*
Y104845D01*
X381927D01*
Y105204D01*
X382370Y105485D01*
X382427Y105490D01*
X383033Y105369D01*
X383333Y105014D01*
Y104451D01*
X387833D01*
Y105369D01*
X389046D01*
X389065Y105357D01*
X389708Y105229D01*
X390008Y104874D01*
Y104439D01*
X397708D01*
Y109383D01*
X390008D01*
Y109040D01*
X389622Y108723D01*
X389568Y108734D01*
X387833D01*
Y109651D01*
X383333D01*
Y109499D01*
X382833Y109089D01*
X382639Y109127D01*
X381927D01*
Y110045D01*
X377427D01*
Y109127D01*
X368973D01*
X366441Y111660D01*
X366687Y112120D01*
X366976Y112063D01*
X366976Y112063D01*
X377427D01*
Y111145D01*
X381927D01*
Y111297D01*
X382428Y111708D01*
X382621Y111669D01*
X382621Y111669D01*
X383333D01*
Y110751D01*
X387833D01*
Y111669D01*
X388133D01*
X388777Y111797D01*
X389323Y112162D01*
X389501Y112340D01*
X390001Y112177D01*
Y111667D01*
X397700D01*
Y116610D01*
X390001D01*
Y115821D01*
X388920D01*
X388333Y115704D01*
X388173Y115745D01*
X387833Y115927D01*
Y115951D01*
X383333D01*
Y115592D01*
X382890Y115312D01*
X382833Y115307D01*
X382227Y115427D01*
X381927D01*
Y116345D01*
X381905D01*
X381534Y116656D01*
X381534Y116845D01*
Y117574D01*
X383727D01*
Y116656D01*
X388227D01*
Y121856D01*
X383727D01*
Y120939D01*
X381534D01*
Y121856D01*
X377034D01*
Y120939D01*
X376022D01*
Y121856D01*
X371522D01*
Y120939D01*
X367162D01*
X366316Y121785D01*
X365770Y122149D01*
X365126Y122277D01*
X364826D01*
Y122437D01*
D02*
G37*
G36*
X327853Y117870D02*
X325703D01*
Y116070D01*
X327853D01*
Y117870D01*
D02*
G37*
G36*
X328246Y109648D02*
X326096D01*
Y107848D01*
X328246D01*
Y109648D01*
D02*
G37*
G36*
X324596D02*
X322446D01*
Y107848D01*
X324596D01*
Y109648D01*
D02*
G37*
G36*
X334955Y103658D02*
X330799D01*
Y97140D01*
X334955D01*
Y98717D01*
X335255D01*
X335899Y98845D01*
X336000Y98913D01*
X337836D01*
Y98753D01*
X343881D01*
Y102437D01*
X337836D01*
Y102278D01*
X335451D01*
X335342Y102256D01*
X334955Y102573D01*
Y103658D01*
D02*
G37*
G36*
X327475D02*
X323319D01*
Y97140D01*
X323714D01*
Y96840D01*
X323842Y96197D01*
X324030Y95916D01*
X323870Y95416D01*
X323174D01*
Y90916D01*
X328374D01*
Y95416D01*
X327456D01*
Y96463D01*
X327456Y96463D01*
X327421Y96640D01*
X327475Y97140D01*
X327475Y97140D01*
X327475Y97140D01*
Y103658D01*
D02*
G37*
G36*
X396170Y81231D02*
X394370D01*
Y79081D01*
X396170D01*
Y81231D01*
D02*
G37*
G36*
X392870D02*
X391070D01*
Y79081D01*
X392870D01*
Y81231D01*
D02*
G37*
G36*
X341092Y26041D02*
X338283D01*
Y24413D01*
X341092D01*
Y26041D01*
D02*
G37*
G36*
X343379Y16980D02*
X341001D01*
X338623D01*
Y14171D01*
X339318D01*
Y11282D01*
X342854D01*
X342683Y11538D01*
Y14171D01*
X343379D01*
Y16980D01*
D02*
G37*
G36*
X342854Y9782D02*
X341837D01*
Y8765D01*
X342447Y9172D01*
X342854Y9782D01*
D02*
G37*
G36*
X340337D02*
X339320D01*
X339727Y9172D01*
X340337Y8765D01*
Y9782D01*
D02*
G37*
G36*
X346053Y131892D02*
X344426D01*
Y129083D01*
X346053D01*
Y131892D01*
D02*
G37*
G36*
X380366Y16821D02*
X378566D01*
Y14671D01*
X380366D01*
Y16821D01*
D02*
G37*
%LPD*%
D12*
X244278Y178144D02*
X245668Y176754D01*
Y135445D02*
Y176754D01*
X125118Y216474D02*
X284825D01*
X74276Y165632D02*
X125118Y216474D01*
X284825D02*
X291346Y146368D01*
X245668Y135445D02*
X284197Y96917D01*
X203168Y142992D02*
Y200983D01*
X284197Y93739D02*
Y96917D01*
X258677Y95030D02*
Y102198D01*
X258577Y94931D02*
X258677Y95030D01*
X211906Y148968D02*
X258677Y102198D01*
X211906Y148968D02*
Y205352D01*
X291148Y83569D02*
Y125976D01*
X285827Y78248D02*
X291148Y83569D01*
X259501Y125976D02*
X291148D01*
X259191Y125666D02*
X259501Y125976D01*
X258982Y125666D02*
X259191D01*
X71695Y165632D02*
X74276D01*
X203168Y142992D02*
X258577Y87583D01*
X261953Y28598D02*
X299687D01*
Y29089D01*
X261953Y28598D02*
Y65339D01*
X191053D02*
X261953D01*
X191053D02*
Y78248D01*
X285827D01*
D88*
X361683Y10937D02*
D03*
Y14677D02*
D03*
Y18417D02*
D03*
X371919D02*
D03*
Y10937D02*
D03*
D95*
X195972Y264776D02*
D03*
Y304894D02*
D03*
X225972Y324776D02*
D03*
Y264776D02*
D03*
X195972Y334776D02*
D03*
X267318Y267509D02*
D03*
Y307627D02*
D03*
X297318Y327508D02*
D03*
Y267509D02*
D03*
X267318Y337509D02*
D03*
X12042Y184201D02*
D03*
X159286Y12745D02*
D03*
D108*
X81724Y133535D02*
D03*
X86516Y133476D02*
D03*
X91598Y133181D02*
D03*
X96803Y132705D02*
D03*
X203168Y200983D02*
D03*
X258577Y94931D02*
D03*
X255995Y101087D02*
D03*
X211906Y205352D02*
D03*
X277841Y131275D02*
D03*
X71695Y165632D02*
D03*
X52756Y141732D02*
D03*
X258974Y81029D02*
D03*
X198799Y75567D02*
D03*
X280750Y186813D02*
D03*
X291346Y146368D02*
D03*
X198799Y71496D02*
D03*
X224418Y107045D02*
D03*
X258577Y87583D02*
D03*
X289360Y51835D02*
D03*
X280225D02*
D03*
X273075Y52232D02*
D03*
X225014Y110620D02*
D03*
X230575Y42699D02*
D03*
X139370Y112598D02*
D03*
X133071Y115748D02*
D03*
Y109842D02*
D03*
D109*
X102746Y158253D02*
X157268Y211307D01*
X57263Y158677D02*
X102746Y158253D01*
X157268Y211307D02*
X227535Y209745D01*
X146575Y213106D02*
X233346D01*
X235341Y211112D01*
X96370Y162901D02*
X146575Y213106D01*
X235341Y139020D02*
Y211112D01*
X228601Y209110D02*
X228610Y208657D01*
X229979Y141205D01*
X227976Y209735D02*
X228601Y209110D01*
X227535Y209745D02*
X227976Y209735D01*
X44719Y112771D02*
X46472Y111017D01*
X55260Y162901D02*
X96370D01*
X42202Y113416D02*
Y113500D01*
Y113416D02*
X42847Y112771D01*
X44719D01*
X42103Y113599D02*
X42202Y113500D01*
X42103Y113599D02*
Y149744D01*
X55260Y162901D01*
X70631Y110351D02*
Y116380D01*
X69510Y109230D02*
X70631Y110351D01*
X56326Y109230D02*
X69510D01*
X47096Y118460D02*
X56326Y109230D01*
X47465Y149149D02*
X56472Y158347D01*
X56476Y158351D01*
X56802Y158677D01*
X57263D01*
X46886Y119584D02*
X47457Y148712D01*
X47465Y149149D01*
X46877Y118753D02*
X47096Y118460D01*
X46877Y118753D02*
Y119130D01*
X46886Y119584D01*
D116*
X325397Y100399D02*
D03*
X332877D02*
D03*
X339323Y132642D02*
D03*
X346803D02*
D03*
X339323Y139335D02*
D03*
X346803D02*
D03*
X363706Y82630D02*
D03*
X371186D02*
D03*
X348481Y17730D02*
D03*
X341001D02*
D03*
D122*
X325774Y93166D02*
D03*
X332074D02*
D03*
X324953Y115320D02*
D03*
X331253D02*
D03*
X325346Y110398D02*
D03*
X331646D02*
D03*
X367983Y23338D02*
D03*
X361683D02*
D03*
D123*
X379284Y125556D02*
D03*
Y119256D02*
D03*
X331662Y121372D02*
D03*
Y127672D02*
D03*
X385977Y119256D02*
D03*
Y125556D02*
D03*
X385583Y107051D02*
D03*
Y113351D02*
D03*
X393620Y81981D02*
D03*
Y88281D02*
D03*
X376528Y92878D02*
D03*
Y99178D02*
D03*
X353238Y30230D02*
D03*
Y23930D02*
D03*
X352970Y18117D02*
D03*
Y11817D02*
D03*
X347886Y30276D02*
D03*
Y23976D02*
D03*
X373772Y119256D02*
D03*
Y125556D02*
D03*
X379677Y113745D02*
D03*
Y107445D02*
D03*
X377816Y11271D02*
D03*
Y17571D02*
D03*
D128*
X324512Y121974D02*
D03*
Y129454D02*
D03*
X343823Y47784D02*
D03*
Y40304D02*
D03*
X351697Y47784D02*
D03*
Y40304D02*
D03*
X359571Y47784D02*
D03*
Y40304D02*
D03*
X382827Y99768D02*
D03*
Y92288D02*
D03*
X341842Y31143D02*
D03*
Y23663D02*
D03*
D146*
X344986Y48948D02*
X347502Y51464D01*
X340859Y125595D02*
X346519D01*
X347502Y124612D01*
Y51464D02*
Y124612D01*
X343823Y47784D02*
X344608D01*
X344986Y48162D01*
Y48948D01*
X258974Y232362D02*
X259372Y232759D01*
X252421Y232362D02*
X258974D01*
X249044Y235738D02*
Y266720D01*
Y235738D02*
X252421Y232362D01*
X84645Y109842D02*
X133071D01*
X52756Y141732D02*
Y141732D01*
Y141732D02*
X84645Y109842D01*
D147*
X267318Y337509D02*
X271924Y353690D01*
X195972Y334776D02*
X208617Y337705D01*
X212869Y341957D02*
Y353690D01*
X208617Y337705D02*
X212869Y341957D01*
D149*
X357843Y148740D02*
Y155646D01*
X358961Y156764D01*
X353861Y144758D02*
X357843Y148740D01*
X358961Y156764D02*
X373602D01*
X324953Y115320D02*
X325346Y114926D01*
Y110398D02*
Y114926D01*
X335232Y84080D02*
X337829Y86677D01*
Y93746D01*
X339677Y95595D01*
X340859D01*
X332074Y55974D02*
X340264Y47784D01*
X332074Y55974D02*
Y93166D01*
X340264Y47784D02*
X343823D01*
X357597Y100595D02*
X361603D01*
X358880Y98187D02*
X361212D01*
X361603Y100595D02*
X361803D01*
X361212Y100203D02*
X361603Y100595D01*
X361212Y98187D02*
Y100203D01*
X358031Y98003D02*
X358697D01*
X358880Y98187D01*
X385977Y125556D02*
X389701D01*
X389701Y125556D01*
X393851D01*
X350309Y146400D02*
Y150534D01*
Y77280D02*
Y146400D01*
X352540Y75049D02*
X366683D01*
X354740Y99681D02*
X356683D01*
X353861Y100560D02*
X354740Y99681D01*
X353861Y100560D02*
Y144758D01*
X350309Y77280D02*
X352540Y75049D01*
X367562Y75928D02*
Y86716D01*
X366683Y75049D02*
X367562Y75928D01*
X366690Y87461D02*
X366817D01*
X367562Y86716D01*
X361803Y92348D02*
X366690Y87461D01*
X361803Y92348D02*
Y95595D01*
X363706Y82630D02*
Y86189D01*
X358031Y91864D02*
Y98003D01*
Y91864D02*
X363706Y86189D01*
X371186Y83811D02*
X376528Y89153D01*
X362984Y95595D02*
X364833Y93746D01*
X373110D01*
X361803Y95595D02*
X362984D01*
X373110Y93746D02*
X373978Y92878D01*
X386093Y89858D02*
X393620Y82331D01*
X386093Y89858D02*
Y90203D01*
X382827Y92288D02*
X384008D01*
X386093Y90203D01*
X393620Y81981D02*
Y82331D01*
X356683Y99681D02*
X357597Y100595D01*
X374481Y146360D02*
Y155885D01*
X373602Y156764D02*
X374481Y155885D01*
X364482Y136361D02*
X374481Y146360D01*
X376528Y99178D02*
X379381D01*
X369402D02*
X376528D01*
X356528Y142580D02*
X364482Y150534D01*
X356528Y107491D02*
Y142580D01*
Y107491D02*
X357407Y106613D01*
X357463D01*
X358481Y105595D02*
X362984D01*
X357463Y106613D02*
X358481Y105595D01*
X393858Y91419D02*
Y95494D01*
X393620Y91181D02*
X393858Y91419D01*
X393620Y88281D02*
Y91181D01*
X385583Y107051D02*
X389568D01*
X389708Y106911D01*
X393858D01*
X371186Y82630D02*
X375547D01*
X382827Y89910D01*
Y92288D01*
X371186Y82630D02*
Y83811D01*
X373978Y92878D02*
X376528D01*
Y89153D02*
Y92878D01*
X365126Y110595D02*
X368276Y107445D01*
X361803Y110595D02*
X365126D01*
X379971Y99768D02*
X382827D01*
X379381Y99178D02*
X379971Y99768D01*
X362984Y105595D02*
X369402Y99178D01*
X379677Y107445D02*
X382639D01*
X383033Y107051D01*
X385583D01*
X368276Y107445D02*
X379677D01*
X388920Y114138D02*
X393851D01*
X388133Y113351D02*
X388920Y114138D01*
X385583Y113351D02*
X388133D01*
X382621D02*
X385583D01*
X382227Y113745D02*
X382621Y113351D01*
X379677Y113745D02*
X382227D01*
X366976D02*
X379677D01*
X365126Y115595D02*
X366976Y113745D01*
X361803Y115595D02*
X365126D01*
X379284Y119256D02*
X385977D01*
X373772D02*
X379284D01*
X366465D02*
X373772D01*
X365126Y120595D02*
X366465Y119256D01*
X361803Y120595D02*
X365126D01*
X373772Y125556D02*
X379284D01*
X361803Y125595D02*
X371183D01*
X371222Y125556D01*
X373772D01*
X325774Y93166D02*
Y96463D01*
X325397Y96840D02*
X325774Y96463D01*
X325397Y96840D02*
Y100399D01*
X335451Y100595D02*
X340859D01*
X335255Y100399D02*
X335451Y100595D01*
X332877Y100399D02*
X335255D01*
X334951Y107444D02*
X337829D01*
X331996Y110398D02*
X334951Y107444D01*
X331646Y110398D02*
X331996D01*
X337829Y107444D02*
X339677Y105595D01*
X340859D01*
X319321Y129454D02*
X324512D01*
X318011Y128144D02*
X319321Y129454D01*
X318705Y117686D02*
X319686D01*
X318011Y118380D02*
X318705Y117686D01*
X318011Y118380D02*
Y128144D01*
X319686Y117686D02*
X322053Y115320D01*
X324953D01*
X334428Y115595D02*
X340859D01*
X334153Y115320D02*
X334428Y115595D01*
X331253Y115320D02*
X334153D01*
X336759Y121372D02*
X337536Y120595D01*
X331662Y121372D02*
X336759D01*
X337536Y120595D02*
X340859D01*
X339977Y141170D02*
X340717Y140430D01*
X318832Y137512D02*
Y151586D01*
X335646Y150534D02*
X350309D01*
X333715Y152465D02*
X335646Y150534D01*
X319711Y152465D02*
X333715D01*
X318832Y151586D02*
X319711Y152465D01*
X318832Y137512D02*
X324512Y131832D01*
Y129454D02*
Y131832D01*
Y121974D02*
X328511D01*
X329112Y121372D01*
X331662D01*
X346803Y132642D02*
Y139335D01*
Y142894D02*
X350309Y146400D01*
X346803Y139335D02*
Y142894D01*
X341001Y10618D02*
Y17730D01*
Y10618D02*
X341087Y10532D01*
X341842Y22130D02*
Y23663D01*
X341001Y21289D02*
X341842Y22130D01*
X341001Y17730D02*
Y21289D01*
X359571Y40304D02*
X360199Y39676D01*
X362713D01*
X367983Y34406D01*
Y23338D02*
Y34406D01*
X366769Y47784D02*
X368311Y46242D01*
X359571Y47784D02*
X366769D01*
X368311Y38716D02*
Y46242D01*
Y38716D02*
X372804Y34224D01*
Y30074D02*
Y34224D01*
X383355Y30074D02*
X384757Y28672D01*
X372804Y30074D02*
X383355D01*
X384757Y12150D02*
Y28672D01*
X377816Y11271D02*
X383878D01*
X384757Y12150D01*
X377816Y17571D02*
Y22697D01*
X376937Y23576D02*
X377816Y22697D01*
X371121Y23576D02*
X376937D01*
X370883Y23338D02*
X371121Y23576D01*
X367983Y23338D02*
X370883D01*
X377482Y10937D02*
X377816Y11271D01*
X371919Y10937D02*
X377482D01*
X361683Y14677D02*
X363970D01*
X367983Y18690D01*
Y23338D01*
X370901Y16236D02*
Y17986D01*
X365602Y10937D02*
X370901Y16236D01*
Y17986D02*
X371332Y18417D01*
X371919D01*
X361683Y10937D02*
X365602D01*
X361683Y23338D02*
X361683Y18417D01*
X361386Y30074D02*
X361683Y23338D01*
X352970Y11817D02*
X361683Y10937D01*
X348481Y17730D02*
X352970Y18117D01*
X353238Y23930D01*
X347886Y23976D02*
X353238Y23930D01*
X327681Y30068D02*
X341842Y31143D01*
X347886Y30276D02*
X353238Y30230D01*
X341842Y31143D02*
X347886Y30276D01*
D150*
X283535Y86921D02*
X286581Y89967D01*
X272479Y98506D02*
X277787Y93197D01*
Y92006D02*
Y93197D01*
Y92006D02*
X282872Y86921D01*
X283535D01*
X283005Y100933D02*
X286581Y97357D01*
Y89967D02*
Y97357D01*
X283005Y100933D02*
Y105854D01*
D152*
X260166Y258158D02*
Y258379D01*
Y258158D02*
X273075Y245249D01*
Y243484D02*
Y245249D01*
D153*
X307522Y93708D02*
Y155913D01*
X286110Y72295D02*
X307522Y93708D01*
X303784Y156154D02*
X305050Y154889D01*
Y94732D02*
Y154889D01*
X304808Y158627D02*
X307522Y155913D01*
X285085Y74768D02*
X305050Y94732D01*
X199839Y72295D02*
X286110D01*
X298099Y155901D02*
X298352Y156154D01*
X303784D01*
X198799Y75567D02*
X199039D01*
Y71496D02*
X199839Y72295D01*
X199039Y75567D02*
X199839Y74768D01*
X285085D01*
X298099Y158880D02*
X298310D01*
X298563Y158627D02*
X304808D01*
X298310Y158880D02*
X298563Y158627D01*
X198799Y71496D02*
X199039D01*
D155*
X155696Y56005D02*
X223218D01*
X154955Y55264D02*
X155696Y56005D01*
X223218D02*
X223877Y55087D01*
X228857Y48137D01*
X228963Y47803D02*
X230575Y42699D01*
X228857Y48137D02*
X228963Y47803D01*
D156*
X70082Y316379D02*
D03*
X148822D02*
D03*
X89767Y237639D02*
D03*
X129137D02*
D03*
X46491Y356052D02*
D03*
X133105Y356052D02*
D03*
X22672Y136229D02*
D03*
Y116544D02*
D03*
X31924Y253690D02*
D03*
X12239D02*
D03*
X32711Y296603D02*
D03*
X13026D02*
D03*
X182191Y109074D02*
D03*
X168271Y95155D02*
D03*
D157*
X69635Y70255D02*
D03*
Y64744D02*
D03*
Y59232D02*
D03*
X64123D02*
D03*
Y64744D02*
D03*
Y70255D02*
D03*
X72391Y61988D02*
D03*
Y67500D02*
D03*
X66879D02*
D03*
Y61988D02*
D03*
X61367D02*
D03*
Y67500D02*
D03*
D158*
X350309Y150534D02*
D03*
X364482D02*
D03*
Y136361D02*
D03*
D159*
X22869Y355658D02*
D03*
Y335658D02*
D03*
X232869Y353690D02*
D03*
X212869D02*
D03*
X291924D02*
D03*
X271924D02*
D03*
D160*
X299687Y46806D02*
D03*
Y40900D02*
D03*
Y34995D02*
D03*
Y29089D02*
D03*
Y23184D02*
D03*
Y17278D02*
D03*
X327681Y47784D02*
D03*
Y41879D02*
D03*
Y35973D02*
D03*
Y30068D02*
D03*
Y24162D02*
D03*
Y18257D02*
D03*
D161*
X29759Y184201D02*
D03*
X178184Y43060D02*
D03*
D162*
X42357Y165304D02*
D03*
X159286Y30461D02*
D03*
D163*
X54562Y188532D02*
D03*
D164*
X154955Y55264D02*
D03*
D165*
X56005Y10327D02*
D03*
X75020Y29260D02*
D03*
X341048Y38425D02*
D03*
X347010Y38215D02*
D03*
X341087Y10532D02*
D03*
X275428Y172981D02*
D03*
X179534Y129884D02*
D03*
X226205Y130480D02*
D03*
X235341Y139020D02*
D03*
X220049Y180130D02*
D03*
X225411Y177747D02*
D03*
X182911Y197011D02*
D03*
X245867Y213694D02*
D03*
X176357Y205551D02*
D03*
X157490Y134452D02*
D03*
X174768Y170002D02*
D03*
X173775Y166030D02*
D03*
X168810Y170002D02*
D03*
X193039Y203764D02*
D03*
X147361Y184301D02*
D03*
X252222Y155107D02*
D03*
X287970Y131473D02*
D03*
X258982Y125666D02*
D03*
X301413Y120866D02*
D03*
X46472Y111017D02*
D03*
X260365Y241100D02*
D03*
X260166Y258379D02*
D03*
X81227Y153319D02*
D03*
X44089Y156298D02*
D03*
X97513Y153518D02*
D03*
X98903Y176158D02*
D03*
X97115Y193635D02*
D03*
X199990Y169009D02*
D03*
X147163Y91952D02*
D03*
X285785Y32173D02*
D03*
X256988Y38926D02*
D03*
X285984Y68914D02*
D03*
X284792Y82022D02*
D03*
X266521Y83611D02*
D03*
X208729Y116975D02*
D03*
X241498Y150539D02*
D03*
X241895Y162058D02*
D03*
X297304Y208927D02*
D03*
X296708Y224617D02*
D03*
X281019Y178144D02*
D03*
X193238Y226007D02*
D03*
X181398Y225217D02*
D03*
X267713Y232759D02*
D03*
X259372D02*
D03*
X249044Y266720D02*
D03*
X167817Y166030D02*
D03*
X174768Y173974D02*
D03*
X215323Y141193D02*
D03*
X212677Y47575D02*
D03*
X213937Y27161D02*
D03*
X36386Y23378D02*
D03*
Y18772D02*
D03*
Y14441D02*
D03*
Y10268D02*
D03*
X70631Y116380D02*
D03*
X229979Y141205D02*
D03*
X52430Y13902D02*
D03*
X49451Y9334D02*
D03*
X273075Y243484D02*
D03*
X298099Y158880D02*
D03*
Y155901D02*
D03*
D166*
X335232Y84080D02*
D03*
X283005Y105854D02*
D03*
X244278Y178144D02*
D03*
X272479Y98506D02*
D03*
X284197Y93739D02*
D03*
D206*
X372804Y30074D02*
D03*
X361386D02*
D03*
D207*
X393851Y114138D02*
D03*
Y125556D02*
D03*
X393858Y106911D02*
D03*
Y95494D02*
D03*
D208*
X361803Y125595D02*
D03*
Y120595D02*
D03*
Y115595D02*
D03*
Y110595D02*
D03*
Y105595D02*
D03*
Y100595D02*
D03*
Y95595D02*
D03*
X340859D02*
D03*
Y100595D02*
D03*
Y105595D02*
D03*
Y110595D02*
D03*
Y115595D02*
D03*
Y120595D02*
D03*
Y125595D02*
D03*
D209*
X139343Y72982D02*
X154955Y55264D01*
X138166Y78431D02*
X139370Y112598D01*
X138094Y76376D02*
X138166Y78431D01*
X138094Y74399D02*
Y76376D01*
Y74399D02*
X139343Y72982D01*
M02*
