G04*
G04 #@! TF.GenerationSoftware,Altium Limited,Altium Designer,20.0.10 (225)*
G04*
G04 Layer_Physical_Order=2*
G04 Layer_Color=32768*
%FSLAX25Y25*%
%MOIN*%
G70*
G01*
G75*
%ADD152C,0.03000*%
%ADD167C,0.04000*%
%ADD168R,0.07158X0.07689*%
%ADD169R,0.07409X0.09630*%
%ADD170R,0.38926X0.89966*%
%ADD171R,1.40410X0.46870*%
%ADD172R,3.12016X0.51231*%
%ADD173R,1.29487X1.51532*%
%ADD174C,0.09937*%
G04:AMPARAMS|DCode=175|XSize=53.937mil|YSize=53.937mil|CornerRadius=0mil|HoleSize=0mil|Usage=FLASHONLY|Rotation=0.000|XOffset=0mil|YOffset=0mil|HoleType=Round|Shape=Relief|Width=15mil|Gap=10mil|Entries=4|*
%AMTHD175*
7,0,0,0.05394,0.03394,0.01500,45*
%
%ADD175THD175*%
G04:AMPARAMS|DCode=176|XSize=69.685mil|YSize=69.685mil|CornerRadius=0mil|HoleSize=0mil|Usage=FLASHONLY|Rotation=0.000|XOffset=0mil|YOffset=0mil|HoleType=Round|Shape=Relief|Width=15mil|Gap=10mil|Entries=4|*
%AMTHD176*
7,0,0,0.06969,0.04969,0.01500,45*
%
%ADD176THD176*%
%ADD177C,0.07969*%
%ADD178C,0.12890*%
%ADD179C,0.10331*%
%ADD180C,0.09425*%
%ADD181C,0.09150*%
%ADD182C,0.09543*%
%ADD183C,0.11118*%
%ADD184C,0.14268*%
%AMTHOVALD185*
21,1,0.07874,0.08937,0,0,90.0*
1,1,0.08937,0.00000,-0.03937*
1,1,0.08937,0.00000,0.03937*
21,0,0.07874,0.06937,0,0,90.0*
1,0,0.06937,0.00000,-0.03937*
1,0,0.06937,0.00000,0.03937*
4,0,4,0.00530,-0.03407,0.03690,-0.06566,0.02629,-0.07627,-0.00530,-0.04467,0.00530,-0.03407,0.0*
4,0,4,0.00530,0.04467,-0.02629,0.07627,-0.03690,0.06566,-0.00530,0.03407,0.00530,0.04467,0.0*
4,0,4,0.00530,-0.04467,-0.02629,-0.07627,-0.03690,-0.06566,-0.00530,-0.03407,0.00530,-0.04467,0.0*
4,0,4,0.00530,0.03407,0.03690,0.06566,0.02629,0.07627,-0.00530,0.04467,0.00530,0.03407,0.0*
%
%ADD185THOVALD185*%

%AMTHOVALD186*
21,1,0.07087,0.09724,0,0,180.0*
1,1,0.09724,0.03543,0.00000*
1,1,0.09724,-0.03543,0.00000*
21,0,0.07087,0.07724,0,0,180.0*
1,0,0.07724,0.03543,0.00000*
1,0,0.07724,-0.03543,0.00000*
4,0,4,0.03013,0.00530,0.06451,0.03968,0.07512,0.02908,0.04074,-0.00530,0.03013,0.00530,0.0*
4,0,4,-0.04074,0.00530,-0.07512,-0.02908,-0.06451,-0.03968,-0.03013,-0.00530,-0.04074,0.00530,0.0*
4,0,4,0.04074,0.00530,0.07512,-0.02908,0.06451,-0.03968,0.03013,-0.00530,0.04074,0.00530,0.0*
4,0,4,-0.03013,0.00530,-0.06451,0.03968,-0.07512,0.02908,-0.04074,-0.00530,-0.03013,0.00530,0.0*
%
%ADD186THOVALD186*%

%ADD187O,0.10724X0.11906*%
%AMTHOVALD188*
21,1,0.07874,0.08937,0,0,180.0*
1,1,0.08937,0.03937,0.00000*
1,1,0.08937,-0.03937,0.00000*
21,0,0.07874,0.06937,0,0,180.0*
1,0,0.06937,0.03937,0.00000*
1,0,0.06937,-0.03937,0.00000*
4,0,4,0.03407,0.00530,0.06566,0.03690,0.07627,0.02629,0.04467,-0.00530,0.03407,0.00530,0.0*
4,0,4,-0.04467,0.00530,-0.07627,-0.02629,-0.06566,-0.03690,-0.03407,-0.00530,-0.04467,0.00530,0.0*
4,0,4,0.04467,0.00530,0.07627,-0.02629,0.06566,-0.03690,0.03407,-0.00530,0.04467,0.00530,0.0*
4,0,4,-0.03407,0.00530,-0.06566,0.03690,-0.07627,0.02629,-0.04467,-0.00530,-0.03407,0.00530,0.0*
%
%ADD188THOVALD188*%

%AMTHOVALD189*
21,1,0.07087,0.09724,0,0,270.0*
1,1,0.09724,0.00000,0.03543*
1,1,0.09724,0.00000,-0.03543*
21,0,0.07087,0.07724,0,0,270.0*
1,0,0.07724,0.00000,0.03543*
1,0,0.07724,0.00000,-0.03543*
4,0,4,-0.00530,0.03013,-0.03968,0.06451,-0.02908,0.07512,0.00530,0.04074,-0.00530,0.03013,0.0*
4,0,4,-0.00530,-0.04074,0.02908,-0.07512,0.03968,-0.06451,0.00530,-0.03013,-0.00530,-0.04074,0.0*
4,0,4,-0.00530,0.04074,0.02908,0.07512,0.03968,0.06451,0.00530,0.03013,-0.00530,0.04074,0.0*
4,0,4,-0.00530,-0.03013,-0.03968,-0.06451,-0.02908,-0.07512,0.00530,-0.04074,-0.00530,-0.03013,0.0*
%
%ADD189THOVALD189*%

%ADD190O,0.11906X0.10724*%
G04:AMPARAMS|DCode=191|XSize=89.37mil|YSize=89.37mil|CornerRadius=0mil|HoleSize=0mil|Usage=FLASHONLY|Rotation=0.000|XOffset=0mil|YOffset=0mil|HoleType=Round|Shape=Relief|Width=15mil|Gap=10mil|Entries=4|*
%AMTHD191*
7,0,0,0.08937,0.06937,0.01500,45*
%
%ADD191THD191*%
%ADD192C,0.07181*%
G04:AMPARAMS|DCode=193|XSize=61.811mil|YSize=61.811mil|CornerRadius=0mil|HoleSize=0mil|Usage=FLASHONLY|Rotation=0.000|XOffset=0mil|YOffset=0mil|HoleType=Round|Shape=Relief|Width=15mil|Gap=10mil|Entries=4|*
%AMTHD193*
7,0,0,0.06181,0.04181,0.01500,45*
%
%ADD193THD193*%
%ADD194C,0.07378*%
D152*
X314582Y-794D02*
X314966Y173228D01*
D167*
X5Y-4D02*
X409449D01*
Y173228D01*
X314966D02*
X409449D01*
X314966D02*
Y374747D01*
X5D02*
X314966D01*
X5Y-4D02*
Y374747D01*
D168*
X299693Y41234D02*
D03*
D169*
X327461Y41709D02*
D03*
D170*
X20257Y62063D02*
D03*
D171*
X243781Y299886D02*
D03*
D172*
X157780Y347355D02*
D03*
D173*
X110024Y297801D02*
D03*
D174*
X70082Y316379D02*
D03*
X148822D02*
D03*
X89767Y237639D02*
D03*
X129137D02*
D03*
X31924Y253690D02*
D03*
X32711Y296603D02*
D03*
X182191Y109074D02*
D03*
D175*
X69635Y70255D02*
D03*
Y64744D02*
D03*
Y59232D02*
D03*
X64123D02*
D03*
Y64744D02*
D03*
Y70255D02*
D03*
X72391Y61988D02*
D03*
Y67500D02*
D03*
X66879D02*
D03*
Y61988D02*
D03*
X61367D02*
D03*
Y67500D02*
D03*
D176*
X350309Y150534D02*
D03*
D177*
X364482D02*
D03*
Y136361D02*
D03*
D178*
X22869Y355658D02*
D03*
Y335658D02*
D03*
X232869Y353690D02*
D03*
X212869D02*
D03*
X291924D02*
D03*
X271924D02*
D03*
D179*
X46491Y356052D02*
D03*
X133105Y356052D02*
D03*
D180*
X299687Y46806D02*
D03*
Y40900D02*
D03*
Y34995D02*
D03*
Y29089D02*
D03*
Y23184D02*
D03*
Y17278D02*
D03*
X327681Y47784D02*
D03*
Y41879D02*
D03*
Y35973D02*
D03*
Y30068D02*
D03*
Y24162D02*
D03*
Y18257D02*
D03*
D181*
X22672Y136229D02*
D03*
Y116544D02*
D03*
D182*
X100544Y9930D02*
D03*
X112355D02*
D03*
D183*
X195972Y264776D02*
D03*
Y304894D02*
D03*
X225972Y324776D02*
D03*
Y264776D02*
D03*
X195972Y334776D02*
D03*
X267318Y267509D02*
D03*
Y307627D02*
D03*
X297318Y327508D02*
D03*
Y267509D02*
D03*
X267318Y337509D02*
D03*
D184*
X12042Y184201D02*
D03*
X159286Y12745D02*
D03*
D185*
X29759Y184201D02*
D03*
D186*
X42357Y165304D02*
D03*
D187*
X54562Y188532D02*
D03*
D188*
X159286Y30461D02*
D03*
D189*
X178184Y43060D02*
D03*
D190*
X154955Y55264D02*
D03*
D191*
X12239Y253690D02*
D03*
X13026Y296603D02*
D03*
X168271Y95155D02*
D03*
D192*
X56005Y10327D02*
D03*
X335232Y84080D02*
D03*
X275428Y172981D02*
D03*
X235341Y139020D02*
D03*
X244278Y178144D02*
D03*
X284197Y93739D02*
D03*
X174768Y170002D02*
D03*
X173775Y166030D02*
D03*
X168810Y170002D02*
D03*
X258982Y125666D02*
D03*
X301413Y120866D02*
D03*
X46472Y111017D02*
D03*
X260166Y258379D02*
D03*
X167817Y166030D02*
D03*
X174768Y173974D02*
D03*
X215323Y141193D02*
D03*
X213937Y27161D02*
D03*
X36386Y23378D02*
D03*
Y18772D02*
D03*
X70631Y116380D02*
D03*
X229979Y141205D02*
D03*
X52430Y13902D02*
D03*
X49451Y9334D02*
D03*
X273075Y243484D02*
D03*
X298099Y158880D02*
D03*
Y155901D02*
D03*
D193*
X75020Y29260D02*
D03*
X283005Y105854D02*
D03*
X341048Y38425D02*
D03*
X347010Y38215D02*
D03*
X341087Y10532D02*
D03*
X179534Y129884D02*
D03*
X226205Y130480D02*
D03*
X220049Y180130D02*
D03*
X225411Y177747D02*
D03*
X182911Y197011D02*
D03*
X245867Y213694D02*
D03*
X272479Y98506D02*
D03*
X176357Y205551D02*
D03*
X157490Y134452D02*
D03*
X193039Y203764D02*
D03*
X147361Y184301D02*
D03*
X252222Y155107D02*
D03*
X287970Y131473D02*
D03*
X260365Y241100D02*
D03*
X81227Y153319D02*
D03*
X44089Y156298D02*
D03*
X97513Y153518D02*
D03*
X98903Y176158D02*
D03*
X97115Y193635D02*
D03*
X199990Y169009D02*
D03*
X147163Y91952D02*
D03*
X285785Y32173D02*
D03*
X256988Y38926D02*
D03*
X285984Y68914D02*
D03*
X284792Y82022D02*
D03*
X266521Y83611D02*
D03*
X208729Y116975D02*
D03*
X241498Y150539D02*
D03*
X241895Y162058D02*
D03*
X297304Y208927D02*
D03*
X296708Y224617D02*
D03*
X281019Y178144D02*
D03*
X193238Y226007D02*
D03*
X181398Y225217D02*
D03*
X267713Y232759D02*
D03*
X259372D02*
D03*
X249044Y266720D02*
D03*
X212677Y47575D02*
D03*
X36386Y14441D02*
D03*
Y10268D02*
D03*
D194*
X81724Y133535D02*
D03*
X86516Y133476D02*
D03*
X91598Y133181D02*
D03*
X96803Y132705D02*
D03*
X203168Y200983D02*
D03*
X258577Y94931D02*
D03*
X255995Y101087D02*
D03*
X211906Y205352D02*
D03*
X277841Y131275D02*
D03*
X71695Y165632D02*
D03*
X52756Y141732D02*
D03*
X258974Y81029D02*
D03*
X198799Y75567D02*
D03*
X280750Y186813D02*
D03*
X291346Y146368D02*
D03*
X198799Y71496D02*
D03*
X224418Y107045D02*
D03*
X258577Y87583D02*
D03*
X289360Y51835D02*
D03*
X280225D02*
D03*
X273075Y52232D02*
D03*
X225014Y110620D02*
D03*
X230575Y42699D02*
D03*
X139370Y112598D02*
D03*
X133071Y115748D02*
D03*
Y109842D02*
D03*
M02*
