G04*
G04 #@! TF.GenerationSoftware,Altium Limited,Altium Designer,20.0.10 (225)*
G04*
G04 Layer_Color=128*
%FSLAX25Y25*%
%MOIN*%
G70*
G01*
G75*
%ADD220C,0.00200*%
D220*
X68114Y316379D02*
X72051D01*
X70082Y314411D02*
Y318348D01*
X146854Y316379D02*
X150791D01*
X148822Y314411D02*
Y318348D01*
X87799Y237639D02*
X91736D01*
X89767Y235670D02*
Y239607D01*
X127169Y237639D02*
X131106D01*
X129137Y235670D02*
Y239607D01*
X69438Y70255D02*
X69832D01*
X69635Y70059D02*
Y70452D01*
X69438Y64744D02*
X69832D01*
X69635Y64547D02*
Y64940D01*
X69438Y59232D02*
X69832D01*
X69635Y59035D02*
Y59429D01*
X63927Y59232D02*
X64320D01*
X64123Y59035D02*
Y59429D01*
X63927Y64744D02*
X64320D01*
X64123Y64547D02*
Y64940D01*
X63927Y70255D02*
X64320D01*
X64123Y70059D02*
Y70452D01*
X72194Y61988D02*
X72588D01*
X72391Y61791D02*
Y62185D01*
X72194Y67500D02*
X72588D01*
X72391Y67303D02*
Y67696D01*
X66682Y67500D02*
X67076D01*
X66879Y67303D02*
Y67696D01*
X66682Y61988D02*
X67076D01*
X66879Y61791D02*
Y62185D01*
X61171Y61988D02*
X61564D01*
X61367Y61791D02*
Y62185D01*
X61171Y67500D02*
X61564D01*
X61367Y67303D02*
Y67696D01*
X349325Y150534D02*
X351293D01*
X350309Y149550D02*
Y151518D01*
X363498Y150534D02*
X365466D01*
X364482Y149550D02*
Y151518D01*
X363498Y136361D02*
X365466D01*
X364482Y135377D02*
Y137345D01*
X19424Y355658D02*
X26314D01*
X22869Y352213D02*
Y359103D01*
X19424Y335658D02*
X26314D01*
X22869Y332213D02*
Y339103D01*
X229424Y353690D02*
X236314D01*
X232869Y350245D02*
Y357135D01*
X209424Y353690D02*
X216314D01*
X212869Y350245D02*
Y357135D01*
X288479Y353690D02*
X295369D01*
X291924Y350245D02*
Y357135D01*
X268479Y353690D02*
X275369D01*
X271924Y350245D02*
Y357135D01*
X44326Y356052D02*
X48656D01*
X46491Y353887D02*
Y358217D01*
X130940Y356052D02*
X135271D01*
X133105Y353887D02*
Y358217D01*
X297975Y46806D02*
X301400D01*
X299687Y45093D02*
Y48518D01*
X297975Y40900D02*
X301400D01*
X299687Y39188D02*
Y42613D01*
X297975Y34995D02*
X301400D01*
X299687Y33282D02*
Y36707D01*
X297975Y29089D02*
X301400D01*
X299687Y27377D02*
Y30802D01*
X297975Y23184D02*
X301400D01*
X299687Y21471D02*
Y24896D01*
X297975Y17278D02*
X301400D01*
X299687Y15566D02*
Y18991D01*
X325968Y47784D02*
X329394D01*
X327681Y46071D02*
Y49497D01*
X325968Y41879D02*
X329394D01*
X327681Y40166D02*
Y43591D01*
X325968Y35973D02*
X329394D01*
X327681Y34260D02*
Y37686D01*
X325968Y30068D02*
X329394D01*
X327681Y28355D02*
Y31780D01*
X325968Y24162D02*
X329394D01*
X327681Y22449D02*
Y25875D01*
X325968Y18257D02*
X329394D01*
X327681Y16544D02*
Y19969D01*
X21097Y136229D02*
X24247D01*
X22672Y134655D02*
Y137804D01*
X21097Y116544D02*
X24247D01*
X22672Y114970D02*
Y118119D01*
X98772Y9930D02*
X102316D01*
X100544Y8158D02*
Y11702D01*
X110583Y9930D02*
X114127D01*
X112355Y8158D02*
Y11702D01*
X193413Y264776D02*
X198531D01*
X195972Y262216D02*
Y267335D01*
X193413Y304894D02*
X198531D01*
X195972Y302335D02*
Y307453D01*
X223413Y324776D02*
X228532D01*
X225972Y322217D02*
Y327335D01*
X223413Y264776D02*
X228532D01*
X225972Y262216D02*
Y267335D01*
X193413Y334776D02*
X198531D01*
X195972Y332217D02*
Y337335D01*
X264759Y267509D02*
X269877D01*
X267318Y264949D02*
Y270068D01*
X264759Y307627D02*
X269877D01*
X267318Y305068D02*
Y310186D01*
X294759Y327508D02*
X299877D01*
X297318Y324950D02*
Y330068D01*
X294759Y267509D02*
X299877D01*
X297318Y264949D02*
Y270068D01*
X264759Y337509D02*
X269877D01*
X267318Y334949D02*
Y340068D01*
X7908Y184201D02*
X16176D01*
X12042Y180068D02*
Y188335D01*
X27790Y184201D02*
X31727D01*
X29759Y182233D02*
Y186170D01*
X39995Y165304D02*
X44719D01*
X42357Y162942D02*
Y167666D01*
X52200Y188532D02*
X56924D01*
X54562Y186170D02*
Y190894D01*
X155152Y12745D02*
X163420D01*
X159286Y8611D02*
Y16879D01*
X157318Y30461D02*
X161255D01*
X159286Y28493D02*
Y32430D01*
X175822Y43060D02*
X180546D01*
X178184Y40698D02*
Y45422D01*
X152593Y55264D02*
X157318D01*
X154955Y52902D02*
Y57627D01*
X29956Y253690D02*
X33893D01*
X31924Y251721D02*
Y255658D01*
X10271Y253690D02*
X14208D01*
X12239Y251721D02*
Y255658D01*
X30743Y296603D02*
X34680D01*
X32711Y294635D02*
Y298571D01*
X11058Y296603D02*
X14995D01*
X13026Y294635D02*
Y298571D01*
X180222Y109074D02*
X184159D01*
X182191Y107106D02*
Y111043D01*
X166303Y95155D02*
X170240D01*
X168271Y93187D02*
Y97124D01*
X55415Y10327D02*
X56596D01*
X56005Y9737D02*
Y10918D01*
X74429Y29260D02*
X75610D01*
X75020Y28669D02*
Y29850D01*
X81035Y133535D02*
X82413D01*
X81724Y132846D02*
Y134224D01*
X85827Y133476D02*
X87205D01*
X86516Y132787D02*
Y134165D01*
X90909Y133181D02*
X92287D01*
X91598Y132492D02*
Y133870D01*
X96114Y132705D02*
X97492D01*
X96803Y132016D02*
Y133394D01*
X334641Y84080D02*
X335823D01*
X335232Y83489D02*
Y84671D01*
X282414Y105854D02*
X283596D01*
X283005Y105263D02*
Y106444D01*
X340458Y38425D02*
X341638D01*
X341048Y37835D02*
Y39016D01*
X346420Y38215D02*
X347601D01*
X347010Y37624D02*
Y38805D01*
X340496Y10532D02*
X341678D01*
X341087Y9941D02*
Y11123D01*
X274837Y172981D02*
X276019D01*
X275428Y172390D02*
Y173572D01*
X178944Y129884D02*
X180125D01*
X179534Y129294D02*
Y130475D01*
X225615Y130480D02*
X226796D01*
X226205Y129890D02*
Y131071D01*
X234751Y139020D02*
X235932D01*
X235341Y138429D02*
Y139611D01*
X243687Y178144D02*
X244869D01*
X244278Y177554D02*
Y178735D01*
X219458Y180130D02*
X220639D01*
X220049Y179540D02*
Y180721D01*
X224820Y177747D02*
X226002D01*
X225411Y177156D02*
Y178338D01*
X202479Y200983D02*
X203857D01*
X203168Y200294D02*
Y201672D01*
X182320Y197011D02*
X183501D01*
X182911Y196421D02*
Y197602D01*
X245276Y213694D02*
X246457D01*
X245867Y213103D02*
Y214284D01*
X271889Y98506D02*
X273070D01*
X272479Y97915D02*
Y99096D01*
X283606Y93739D02*
X284787D01*
X284197Y93149D02*
Y94330D01*
X257888Y94931D02*
X259266D01*
X258577Y94242D02*
Y95620D01*
X255306Y101087D02*
X256684D01*
X255995Y100398D02*
Y101776D01*
X175766Y205551D02*
X176947D01*
X176357Y204960D02*
Y206142D01*
X156899Y134452D02*
X158080D01*
X157490Y133862D02*
Y135043D01*
X174177Y170002D02*
X175358D01*
X174768Y169411D02*
Y170592D01*
X173184Y166030D02*
X174366D01*
X173775Y165439D02*
Y166620D01*
X168219Y170002D02*
X169401D01*
X168810Y169411D02*
Y170592D01*
X192449Y203764D02*
X193630D01*
X193039Y203173D02*
Y204354D01*
X146771Y184301D02*
X147952D01*
X147361Y183710D02*
Y184891D01*
X211217Y205352D02*
X212595D01*
X211906Y204663D02*
Y206041D01*
X251631Y155107D02*
X252813D01*
X252222Y154516D02*
Y155697D01*
X287379Y131473D02*
X288561D01*
X287970Y130883D02*
Y132064D01*
X258391Y125666D02*
X259572D01*
X258982Y125076D02*
Y126257D01*
X300823Y120866D02*
X302004D01*
X301413Y120276D02*
Y121457D01*
X277152Y131275D02*
X278530D01*
X277841Y130586D02*
Y131964D01*
X45882Y111017D02*
X47063D01*
X46472Y110427D02*
Y111608D01*
X259774Y241100D02*
X260955D01*
X260365Y240510D02*
Y241691D01*
X259576Y258379D02*
X260757D01*
X260166Y257788D02*
Y258969D01*
X80637Y153319D02*
X81818D01*
X81227Y152729D02*
Y153910D01*
X43499Y156298D02*
X44680D01*
X44089Y155708D02*
Y156889D01*
X96922Y153518D02*
X98103D01*
X97513Y152927D02*
Y154108D01*
X98312Y176158D02*
X99493D01*
X98903Y175568D02*
Y176749D01*
X96525Y193635D02*
X97706D01*
X97115Y193044D02*
Y194226D01*
X199400Y169009D02*
X200581D01*
X199990Y168418D02*
Y169599D01*
X146572Y91952D02*
X147753D01*
X147163Y91361D02*
Y92542D01*
X285195Y32173D02*
X286376D01*
X285785Y31583D02*
Y32764D01*
X256398Y38926D02*
X257579D01*
X256988Y38335D02*
Y39516D01*
X285393Y68914D02*
X286575D01*
X285984Y68324D02*
Y69505D01*
X284202Y82022D02*
X285383D01*
X284792Y81431D02*
Y82612D01*
X265931Y83611D02*
X267112D01*
X266521Y83020D02*
Y84201D01*
X208138Y116975D02*
X209319D01*
X208729Y116385D02*
Y117566D01*
X240907Y150539D02*
X242088D01*
X241498Y149948D02*
Y151129D01*
X241304Y162058D02*
X242485D01*
X241895Y161467D02*
Y162648D01*
X296714Y208927D02*
X297895D01*
X297304Y208337D02*
Y209518D01*
X296118Y224617D02*
X297299D01*
X296708Y224026D02*
Y225207D01*
X280429Y178144D02*
X281610D01*
X281019Y177554D02*
Y178735D01*
X192647Y226007D02*
X193828D01*
X193238Y225416D02*
Y226597D01*
X180807Y225217D02*
X181988D01*
X181398Y224626D02*
Y225807D01*
X267122Y232759D02*
X268303D01*
X267713Y232169D02*
Y233350D01*
X258781Y232759D02*
X259962D01*
X259372Y232169D02*
Y233350D01*
X248454Y266720D02*
X249635D01*
X249044Y266129D02*
Y267310D01*
X167226Y166030D02*
X168407D01*
X167817Y165439D02*
Y166620D01*
X174177Y173974D02*
X175358D01*
X174768Y173383D02*
Y174564D01*
X214732Y141193D02*
X215913D01*
X215323Y140602D02*
Y141783D01*
X212087Y47575D02*
X213268D01*
X212677Y46984D02*
Y48165D01*
X213347Y27161D02*
X214528D01*
X213937Y26571D02*
Y27752D01*
X35795Y23378D02*
X36976D01*
X36386Y22787D02*
Y23968D01*
X35795Y18772D02*
X36976D01*
X36386Y18181D02*
Y19362D01*
X35795Y14441D02*
X36976D01*
X36386Y13850D02*
Y15032D01*
X35795Y10268D02*
X36976D01*
X36386Y9677D02*
Y10858D01*
X70040Y116380D02*
X71221D01*
X70631Y115789D02*
Y116970D01*
X71006Y165632D02*
X72384D01*
X71695Y164943D02*
Y166321D01*
X52067Y141732D02*
X53445D01*
X52756Y141043D02*
Y142421D01*
X229388Y141205D02*
X230569D01*
X229979Y140614D02*
Y141795D01*
X258285Y81029D02*
X259663D01*
X258974Y80340D02*
Y81718D01*
X198110Y75567D02*
X199488D01*
X198799Y74878D02*
Y76256D01*
X51840Y13902D02*
X53021D01*
X52430Y13311D02*
Y14492D01*
X48861Y9334D02*
X50042D01*
X49451Y8744D02*
Y9925D01*
X280061Y186813D02*
X281439D01*
X280750Y186124D02*
Y187502D01*
X290657Y146368D02*
X292035D01*
X291346Y145679D02*
Y147057D01*
X272484Y243484D02*
X273665D01*
X273075Y242893D02*
Y244074D01*
X198110Y71496D02*
X199488D01*
X198799Y70807D02*
Y72185D01*
X297508Y158880D02*
X298689D01*
X298099Y158290D02*
Y159471D01*
X297508Y155901D02*
X298689D01*
X298099Y155310D02*
Y156492D01*
X223729Y107045D02*
X225107D01*
X224418Y106356D02*
Y107734D01*
X257888Y87583D02*
X259266D01*
X258577Y86894D02*
Y88272D01*
X288671Y51835D02*
X290049D01*
X289360Y51146D02*
Y52524D01*
X279536Y51835D02*
X280914D01*
X280225Y51146D02*
Y52524D01*
X272386Y52232D02*
X273764D01*
X273075Y51543D02*
Y52921D01*
X224325Y110620D02*
X225703D01*
X225014Y109931D02*
Y111309D01*
X229886Y42699D02*
X231264D01*
X230575Y42010D02*
Y43388D01*
X138681Y112598D02*
X140059D01*
X139370Y111909D02*
Y113287D01*
X132382Y115748D02*
X133760D01*
X133071Y115059D02*
Y116437D01*
X132382Y109842D02*
X133760D01*
X133071Y109153D02*
Y110531D01*
M02*
