G04*
G04 #@! TF.GenerationSoftware,Altium Limited,Altium Designer,20.0.10 (225)*
G04*
G04 Layer_Color=128*
%FSLAX25Y25*%
%MOIN*%
G70*
G01*
G75*
%ADD29R,0.03756X0.06118*%
%ADD35R,0.04800X0.04100*%
%ADD36R,0.04100X0.04800*%
%ADD41R,0.06118X0.03756*%
%ADD214R,0.04543X0.07299*%
%ADD215R,0.07299X0.04543*%
%ADD216R,0.05331X0.03362*%
%ADD217R,0.05646X0.03284*%
D29*
X325397Y100399D02*
D03*
X332877D02*
D03*
X339323Y132642D02*
D03*
X346803D02*
D03*
X339323Y139335D02*
D03*
X346803D02*
D03*
X363706Y82630D02*
D03*
X371186D02*
D03*
X348481Y17730D02*
D03*
X341001D02*
D03*
D35*
X325774Y93166D02*
D03*
X332074D02*
D03*
X324953Y115320D02*
D03*
X331253D02*
D03*
X325346Y110398D02*
D03*
X331646D02*
D03*
X367983Y23338D02*
D03*
X361683D02*
D03*
D36*
X379284Y125556D02*
D03*
Y119256D02*
D03*
X331662Y121372D02*
D03*
Y127672D02*
D03*
X385977Y119256D02*
D03*
Y125556D02*
D03*
X385583Y107051D02*
D03*
Y113351D02*
D03*
X393620Y81981D02*
D03*
Y88281D02*
D03*
X376528Y92878D02*
D03*
Y99178D02*
D03*
X353238Y30230D02*
D03*
Y23930D02*
D03*
X352970Y18117D02*
D03*
Y11817D02*
D03*
X347886Y30276D02*
D03*
Y23976D02*
D03*
X373772Y119256D02*
D03*
Y125556D02*
D03*
X379677Y113745D02*
D03*
Y107445D02*
D03*
X377816Y11271D02*
D03*
Y17571D02*
D03*
D41*
X324512Y121974D02*
D03*
Y129454D02*
D03*
X343823Y47784D02*
D03*
Y40304D02*
D03*
X351697Y47784D02*
D03*
Y40304D02*
D03*
X359571Y47784D02*
D03*
Y40304D02*
D03*
X382827Y99768D02*
D03*
Y92288D02*
D03*
X341842Y31143D02*
D03*
Y23663D02*
D03*
D214*
X372804Y30074D02*
D03*
X361386D02*
D03*
D215*
X393851Y114138D02*
D03*
Y125556D02*
D03*
X393858Y106911D02*
D03*
Y95494D02*
D03*
D216*
X361683Y10937D02*
D03*
Y14677D02*
D03*
Y18417D02*
D03*
X371919D02*
D03*
Y10937D02*
D03*
D217*
X361803Y125595D02*
D03*
Y120595D02*
D03*
Y115595D02*
D03*
Y110595D02*
D03*
Y105595D02*
D03*
Y100595D02*
D03*
Y95595D02*
D03*
X340859D02*
D03*
Y100595D02*
D03*
Y105595D02*
D03*
Y110595D02*
D03*
Y115595D02*
D03*
Y120595D02*
D03*
Y125595D02*
D03*
M02*
